{
.appVersion = "1271";
copyright = "©2004-2020 Robert E. Leuschke";
customParameters = (
{
name = panose;
value = (
2,
0,
5,
7,
8,
0,
0,
2,
0,
2
);
},
{
name = unicodeRanges;
value = (
0
);
},
{
name = fsType;
value = (
2
);
},
{
name = glyphOrder;
value = (
.notdef,
.null,
CR,
space,
threequarters,
brokenbar,
minus,
multiply,
RS,
US,
onequarter,
exclam,
quotedbl,
numbersign,
dollar,
percent,
ampersand,
quotesingle,
parenleft,
parenright,
asterisk,
plus,
comma,
hyphen,
period,
slash,
zero,
one,
two,
three,
four,
five,
six,
seven,
eight,
nine,
colon,
semicolon,
less,
equal,
greater,
question,
at,
A,
B,
C,
D,
E,
F,
G,
H,
I,
J,
K,
L,
M,
N,
O,
P,
Q,
R,
S,
T,
U,
V,
W,
X,
Y,
Z,
Z.stroke,
bracketleft,
backslash,
bracketright,
asciicircum,
underscore,
grave,
a,
b,
c,
d,
e,
f,
g,
h,
i,
j,
k,
l,
m,
n,
o,
p,
q,
r,
s,
t,
u,
v,
w,
x,
y,
z,
z.alt,
z.stroke,
braceleft,
bar,
braceright,
asciitilde,
DEL,
Adieresis,
Aring,
Ccedilla,
Eacute,
Ntilde,
Odieresis,
Udieresis,
aacute,
agrave,
acircumflex,
adieresis,
atilde,
aring,
ccedilla,
eacute,
egrave,
ecircumflex,
edieresis,
iacute,
igrave,
icircumflex,
idieresis,
ntilde,
oacute,
ograve,
ocircumflex,
odieresis,
otilde,
uacute,
ugrave,
ucircumflex,
udieresis,
dagger,
degree,
cent,
sterling,
bullet,
paragraph,
germandbls,
registered,
copyright,
trademark,
acute,
dieresis,
notequal,
AE,
infinity,
plusminus,
lessequal,
greaterequal,
yen,
mu,
partialdiff,
pi,
integral,
ordfeminine,
ordmasculine,
summation,
Omega,
ae,
questiondown,
exclamdown,
logicalnot,
radical,
florin,
approxequal,
Delta,
guillemotleft,
guillemotright,
ellipsis,
nonbreakingspace,
Agrave,
Atilde,
Otilde,
OE,
oe,
endash,
emdash,
quotedblleft,
quotedblright,
quoteleft,
quoteright,
Euro,
ydieresis,
Ydieresis,
fraction,
currency,
guilsinglleft,
guilsinglright,
daggerdbl,
quotesinglbase,
quotedblbase,
perthousand,
Acircumflex,
Ecircumflex,
Aacute,
Edieresis,
Egrave,
Iacute,
Icircumflex,
Idieresis,
Igrave,
Oacute,
Ocircumflex,
apple,
Ograve,
Uacute,
Ucircumflex,
Ugrave,

glyphs = (
{
glyphname = brokenbar;
layers = (
{
layerId = "8CCE14AF-3337-4F2C-A14C-E3F14A892F52";
paths = (
{
closed = 1;
nodes = (
"428 749 LINE",
"376 749 LINE",
"286 327 LINE",
"334 322 LINE",
"334 322 LINE"
);
},
{
closed = 1;
nodes = (
"311 216 LINE",
"264 220 LINE",
"168 -231 LINE",
"220 -231 LINE",
"220 -231 LINE"
);
}
);
userData = {
assembly = "SVTCA[0]\011/* SetFreedomAndProjectionVectorToAxis */
PUSHW[ ]\011/* 1 value pushed */
2 
MDAP[1]\011/* MoveDirectAbsPt */
PUSHW[ ]\011/* 1 value pushed */
4 
MDAP[1]\011/* MoveDirectAbsPt */
IUP[0]\011/* InterpolateUntPts */
IUP[1]\011/* InterpolateUntPts */";
};
width = 485;
}
);
note = brokenbar;
unicode = 00A6;
},
{
glyphname = minus;
layers = (
{
layerId = "8CCE14AF-3337-4F2C-A14C-E3F14A892F52";
paths = (
{
closed = 1;
nodes = (
"362 208 LINE",
"362 229 LINE",
"361 230 LINE",
"108 230 LINE",
"107 229 LINE",
"107 208 LINE",
"108 207 LINE",
"361 207 LINE",
"361 207 LINE"
);
}
);
userData = {
assembly = "PUSHW[ ]\011/* 3 values pushed */
7 2 3 
CALL[ ]\011/* CallFunction */
PUSHW[ ]\011/* 1 value pushed */
7 
SRP0[ ]\011/* SetRefPoint0 */
PUSHW[ ]\011/* 1 value pushed */
9 
MDRP[11100]\011/* MoveDirectRelPt */
SVTCA[0]\011/* SetFreedomAndProjectionVectorToAxis */
PUSHW[ ]\011/* 4 values pushed */
5 2 0 4 
CALL[ ]\011/* CallFunction */
IUP[0]\011/* InterpolateUntPts */
IUP[1]\011/* InterpolateUntPts */";
};
width = 373;
}
);
note = minus;
unicode = 2212;
},
{
glyphname = multiply;
layers = (
{
layerId = "8CCE14AF-3337-4F2C-A14C-E3F14A892F52";
paths = (
{
closed = 1;
nodes = (
"260 285 LINE",
"260 288 OFFCURVE",
"252 306 OFFCURVE",
"249 306 QCURVE",
"175 226 LINE",
"133 311 LINE",
"130 310 OFFCURVE",
"115 294 OFFCURVE",
"114 291 QCURVE",
"157 207 LINE",
"83 127 LINE",
"83 125 OFFCURVE",
"92 107 OFFCURVE",
"94 106 QCURVE",
"168 186 LINE",
"210 101 LINE",
"213 102 OFFCURVE",
"228 118 OFFCURVE",
"229 121 QCURVE",
"186 205 LINE",
"186 205 LINE"
);
}
);
userData = {
assembly = "SVTCA[0]\011/* SetFreedomAndProjectionVectorToAxis */
PUSHW[ ]\011/* 1 value pushed */
4 
MDAP[1]\011/* MoveDirectAbsPt */
PUSHW[ ]\011/* 1 value pushed */
6 
MDAP[1]\011/* MoveDirectAbsPt */
PUSHW[ ]\011/* 1 value pushed */
14 
MDAP[1]\011/* MoveDirectAbsPt */
PUSHW[ ]\011/* 1 value pushed */
16 
MDAP[1]\011/* MoveDirectAbsPt */
PUSHW[ ]\011/* 3 values pushed */
5 4 14 
SRP1[ ]\011/* SetRefPoint1 */
SRP2[ ]\011/* SetRefPoint2 */
IP[ ]\011/* InterpolatePts */
PUSHW[ ]\011/* 3 values pushed */
15 4 14 
SRP1[ ]\011/* SetRefPoint1 */
SRP2[ ]\011/* SetRefPoint2 */
IP[ ]\011/* InterpolatePts */
IUP[0]\011/* InterpolateUntPts */
IUP[1]\011/* InterpolateUntPts */";
};
width = 304;
}
);
note = multiply;
unicode = 00D7;
},
{
glyphname = exclam;
layers = (
{
layerId = "8CCE14AF-3337-4F2C-A14C-E3F14A892F52";
paths = (
{
closed = 1;
nodes = (
"538 617 LINE",
"533 619 LINE",
"523 619 OFFCURVE",
"499 620 OFFCURVE",
"475 618 OFFCURVE",
"455 609 OFFCURVE",
"450 599 QCURVE SMOOTH",
"196 115 LINE",
"195 108 LINE",
"205 107 LINE",
"212 117 OFFCURVE",
"247 170 OFFCURVE",
"296 241 OFFCURVE",
"353 326 OFFCURVE",
"411 412 OFFCURVE",
"466 494 OFFCURVE",
"510 561 OFFCURVE",
"538 605 OFFCURVE",
"540 611 QCURVE",
"540 611 LINE"
);
},
{
closed = 1;
nodes = (
"205 44 OFFCURVE",
"185 68 OFFCURVE",
"168 68 QCURVE SMOOTH",
"151 68 OFFCURVE",
"122 44 OFFCURVE",
"120 27 QCURVE SMOOTH",
"117 10 OFFCURVE",
"137 -14 OFFCURVE",
"154 -14 QCURVE SMOOTH",
"171 -14 OFFCURVE",
"199 10 OFFCURVE",
"202 27 QCURVE",
"202 27 LINE"
);
}
);
userData = {
assembly = "SVTCA[0]\011/* SetFreedomAndProjectionVectorToAxis */
PUSHW[ ]\011/* 3 values pushed */
28 22 3 
CALL[ ]\011/* CallFunction */
IUP[0]\011/* InterpolateUntPts */
IUP[1]\011/* InterpolateUntPts */";
};
width = 350;
}
);
note = exclam;
unicode = 0021;
},
{
glyphname = quotedbl;
layers = (
{
layerId = "8CCE14AF-3337-4F2C-A14C-E3F14A892F52";
paths = (
{
closed = 1;
nodes = (
"328 657 OFFCURVE",
"308 657 QCURVE SMOOTH",
"294 657 OFFCURVE",
"277 639 OFFCURVE",
"279 625 QCURVE",
"287 459 LINE",
"297 459 LINE",
"300 470 OFFCURVE",
"313 521 OFFCURVE",
"325 576 OFFCURVE",
"333 626 OFFCURVE",
"331 637 QCURVE",
"331 637 LINE"
);
},
{
closed = 1;
nodes = (
"219 657 OFFCURVE",
"200 657 QCURVE SMOOTH",
"187 657 OFFCURVE",
"169 637 OFFCURVE",
"170 624 QCURVE SMOOTH",
"179 459 LINE",
"189 459 LINE",
"192 471 OFFCURVE",
"205 521 OFFCURVE",
"217 577 OFFCURVE",
"224 627 OFFCURVE",
"222 638 QCURVE",
"222 638 LINE"
);
}
);
width = 318;
}
);
note = quotedbl;
unicode = 0022;
},
{
glyphname = numbersign;
layers = (
{
layerId = "8CCE14AF-3337-4F2C-A14C-E3F14A892F52";
paths = (
{
closed = 1;
nodes = (
"719 465 LINE",
"571 465 LINE",
"710 696 LINE",
"656 696 LINE",
"517 465 LINE",
"377 465 LINE",
"517 696 LINE",
"462 696 LINE",
"324 465 LINE",
"154 465 LINE",
"125 417 LINE",
"295 417 LINE",
"211 276 LINE",
"55 276 LINE",
"25 229 LINE",
"183 229 LINE",
"45 0 LINE",
"98 0 LINE",
"237 229 LINE",
"375 229 LINE",
"238 0 LINE",
"291 0 LINE",
"430 229 LINE",
"591 229 LINE",
"620 276 LINE",
"459 276 LINE",
"542 417 LINE",
"691 417 LINE",
"691 417 LINE"
);
},
{
closed = 1;
nodes = (
"488 417 LINE",
"404 276 LINE",
"264 276 LINE",
"349 417 LINE",
"349 417 LINE"
);
}
);
userData = {
assembly = "SVTCA[0]\011/* SetFreedomAndProjectionVectorToAxis */
PUSHW[ ]\011/* 1 value pushed */
0 
RCVT[ ]\011/* ReadCVT */
IF[ ]\011/* If */
PUSHW[ ]\011/* 1 value pushed */
6 
MDAP[1]\011/* MoveDirectAbsPt */
ELSE[ ]\011/* Else */
PUSHW[ ]\011/* 2 values pushed */
6 5 
MIAP[0]\011/* MoveIndirectAbsPt */
EIF[ ]\011/* EndIf */
PUSHW[ ]\011/* 1 value pushed */
0 
RCVT[ ]\011/* ReadCVT */
IF[ ]\011/* If */
PUSHW[ ]\011/* 1 value pushed */
10 
MDAP[1]\011/* MoveDirectAbsPt */
ELSE[ ]\011/* Else */
PUSHW[ ]\011/* 2 values pushed */
10 5 
MIAP[0]\011/* MoveIndirectAbsPt */
EIF[ ]\011/* EndIf */
PUSHW[ ]\011/* 4 values pushed */
18 2 17 4 
CALL[ ]\011/* CallFunction */
PUSHW[ ]\011/* 1 value pushed */
17 
SRP0[ ]\011/* SetRefPoint0 */
PUSHW[ ]\011/* 1 value pushed */
0 
MDRP[10000]\011/* MoveDirectRelPt */
PUSHW[ ]\011/* 1 value pushed */
6 
SRP0[ ]\011/* SetRefPoint0 */
PUSHW[ ]\011/* 1 value pushed */
2 
MDRP[11100]\011/* MoveDirectRelPt */
PUSHW[ ]\011/* 3 values pushed */
8 6 2 
SRP1[ ]\011/* SetRefPoint1 */
SRP2[ ]\011/* SetRefPoint2 */
IP[ ]\011/* InterpolatePts */
PUSHW[ ]\011/* 3 values pushed */
12 6 2 
SRP1[ ]\011/* SetRefPoint1 */
SRP2[ ]\011/* SetRefPoint2 */
IP[ ]\011/* InterpolatePts */
PUSHW[ ]\011/* 3 values pushed */
13 6 2 
SRP1[ ]\011/* SetRefPoint1 */
SRP2[ ]\011/* SetRefPoint2 */
IP[ ]\011/* InterpolatePts */
PUSHW[ ]\011/* 1 value pushed */
14 
MDRP[10000]\011/* MoveDirectRelPt */
PUSHW[ ]\011/* 1 value pushed */
15 
MDRP[10000]\011/* MoveDirectRelPt */
PUSHW[ ]\011/* 1 value pushed */
18 
SRP0[ ]\011/* SetRefPoint0 */
PUSHW[ ]\011/* 1 value pushed */
22 
MDRP[10000]\011/* MoveDirectRelPt */
PUSHW[ ]\011/* 1 value pushed */
18 
SRP0[ ]\011/* SetRefPoint0 */
PUSHW[ ]\011/* 1 value pushed */
26 
MDRP[10000]\011/* MoveDirectRelPt */
PUSHW[ ]\011/* 1 value pushed */
17 
SRP0[ ]\011/* SetRefPoint0 */
PUSHW[ ]\011/* 1 value pushed */
28 
MDRP[10000]\011/* MoveDirectRelPt */
PUSHW[ ]\011/* 1 value pushed */
15 
SRP0[ ]\011/* SetRefPoint0 */
PUSHW[ ]\011/* 1 value pushed */
29 
MDRP[10000]\011/* MoveDirectRelPt */
PUSHW[ ]\011/* 1 value pushed */
30 
MDRP[10000]\011/* MoveDirectRelPt */
IUP[0]\011/* InterpolateUntPts */
IUP[1]\011/* InterpolateUntPts */";
};
width = 746;
}
);
note = numbersign;
unicode = 0023;
},
{
glyphname = dollar;
layers = (
{
layerId = "8CCE14AF-3337-4F2C-A14C-E3F14A892F52";
paths = (
{
closed = 1;
nodes = (
"475 515 OFFCURVE",
"442 565 OFFCURVE",
"401 572 QCURVE",
"434 633 LINE",
"402 627 LINE",
"374 575 LINE",
"340 575 OFFCURVE",
"264 557 OFFCURVE",
"199 519 OFFCURVE",
"157 460 OFFCURVE",
"157 420 QCURVE SMOOTH",
"157 384 OFFCURVE",
"195 320 OFFCURVE",
"217 293 QCURVE",
"68 21 LINE",
"38 27 OFFCURVE",
"-18 54 OFFCURVE",
"-40 77 QCURVE",
"-49 77 LINE",
"-52 74 OFFCURVE",
"-66 58 OFFCURVE",
"-67 53 QCURVE",
"-58 41 OFFCURVE",
"-28 23 OFFCURVE",
"6 11 OFFCURVE",
"42 3 OFFCURVE",
"56 0 QCURVE",
"21 -61 LINE",
"55 -55 LINE",
"83 -2 LINE",
"124 -2 OFFCURVE",
"215 23 OFFCURVE",
"290 71 OFFCURVE",
"339 144 OFFCURVE",
"339 192 QCURVE SMOOTH",
"339 234 OFFCURVE",
"296 308 OFFCURVE",
"272 340 QCURVE",
"389 552 LINE",
"410 547 OFFCURVE",
"447 522 OFFCURVE",
"452 492 QCURVE",
"450 498 OFFCURVE",
"429 509 OFFCURVE",
"421 509 QCURVE SMOOTH",
"401 509 OFFCURVE",
"377 485 OFFCURVE",
"376 467 QCURVE SMOOTH",
"375 448 OFFCURVE",
"401 421 OFFCURVE",
"420 421 QCURVE SMOOTH",
"444 421 OFFCURVE",
"475 461 OFFCURVE",
"475 487 QCURVE",
"475 487 LINE"
);
},
{
closed = 1;
nodes = (
"256 362 LINE",
"243 383 OFFCURVE",
"220 420 OFFCURVE",
"220 446 QCURVE SMOOTH",
"220 471 OFFCURVE",
"244 512 OFFCURVE",
"281 541 OFFCURVE",
"327 557 OFFCURVE",
"350 557 QCURVE SMOOTH",
"354 557 OFFCURVE",
"360 556 OFFCURVE",
"364 556 QCURVE",
"364 556 LINE"
);
},
{
closed = 1;
nodes = (
"276 139 OFFCURVE",
"243 81 OFFCURVE",
"191 40 OFFCURVE",
"126 18 OFFCURVE",
"94 18 QCURVE",
"235 272 LINE",
"251 251 OFFCURVE",
"276 201 OFFCURVE",
"276 174 QCURVE",
"276 174 LINE"
);
}
);
userData = {
assembly = "PUSHW[ ]\011/* 4 values pushed */
66 3 19 4 
CALL[ ]\011/* CallFunction */
PUSHW[ ]\011/* 4 values pushed */
62 3 43 4 
CALL[ ]\011/* CallFunction */
PUSHW[ ]\011/* 4 values pushed */
12 4 0 4 
CALL[ ]\011/* CallFunction */
NPUSHW[ ]\011/* 33 values pushed */
9 12 25 12 41 12 57 12 73 12 89 12 105 12 121 12 137 12 153 12 169 12 185 12 201 12 217 12 233 12 249 12 16 
DELTAP1[ ]\011/* DeltaExceptionP1 */
NPUSHW[ ]\011/* 33 values pushed */
9 12 25 12 41 12 57 12 73 12 89 12 105 12 121 12 137 12 153 12 169 12 185 12 201 12 217 12 233 12 249 12 16 
DELTAP2[ ]\011/* DeltaExceptionP2 */
NPUSHW[ ]\011/* 33 values pushed */
9 12 25 12 41 12 57 12 73 12 89 12 105 12 121 12 137 12 153 12 169 12 185 12 201 12 217 12 233 12 249 12 16 
DELTAP3[ ]\011/* DeltaExceptionP3 */
PUSHW[ ]\011/* 3 values pushed */
50 43 0 
SRP1[ ]\011/* SetRefPoint1 */
SRP2[ ]\011/* SetRefPoint2 */
IP[ ]\011/* InterpolatePts */
PUSHW[ ]\011/* 3 values pushed */
51 43 0 
SRP1[ ]\011/* SetRefPoint1 */
SRP2[ ]\011/* SetRefPoint2 */
IP[ ]\011/* InterpolatePts */
NPUSHW[ ]\011/* 33 values pushed */
6 62 22 62 38 62 54 62 70 62 86 62 102 62 118 62 134 62 150 62 166 62 182 62 198 62 214 62 230 62 246 62 16 
DELTAP1[ ]\011/* DeltaExceptionP1 */
NPUSHW[ ]\011/* 5 values pushed */
5 62 21 62 2 
DELTAP2[ ]\011/* DeltaExceptionP2 */
PUSHW[ ]\011/* 3 values pushed */
65 43 0 
SRP1[ ]\011/* SetRefPoint1 */
SRP2[ ]\011/* SetRefPoint2 */
IP[ ]\011/* InterpolatePts */
NPUSHW[ ]\011/* 5 values pushed */
10 66 26 66 2 
DELTAP2[ ]\011/* DeltaExceptionP2 */
NPUSHW[ ]\011/* 33 values pushed */
9 66 25 66 41 66 57 66 73 66 89 66 105 66 121 66 137 66 153 66 169 66 185 66 201 66 217 66 233 66 249 66 16 
DELTAP1[ ]\011/* DeltaExceptionP1 */
PUSHW[ ]\011/* 3 values pushed */
69 43 0 
SRP1[ ]\011/* SetRefPoint1 */
SRP2[ ]\011/* SetRefPoint2 */
IP[ ]\011/* InterpolatePts */
SVTCA[0]\011/* SetFreedomAndProjectionVectorToAxis */
PUSHW[ ]\011/* 3 values pushed */
9 3 3 
CALL[ ]\011/* CallFunction */
PUSHW[ ]\011/* 3 values pushed */
12 3 9 
SRP1[ ]\011/* SetRefPoint1 */
SRP2[ ]\011/* SetRefPoint2 */
IP[ ]\011/* InterpolatePts */
IUP[0]\011/* InterpolateUntPts */
IUP[1]\011/* InterpolateUntPts */";
};
width = 449;
}
);
note = dollar;
unicode = 0024;
},
{
glyphname = percent;
layers = (
{
layerId = "8CCE14AF-3337-4F2C-A14C-E3F14A892F52";
paths = (
{
closed = 1;
nodes = (
"620 661 LINE",
"620 665 OFFCURVE",
"613 668 OFFCURVE",
"604 668 OFFCURVE",
"595 666 OFFCURVE",
"594 665 QCURVE SMOOTH",
"589 662 OFFCURVE",
"544 612 OFFCURVE",
"487 549 OFFCURVE",
"430 489 OFFCURVE",
"413 476 QCURVE SMOOTH",
"386 454 OFFCURVE",
"332 421 OFFCURVE",
"285 406 OFFCURVE",
"248 413 OFFCURVE",
"238 432 QCURVE",
"255 448 OFFCURVE",
"295 505 OFFCURVE",
"328 571 OFFCURVE",
"348 639 OFFCURVE",
"344 695 OFFCURVE",
"310 731 OFFCURVE",
"273 732 QCURVE SMOOTH",
"248 732 OFFCURVE",
"193 706 OFFCURVE",
"142 659 OFFCURVE",
"98 598 OFFCURVE",
"83 564 QCURVE SMOOTH",
"69 531 OFFCURVE",
"59 466 OFFCURVE",
"70 414 OFFCURVE",
"103 382 OFFCURVE",
"132 381 QCURVE SMOOTH",
"155 380 OFFCURVE",
"199 399 OFFCURVE",
"219 415 QCURVE",
"239 394 OFFCURVE",
"290 388 OFFCURVE",
"347 408 OFFCURVE",
"408 448 OFFCURVE",
"437 473 QCURVE",
"322 331 OFFCURVE",
"93 54 OFFCURVE",
"-33 -79 QCURVE",
"-32 -84 LINE",
"5 -84 LINE",
"5 -84 LINE"
);
},
{
closed = 1;
nodes = (
"465 322 OFFCURVE",
"410 295 OFFCURVE",
"359 249 OFFCURVE",
"315 187 OFFCURVE",
"300 153 QCURVE SMOOTH",
"286 120 OFFCURVE",
"276 55 OFFCURVE",
"287 4 OFFCURVE",
"320 -28 OFFCURVE",
"349 -29 QCURVE SMOOTH",
"384 -30 OFFCURVE",
"457 21 OFFCURVE",
"517 98 OFFCURVE",
"559 188 OFFCURVE",
"567 267 OFFCURVE",
"534 320 OFFCURVE",
"490 321 QCURVE",
"490 321 LINE"
);
},
{
closed = 1;
nodes = (
"310 693 OFFCURVE",
"321 663 OFFCURVE",
"317 622 OFFCURVE",
"302 573 OFFCURVE",
"283 528 OFFCURVE",
"262 490 OFFCURVE",
"255 480 QCURVE",
"257 484 OFFCURVE",
"257 491 QCURVE SMOOTH",
"257 504 OFFCURVE",
"240 521 OFFCURVE",
"227 521 QCURVE SMOOTH",
"209 521 OFFCURVE",
"193 495 OFFCURVE",
"193 478 QCURVE SMOOTH",
"191 455 OFFCURVE",
"208 429 QCURVE",
"190 414 OFFCURVE",
"155 400 OFFCURVE",
"140 405 QCURVE SMOOTH",
"126 409 OFFCURVE",
"116 437 OFFCURVE",
"120 481 OFFCURVE",
"138 536 OFFCURVE",
"152 567 QCURVE SMOOTH",
"166 597 OFFCURVE",
"202 649 OFFCURVE",
"240 685 OFFCURVE",
"278 702 OFFCURVE",
"294 698 QCURVE",
"294 698 LINE"
);
},
{
closed = 1;
nodes = (
"511 141 OFFCURVE",
"483 84 OFFCURVE",
"472 70 QCURVE SMOOTH",
"463 59 OFFCURVE",
"438 29 OFFCURVE",
"408 3 OFFCURVE",
"374 -11 OFFCURVE",
"357 -6 QCURVE SMOOTH",
"343 -2 OFFCURVE",
"333 26 OFFCURVE",
"337 70 OFFCURVE",
"355 126 OFFCURVE",
"369 157 QCURVE SMOOTH",
"383 187 OFFCURVE",
"419 238 OFFCURVE",
"457 275 OFFCURVE",
"495 292 OFFCURVE",
"512 287 QCURVE SMOOTH",
"525 283 OFFCURVE",
"537 261 OFFCURVE",
"537 230 OFFCURVE",
"529 192 OFFCURVE",
"522 173 QCURVE",
"522 173 LINE"
);
}
);
userData = {
assembly = "PUSHW[ ]\011/* 4 values pushed */
84 3 78 4 
CALL[ ]\011/* CallFunction */
NPUSHW[ ]\011/* 33 values pushed */
6 84 22 84 38 84 54 84 70 84 86 84 102 84 118 84 134 84 150 84 166 84 182 84 198 84 214 84 230 84 246 84 16 
DELTAP1[ ]\011/* DeltaExceptionP1 */
NPUSHW[ ]\011/* 5 values pushed */
5 84 21 84 2 
DELTAP2[ ]\011/* DeltaExceptionP2 */
PUSHW[ ]\011/* 3 values pushed */
86 78 84 
SRP1[ ]\011/* SetRefPoint1 */
SRP2[ ]\011/* SetRefPoint2 */
IP[ ]\011/* InterpolatePts */
SVTCA[0]\011/* SetFreedomAndProjectionVectorToAxis */
PUSHW[ ]\011/* 1 value pushed */
0 
RCVT[ ]\011/* ReadCVT */
IF[ ]\011/* If */
PUSHW[ ]\011/* 1 value pushed */
73 
MDAP[1]\011/* MoveDirectAbsPt */
ELSE[ ]\011/* Else */
PUSHW[ ]\011/* 2 values pushed */
73 9 
MIAP[0]\011/* MoveIndirectAbsPt */
EIF[ ]\011/* EndIf */
PUSHW[ ]\011/* 4 values pushed */
23 2 63 4 
CALL[ ]\011/* CallFunction */
PUSHW[ ]\011/* 4 values pushed */
108 2 53 4 
CALL[ ]\011/* CallFunction */
PUSHW[ ]\011/* 3 values pushed */
81 10 3 
CALL[ ]\011/* CallFunction */
PUSHW[ ]\011/* 4 values pushed */
46 2 98 4 
CALL[ ]\011/* CallFunction */
PUSHW[ ]\011/* 3 values pushed */
5 10 81 
SRP1[ ]\011/* SetRefPoint1 */
SRP2[ ]\011/* SetRefPoint2 */
IP[ ]\011/* InterpolatePts */
PUSHW[ ]\011/* 1 value pushed */
73 
SRP0[ ]\011/* SetRefPoint0 */
PUSHW[ ]\011/* 2 values pushed */
13 2 
MIRP[10100]\011/* MoveIndirectRelPt */
NPUSHW[ ]\011/* 33 values pushed */
8 13 24 13 40 13 56 13 72 13 88 13 104 13 120 13 136 13 152 13 168 13 184 13 200 13 216 13 232 13 248 13 16 
DELTAP1[ ]\011/* DeltaExceptionP1 */
NPUSHW[ ]\011/* 33 values pushed */
8 13 24 13 40 13 56 13 72 13 88 13 104 13 120 13 136 13 152 13 168 13 184 13 200 13 216 13 232 13 248 13 16 
DELTAP2[ ]\011/* DeltaExceptionP2 */
NPUSHW[ ]\011/* 33 values pushed */
8 13 24 13 40 13 56 13 72 13 88 13 104 13 120 13 136 13 152 13 168 13 184 13 200 13 216 13 232 13 248 13 16 
DELTAP3[ ]\011/* DeltaExceptionP3 */
PUSHW[ ]\011/* 3 values pushed */
86 10 81 
SRP1[ ]\011/* SetRefPoint1 */
SRP2[ ]\011/* SetRefPoint2 */
IP[ ]\011/* InterpolatePts */
IUP[0]\011/* InterpolateUntPts */
IUP[1]\011/* InterpolateUntPts */";
};
width = 621;
}
);
note = percent;
unicode = 0025;
},
{
glyphname = ampersand;
layers = (
{
layerId = "8CCE14AF-3337-4F2C-A14C-E3F14A892F52";
paths = (
{
closed = 1;
nodes = (
"726 428 OFFCURVE",
"715 420 OFFCURVE",
"720 412 QCURVE SMOOTH",
"733 392 OFFCURVE",
"723 358 OFFCURVE",
"691 329 OFFCURVE",
"643 307 OFFCURVE",
"594 291 OFFCURVE",
"551 283 OFFCURVE",
"539 283 QCURVE SMOOTH",
"362 283 LINE SMOOTH",
"286 283 OFFCURVE",
"193 235 OFFCURVE",
"168 163 OFFCURVE",
"216 80 OFFCURVE",
"282 45 QCURVE SMOOTH",
"286 43 OFFCURVE",
"291 47 OFFCURVE",
"291 55 OFFCURVE",
"286 64 OFFCURVE",
"282 66 QCURVE SMOOTH",
"244 86 OFFCURVE",
"212 135 OFFCURVE",
"216 158 QCURVE SMOOTH",
"221 186 OFFCURVE",
"268 225 OFFCURVE",
"332 244 OFFCURVE",
"405 245 OFFCURVE",
"465 227 OFFCURVE",
"504 191 OFFCURVE",
"503 163 QCURVE SMOOTH",
"501 133 OFFCURVE",
"465 65 OFFCURVE",
"402 7 OFFCURVE",
"314 -32 OFFCURVE",
"261 -32 QCURVE SMOOTH",
"203 -32 OFFCURVE",
"132 24 OFFCURVE",
"105 110 OFFCURVE",
"118 212 OFFCURVE",
"168 304 OFFCURVE",
"255 372 OFFCURVE",
"314 381 QCURVE",
"330 365 OFFCURVE",
"382 337 OFFCURVE",
"415 337 QCURVE SMOOTH",
"441 337 OFFCURVE",
"465 355 OFFCURVE",
"464 378 OFFCURVE",
"440 398 OFFCURVE",
"418 400 QCURVE SMOOTH",
"395 402 OFFCURVE",
"351 398 OFFCURVE",
"335 398 QCURVE",
"323 422 OFFCURVE",
"330 478 OFFCURVE",
"355 532 OFFCURVE",
"391 579 OFFCURVE",
"408 594 QCURVE SMOOTH",
"459 638 OFFCURVE",
"563 677 OFFCURVE",
"603 676 QCURVE SMOOTH",
"616 676 OFFCURVE",
"643 669 OFFCURVE",
"663 656 OFFCURVE",
"673 633 OFFCURVE",
"670 616 QCURVE",
"668 623 OFFCURVE",
"646 634 OFFCURVE",
"637 634 QCURVE SMOOTH",
"617 635 OFFCURVE",
"590 609 OFFCURVE",
"589 589 QCURVE SMOOTH",
"588 569 OFFCURVE",
"616 541 OFFCURVE",
"636 541 QCURVE SMOOTH",
"662 541 OFFCURVE",
"697 586 OFFCURVE",
"697 615 QCURVE SMOOTH",
"697 640 OFFCURVE",
"675 674 OFFCURVE",
"640 694 OFFCURVE",
"598 703 OFFCURVE",
"577 703 QCURVE SMOOTH",
"530 704 OFFCURVE",
"425 676 OFFCURVE",
"335 620 OFFCURVE",
"274 538 OFFCURVE",
"273 485 QCURVE SMOOTH",
"273 462 OFFCURVE",
"287 414 OFFCURVE",
"301 395 QCURVE",
"211 385 OFFCURVE",
"86 313 OFFCURVE",
"17 215 OFFCURVE",
"7 106 OFFCURVE",
"58 15 OFFCURVE",
"171 -45 OFFCURVE",
"261 -45 QCURVE SMOOTH",
"316 -45 OFFCURVE",
"412 -14 OFFCURVE",
"488 37 OFFCURVE",
"539 101 OFFCURVE",
"559 167 OFFCURVE",
"545 229 OFFCURVE",
"518 251 QCURVE",
"568 250 OFFCURVE",
"664 277 OFFCURVE",
"730 324 OFFCURVE",
"754 386 OFFCURVE",
"731 420 QCURVE",
"731 420 LINE"
);
},
{
closed = 1;
nodes = (
"430 382 OFFCURVE",
"447 373 OFFCURVE",
"449 362 OFFCURVE",
"433 354 OFFCURVE",
"415 354 QCURVE SMOOTH",
"367 354 OFFCURVE",
"343 384 QCURVE",
"361 385 OFFCURVE",
"397 385 OFFCURVE",
"417 383 QCURVE",
"417 383 LINE"
);
}
);
userData = {
assembly = "PUSHW[ ]\011/* 4 values pushed */
44 4 32 4 
CALL[ ]\011/* CallFunction */
NPUSHW[ ]\011/* 33 values pushed */
9 44 25 44 41 44 57 44 73 44 89 44 105 44 121 44 137 44 153 44 169 44 185 44 201 44 217 44 233 44 249 44 16 
DELTAP1[ ]\011/* DeltaExceptionP1 */
NPUSHW[ ]\011/* 33 values pushed */
9 44 25 44 41 44 57 44 73 44 89 44 105 44 121 44 137 44 153 44 169 44 185 44 201 44 217 44 233 44 249 44 16 
DELTAP2[ ]\011/* DeltaExceptionP2 */
NPUSHW[ ]\011/* 33 values pushed */
9 44 25 44 41 44 57 44 73 44 89 44 105 44 121 44 137 44 153 44 169 44 185 44 201 44 217 44 233 44 249 44 16 
DELTAP3[ ]\011/* DeltaExceptionP3 */
PUSHW[ ]\011/* 1 value pushed */
32 
SRP0[ ]\011/* SetRefPoint0 */
PUSHW[ ]\011/* 1 value pushed */
122 
MDRP[11100]\011/* MoveDirectRelPt */
SVTCA[0]\011/* SetFreedomAndProjectionVectorToAxis */
PUSHW[ ]\011/* 4 values pushed */
75 1 12 4 
CALL[ ]\011/* CallFunction */
PUSHW[ ]\011/* 4 values pushed */
27 2 49 4 
CALL[ ]\011/* CallFunction */
PUSHW[ ]\011/* 3 values pushed */
41 35 3 
CALL[ ]\011/* CallFunction */
PUSHW[ ]\011/* 4 values pushed */
60 1 111 4 
CALL[ ]\011/* CallFunction */
PUSHW[ ]\011/* 4 values pushed */
116 1 65 4 
CALL[ ]\011/* CallFunction */
PUSHW[ ]\011/* 1 value pushed */
60 
SRP0[ ]\011/* SetRefPoint0 */
PUSHW[ ]\011/* 1 value pushed */
19 
MDRP[10000]\011/* MoveDirectRelPt */
PUSHW[ ]\011/* 1 value pushed */
19 
MDAP[1]\011/* MoveDirectAbsPt */
PUSHW[ ]\011/* 3 values pushed */
44 35 41 
SRP1[ ]\011/* SetRefPoint1 */
SRP2[ ]\011/* SetRefPoint2 */
IP[ ]\011/* InterpolatePts */
PUSHW[ ]\011/* 1 value pushed */
60 
SRP0[ ]\011/* SetRefPoint0 */
PUSHW[ ]\011/* 1 value pushed */
57 
MDRP[10000]\011/* MoveDirectRelPt */
PUSHW[ ]\011/* 1 value pushed */
57 
MDAP[1]\011/* MoveDirectAbsPt */
PUSHW[ ]\011/* 1 value pushed */
111 
SRP0[ ]\011/* SetRefPoint0 */
PUSHW[ ]\011/* 1 value pushed */
68 
MDRP[10000]\011/* MoveDirectRelPt */
PUSHW[ ]\011/* 1 value pushed */
68 
MDAP[1]\011/* MoveDirectAbsPt */
PUSHW[ ]\011/* 1 value pushed */
111 
SRP0[ ]\011/* SetRefPoint0 */
PUSHW[ ]\011/* 1 value pushed */
114 
MDRP[10000]\011/* MoveDirectRelPt */
PUSHW[ ]\011/* 1 value pushed */
114 
MDAP[1]\011/* MoveDirectAbsPt */
IUP[0]\011/* InterpolateUntPts */
IUP[1]\011/* InterpolateUntPts */";
};
width = 606;
}
);
note = ampersand;
unicode = 0026;
},
{
glyphname = quotesingle;
layers = (
{
layerId = "8CCE14AF-3337-4F2C-A14C-E3F14A892F52";
paths = (
{
closed = 1;
nodes = (
"188 524 OFFCURVE",
"169 559 OFFCURVE",
"147 559 QCURVE SMOOTH",
"130 559 OFFCURVE",
"102 535 OFFCURVE",
"99 518 QCURVE SMOOTH",
"96 501 OFFCURVE",
"116 476 OFFCURVE",
"133 476 QCURVE SMOOTH",
"147 476 OFFCURVE",
"162 486 QCURVE",
"157 452 OFFCURVE",
"113 409 OFFCURVE",
"85 399 QCURVE SMOOTH",
"76 396 OFFCURVE",
"78 385 OFFCURVE",
"88 388 QCURVE SMOOTH",
"104 393 OFFCURVE",
"139 413 OFFCURVE",
"169 441 OFFCURVE",
"188 480 OFFCURVE",
"188 504 QCURVE",
"188 504 LINE"
);
}
);
userData = {
assembly = "PUSHW[ ]\011/* 4 values pushed */
11 4 0 4 
CALL[ ]\011/* CallFunction */
NPUSHW[ ]\011/* 33 values pushed */
9 11 25 11 41 11 57 11 73 11 89 11 105 11 121 11 137 11 153 11 169 11 185 11 201 11 217 11 233 11 249 11 16 
DELTAP1[ ]\011/* DeltaExceptionP1 */
NPUSHW[ ]\011/* 33 values pushed */
9 11 25 11 41 11 57 11 73 11 89 11 105 11 121 11 137 11 153 11 169 11 185 11 201 11 217 11 233 11 249 11 16 
DELTAP2[ ]\011/* DeltaExceptionP2 */
NPUSHW[ ]\011/* 33 values pushed */
9 11 25 11 41 11 57 11 73 11 89 11 105 11 121 11 137 11 153 11 169 11 185 11 201 11 217 11 233 11 249 11 16 
DELTAP3[ ]\011/* DeltaExceptionP3 */
SVTCA[0]\011/* SetFreedomAndProjectionVectorToAxis */
PUSHW[ ]\011/* 3 values pushed */
19 13 3 
CALL[ ]\011/* CallFunction */
PUSHW[ ]\011/* 3 values pushed */
11 13 19 
SRP1[ ]\011/* SetRefPoint1 */
SRP2[ ]\011/* SetRefPoint2 */
IP[ ]\011/* InterpolatePts */
IUP[0]\011/* InterpolateUntPts */
IUP[1]\011/* InterpolateUntPts */";
};
width = 158;
}
);
note = quotesingle;
unicode = 0027;
},
{
glyphname = parenleft;
layers = (
{
layerId = "8CCE14AF-3337-4F2C-A14C-E3F14A892F52";
paths = (
{
closed = 1;
nodes = (
"410 733 OFFCURVE",
"257 634 OFFCURVE",
"137 511 OFFCURVE",
"56 379 OFFCURVE",
"41 324 QCURVE SMOOTH",
"19 238 OFFCURVE",
"32 92 OFFCURVE",
"88 -12 OFFCURVE",
"177 -65 OFFCURVE",
"230 -59 QCURVE SMOOTH",
"255 -56 OFFCURVE",
"256 -35 OFFCURVE",
"237 -37 QCURVE SMOOTH",
"181 -44 OFFCURVE",
"110 18 OFFCURVE",
"79 126 OFFCURVE",
"86 264 OFFCURVE",
"109 333 QCURVE SMOOTH",
"118 362 OFFCURVE",
"151 436 OFFCURVE",
"199 515 OFFCURVE",
"262 594 OFFCURVE",
"342 664 OFFCURVE",
"439 719 OFFCURVE",
"496 734 QCURVE SMOOTH",
"507 737 OFFCURVE",
"519 747 OFFCURVE",
"520 754 OFFCURVE",
"508 758 OFFCURVE",
"496 755 QCURVE",
"496 755 LINE"
);
}
);
userData = {
assembly = "SVTCA[0]\011/* SetFreedomAndProjectionVectorToAxis */
PUSHW[ ]\011/* 4 values pushed */
17 1 20 4 
CALL[ ]\011/* CallFunction */
IUP[0]\011/* InterpolateUntPts */
IUP[1]\011/* InterpolateUntPts */";
};
width = 350;
}
);
note = parenleft;
unicode = 0028;
},
{
glyphname = parenright;
layers = (
{
layerId = "8CCE14AF-3337-4F2C-A14C-E3F14A892F52";
paths = (
{
closed = 1;
nodes = (
"514 466 OFFCURVE",
"501 612 OFFCURVE",
"445 716 OFFCURVE",
"356 769 OFFCURVE",
"303 763 QCURVE SMOOTH",
"278 760 OFFCURVE",
"277 739 OFFCURVE",
"297 741 QCURVE SMOOTH",
"352 747 OFFCURVE",
"423 685 OFFCURVE",
"454 578 OFFCURVE",
"446 440 OFFCURVE",
"424 371 QCURVE SMOOTH",
"415 342 OFFCURVE",
"382 268 OFFCURVE",
"334 189 OFFCURVE",
"271 110 OFFCURVE",
"191 40 OFFCURVE",
"95 -15 OFFCURVE",
"38 -30 QCURVE SMOOTH",
"27 -33 OFFCURVE",
"14 -43 OFFCURVE",
"13 -50 OFFCURVE",
"25 -54 OFFCURVE",
"37 -51 QCURVE SMOOTH",
"123 -29 OFFCURVE",
"276 70 OFFCURVE",
"397 193 OFFCURVE",
"478 325 OFFCURVE",
"492 380 QCURVE",
"492 380 LINE"
);
}
);
userData = {
assembly = "SVTCA[0]\011/* SetFreedomAndProjectionVectorToAxis */
PUSHW[ ]\011/* 4 values pushed */
25 1 22 4 
CALL[ ]\011/* CallFunction */
IUP[0]\011/* InterpolateUntPts */
IUP[1]\011/* InterpolateUntPts */";
};
width = 518;
}
);
note = parenright;
unicode = 0029;
},
{
glyphname = asterisk;
layers = (
{
layerId = "8CCE14AF-3337-4F2C-A14C-E3F14A892F52";
paths = (
{
closed = 1;
nodes = (
"392 389 LINE",
"256 389 LINE",
"341 481 LINE SMOOTH",
"351 491 OFFCURVE",
"357 511 OFFCURVE",
"353 523 OFFCURVE",
"341 525 OFFCURVE",
"334 517 QCURVE SMOOTH",
"218 400 LINE",
"204 426 OFFCURVE",
"176 483 OFFCURVE",
"159 515 QCURVE SMOOTH",
"153 527 OFFCURVE",
"137 537 OFFCURVE",
"125 535 OFFCURVE",
"120 524 OFFCURVE",
"125 514 QCURVE SMOOTH",
"141 481 OFFCURVE",
"169 418 OFFCURVE",
"182 389 QCURVE",
"37 389 LINE SMOOTH",
"23 389 OFFCURVE",
"15 375 OFFCURVE",
"18 358 OFFCURVE",
"29 344 OFFCURVE",
"36 344 QCURVE SMOOTH",
"168 349 LINE",
"68 248 LINE SMOOTH",
"58 238 OFFCURVE",
"61 222 OFFCURVE",
"74 212 OFFCURVE",
"92 211 OFFCURVE",
"97 216 QCURVE SMOOTH",
"206 335 LINE",
"223 298 OFFCURVE",
"248 241 OFFCURVE",
"256 223 QCURVE SMOOTH",
"262 211 OFFCURVE",
"278 211 OFFCURVE",
"291 223 OFFCURVE",
"297 241 OFFCURVE",
"294 247 QCURVE SMOOTH",
"280 274 OFFCURVE",
"254 326 OFFCURVE",
"241 352 QCURVE",
"373 357 LINE SMOOTH",
"386 357 OFFCURVE",
"403 367 OFFCURVE",
"409 379 OFFCURVE",
"402 389 OFFCURVE",
"392 389 QCURVE",
"392 389 LINE"
);
}
);
userData = {
assembly = "SVTCA[0]\011/* SetFreedomAndProjectionVectorToAxis */
PUSHW[ ]\011/* 4 values pushed */
0 2 5 4 
CALL[ ]\011/* CallFunction */
PUSHW[ ]\011/* 1 value pushed */
0 
SRP0[ ]\011/* SetRefPoint0 */
PUSHW[ ]\011/* 1 value pushed */
30 
MDRP[10000]\011/* MoveDirectRelPt */
PUSHW[ ]\011/* 1 value pushed */
0 
SRP0[ ]\011/* SetRefPoint0 */
PUSHW[ ]\011/* 1 value pushed */
49 
MDRP[10000]\011/* MoveDirectRelPt */
IUP[0]\011/* InterpolateUntPts */
IUP[1]\011/* InterpolateUntPts */";
};
width = 431;
}
);
note = asterisk;
unicode = 002A;
},
{
glyphname = plus;
layers = (
{
layerId = "8CCE14AF-3337-4F2C-A14C-E3F14A892F52";
paths = (
{
closed = 1;
nodes = (
"429 239 OFFCURVE",
"360 238 OFFCURVE",
"331 239 QCURVE",
"334 254 OFFCURVE",
"342 294 OFFCURVE",
"350 336 OFFCURVE",
"358 374 OFFCURVE",
"361 388 QCURVE SMOOTH",
"363 398 OFFCURVE",
"357 406 OFFCURVE",
"346 404 OFFCURVE",
"335 393 OFFCURVE",
"333 384 QCURVE SMOOTH",
"329 369 OFFCURVE",
"319 330 OFFCURVE",
"310 290 OFFCURVE",
"301 253 OFFCURVE",
"298 239 QCURVE",
"278 239 OFFCURVE",
"236 240 OFFCURVE",
"198 241 OFFCURVE",
"167 242 OFFCURVE",
"159 242 QCURVE SMOOTH",
"148 242 OFFCURVE",
"137 226 OFFCURVE",
"135 208 OFFCURVE",
"141 193 OFFCURVE",
"147 194 QCURVE SMOOTH",
"158 195 OFFCURVE",
"191 197 OFFCURVE",
"230 199 OFFCURVE",
"270 201 OFFCURVE",
"288 203 QCURVE",
"283 183 OFFCURVE",
"273 142 OFFCURVE",
"263 106 OFFCURVE",
"256 77 OFFCURVE",
"254 68 QCURVE SMOOTH",
"251 57 OFFCURVE",
"265 50 OFFCURVE",
"284 53 OFFCURVE",
"301 63 OFFCURVE",
"302 68 QCURVE SMOOTH",
"304 91 OFFCURVE",
"319 168 OFFCURVE",
"325 205 QCURVE",
"357 207 OFFCURVE",
"429 211 OFFCURVE",
"458 211 QCURVE SMOOTH",
"468 211 OFFCURVE",
"478 219 OFFCURVE",
"478 229 OFFCURVE",
"469 238 OFFCURVE",
"461 238 QCURVE",
"461 238 LINE"
);
}
);
userData = {
assembly = "SVTCA[0]\011/* SetFreedomAndProjectionVectorToAxis */
PUSHW[ ]\011/* 4 values pushed */
36 2 21 4 
CALL[ ]\011/* CallFunction */
PUSHW[ ]\011/* 1 value pushed */
36 
SRP0[ ]\011/* SetRefPoint0 */
PUSHW[ ]\011/* 1 value pushed */
0 
MDRP[10000]\011/* MoveDirectRelPt */
PUSHW[ ]\011/* 1 value pushed */
0 
MDAP[1]\011/* MoveDirectAbsPt */
PUSHW[ ]\011/* 1 value pushed */
21 
SRP0[ ]\011/* SetRefPoint0 */
PUSHW[ ]\011/* 1 value pushed */
8 
MDRP[10000]\011/* MoveDirectRelPt */
PUSHW[ ]\011/* 1 value pushed */
8 
MDAP[1]\011/* MoveDirectAbsPt */
PUSHW[ ]\011/* 1 value pushed */
36 
SRP0[ ]\011/* SetRefPoint0 */
PUSHW[ ]\011/* 1 value pushed */
31 
MDRP[10000]\011/* MoveDirectRelPt */
PUSHW[ ]\011/* 1 value pushed */
31 
MDAP[1]\011/* MoveDirectAbsPt */
PUSHW[ ]\011/* 1 value pushed */
36 
SRP0[ ]\011/* SetRefPoint0 */
PUSHW[ ]\011/* 1 value pushed */
51 
MDRP[10000]\011/* MoveDirectRelPt */
IUP[0]\011/* InterpolateUntPts */
IUP[1]\011/* InterpolateUntPts */";
};
width = 458;
}
);
note = plus;
unicode = 002B;
},
{
glyphname = comma;
layers = (
{
layerId = "8CCE14AF-3337-4F2C-A14C-E3F14A892F52";
paths = (
{
closed = 1;
nodes = (
"114 40 OFFCURVE",
"92 68 OFFCURVE",
"70 68 QCURVE SMOOTH",
"53 68 OFFCURVE",
"24 44 OFFCURVE",
"22 27 QCURVE SMOOTH",
"19 10 OFFCURVE",
"39 -14 OFFCURVE",
"56 -14 QCURVE SMOOTH",
"71 -14 OFFCURVE",
"84 -4 QCURVE",
"80 -38 OFFCURVE",
"36 -82 OFFCURVE",
"8 -91 QCURVE SMOOTH",
"-2 -94 OFFCURVE",
"1 -106 OFFCURVE",
"10 -102 QCURVE SMOOTH",
"26 -97 OFFCURVE",
"62 -76 OFFCURVE",
"93 -45 OFFCURVE",
"114 -5 OFFCURVE",
"114 20 QCURVE",
"114 20 LINE"
);
}
);
userData = {
assembly = "PUSHW[ ]\011/* 4 values pushed */
11 4 0 4 
CALL[ ]\011/* CallFunction */
NPUSHW[ ]\011/* 33 values pushed */
9 11 25 11 41 11 57 11 73 11 89 11 105 11 121 11 137 11 153 11 169 11 185 11 201 11 217 11 233 11 249 11 16 
DELTAP1[ ]\011/* DeltaExceptionP1 */
NPUSHW[ ]\011/* 33 values pushed */
9 11 25 11 41 11 57 11 73 11 89 11 105 11 121 11 137 11 153 11 169 11 185 11 201 11 217 11 233 11 249 11 16 
DELTAP2[ ]\011/* DeltaExceptionP2 */
NPUSHW[ ]\011/* 33 values pushed */
9 11 25 11 41 11 57 11 73 11 89 11 105 11 121 11 137 11 153 11 169 11 185 11 201 11 217 11 233 11 249 11 16 
DELTAP3[ ]\011/* DeltaExceptionP3 */
SVTCA[0]\011/* SetFreedomAndProjectionVectorToAxis */
PUSHW[ ]\011/* 3 values pushed */
19 13 3 
CALL[ ]\011/* CallFunction */
PUSHW[ ]\011/* 3 values pushed */
11 13 19 
SRP1[ ]\011/* SetRefPoint1 */
SRP2[ ]\011/* SetRefPoint2 */
IP[ ]\011/* InterpolatePts */
IUP[0]\011/* InterpolateUntPts */
IUP[1]\011/* InterpolateUntPts */";
};
width = 153;
}
);
note = comma;
unicode = 002C;
},
{
glyphname = hyphen;
layers = (
{
layerId = "8CCE14AF-3337-4F2C-A14C-E3F14A892F52";
paths = (
{
closed = 1;
nodes = (
"398 211 OFFCURVE",
"406 219 OFFCURVE",
"404 229 OFFCURVE",
"393 238 OFFCURVE",
"384 238 QCURVE SMOOTH",
"297 240 OFFCURVE",
"195 242 OFFCURVE",
"164 242 QCURVE SMOOTH",
"153 242 OFFCURVE",
"146 226 OFFCURVE",
"149 208 OFFCURVE",
"159 193 OFFCURVE",
"164 194 QCURVE SMOOTH",
"209 199 OFFCURVE",
"319 211 OFFCURVE",
"388 211 QCURVE",
"388 211 LINE"
);
}
);
userData = {
assembly = "SVTCA[0]\011/* SetFreedomAndProjectionVectorToAxis */
PUSHW[ ]\011/* 4 values pushed */
11 2 0 4 
CALL[ ]\011/* CallFunction */
PUSHW[ ]\011/* 1 value pushed */
11 
SRP0[ ]\011/* SetRefPoint0 */
PUSHW[ ]\011/* 1 value pushed */
8 
MDRP[10000]\011/* MoveDirectRelPt */
PUSHW[ ]\011/* 1 value pushed */
8 
MDAP[1]\011/* MoveDirectAbsPt */
IUP[0]\011/* InterpolateUntPts */
IUP[1]\011/* InterpolateUntPts */";
};
width = 406;
}
);
note = hyphen;
unicode = 002D;
},
{
glyphname = period;
layers = (
{
layerId = "8CCE14AF-3337-4F2C-A14C-E3F14A892F52";
paths = (
{
closed = 1;
nodes = (
"188 44 OFFCURVE",
"168 68 OFFCURVE",
"151 68 QCURVE SMOOTH",
"134 68 OFFCURVE",
"105 44 OFFCURVE",
"103 27 QCURVE SMOOTH",
"100 10 OFFCURVE",
"120 -14 OFFCURVE",
"137 -14 QCURVE SMOOTH",
"154 -14 OFFCURVE",
"182 10 OFFCURVE",
"185 27 QCURVE",
"185 27 LINE"
);
}
);
userData = {
assembly = "SVTCA[0]\011/* SetFreedomAndProjectionVectorToAxis */
PUSHW[ ]\011/* 3 values pushed */
9 3 3 
CALL[ ]\011/* CallFunction */
IUP[0]\011/* InterpolateUntPts */
IUP[1]\011/* InterpolateUntPts */";
};
width = 208;
}
);
note = period;
unicode = 002E;
},
{
glyphname = slash;
layers = (
{
layerId = "8CCE14AF-3337-4F2C-A14C-E3F14A892F52";
paths = (
{
closed = 1;
nodes = (
"629 713 OFFCURVE",
"490 537 OFFCURVE",
"358 370 OFFCURVE",
"235 218 OFFCURVE",
"132 95 OFFCURVE",
"52 5 OFFCURVE",
"27 -17 QCURVE SMOOTH",
"12 -30 OFFCURVE",
"24 -46 OFFCURVE",
"44 -33 QCURVE SMOOTH",
"67 -18 OFFCURVE",
"138 53 OFFCURVE",
"226 152 OFFCURVE",
"327 272 OFFCURVE",
"432 400 OFFCURVE",
"537 531 OFFCURVE",
"633 650 OFFCURVE",
"717 752 OFFCURVE",
"748 788 QCURVE SMOOTH",
"757 798 OFFCURVE",
"750 812 OFFCURVE",
"730 816 OFFCURVE",
"706 810 OFFCURVE",
"698 800 QCURVE",
"698 800 LINE"
);
}
);
width = 548;
}
);
note = slash;
unicode = 002F;
},
{
glyphname = zero;
layers = (
{
layerId = "8CCE14AF-3337-4F2C-A14C-E3F14A892F52";
paths = (
{
closed = 1;
nodes = (
"505 491 OFFCURVE",
"495 532 OFFCURVE",
"473 562 OFFCURVE",
"438 579 OFFCURVE",
"412 579 QCURVE SMOOTH",
"370 579 OFFCURVE",
"284 532 OFFCURVE",
"204 455 OFFCURVE",
"134 357 OFFCURVE",
"82 255 OFFCURVE",
"52 157 OFFCURVE",
"52 119 QCURVE SMOOTH",
"52 93 OFFCURVE",
"65 46 OFFCURVE",
"92 10 OFFCURVE",
"133 -11 OFFCURVE",
"161 -11 QCURVE SMOOTH",
"206 -11 OFFCURVE",
"292 38 OFFCURVE",
"369 118 OFFCURVE",
"433 220 OFFCURVE",
"479 327 OFFCURVE",
"505 429 OFFCURVE",
"505 468 QCURVE",
"505 468 LINE"
);
},
{
closed = 1;
nodes = (
"467 457 OFFCURVE",
"442 363 OFFCURVE",
"400 257 OFFCURVE",
"342 149 OFFCURVE",
"277 63 OFFCURVE",
"207 9 OFFCURVE",
"173 9 QCURVE SMOOTH",
"138 9 OFFCURVE",
"112 53 OFFCURVE",
"112 84 QCURVE SMOOTH",
"112 112 OFFCURVE",
"138 205 OFFCURVE",
"183 311 OFFCURVE",
"243 418 OFFCURVE",
"310 505 OFFCURVE",
"380 560 OFFCURVE",
"413 560 QCURVE SMOOTH",
"445 560 OFFCURVE",
"467 515 OFFCURVE",
"467 487 QCURVE",
"467 487 LINE"
);
}
);
userData = {
assembly = "PUSHW[ ]\011/* 4 values pushed */
34 3 12 4 
CALL[ ]\011/* CallFunction */
PUSHW[ ]\011/* 4 values pushed */
24 3 0 4 
CALL[ ]\011/* CallFunction */
NPUSHW[ ]\011/* 5 values pushed */
10 24 26 24 2 
DELTAP2[ ]\011/* DeltaExceptionP2 */
NPUSHW[ ]\011/* 33 values pushed */
9 24 25 24 41 24 57 24 73 24 89 24 105 24 121 24 137 24 153 24 169 24 185 24 201 24 217 24 233 24 249 24 16 
DELTAP1[ ]\011/* DeltaExceptionP1 */
NPUSHW[ ]\011/* 33 values pushed */
6 34 22 34 38 34 54 34 70 34 86 34 102 34 118 34 134 34 150 34 166 34 182 34 198 34 214 34 230 34 246 34 16 
DELTAP1[ ]\011/* DeltaExceptionP1 */
NPUSHW[ ]\011/* 5 values pushed */
5 34 21 34 2 
DELTAP2[ ]\011/* DeltaExceptionP2 */
SVTCA[0]\011/* SetFreedomAndProjectionVectorToAxis */
PUSHW[ ]\011/* 4 values pushed */
37 1 7 4 
CALL[ ]\011/* CallFunction */
PUSHW[ ]\011/* 4 values pushed */
19 1 27 4 
CALL[ ]\011/* CallFunction */
IUP[0]\011/* InterpolateUntPts */
IUP[1]\011/* InterpolateUntPts */";
};
width = 502;
}
);
note = zero;
unicode = 0030;
},
{
glyphname = one;
layers = (
{
layerId = "8CCE14AF-3337-4F2C-A14C-E3F14A892F52";
paths = (
{
closed = 1;
nodes = (
"426 563 LINE",
"426 568 LINE",
"422 570 OFFCURVE",
"420 569 QCURVE",
"389 566 LINE SMOOTH",
"376 564 OFFCURVE",
"352 542 OFFCURVE",
"344 533 QCURVE SMOOTH",
"301 488 OFFCURVE",
"212 417 OFFCURVE",
"161 379 QCURVE",
"159 373 LINE",
"163 365 LINE",
"167 365 LINE",
"212 392 OFFCURVE",
"292 453 OFFCURVE",
"330 488 QCURVE",
"262 367 OFFCURVE",
"129 127 OFFCURVE",
"60 6 QCURVE",
"61 0 LINE",
"63 0 OFFCURVE",
"68 -2 OFFCURVE",
"70 -2 QCURVE SMOOTH",
"79 -1 OFFCURVE",
"114 0 OFFCURVE",
"122 5 QCURVE",
"421 553 LINE",
"421 553 LINE"
);
}
);
userData = {
assembly = "SVTCA[0]\011/* SetFreedomAndProjectionVectorToAxis */
PUSHW[ ]\011/* 1 value pushed */
0 
RCVT[ ]\011/* ReadCVT */
IF[ ]\011/* If */
PUSHW[ ]\011/* 1 value pushed */
1 
MDAP[1]\011/* MoveDirectAbsPt */
ELSE[ ]\011/* Else */
PUSHW[ ]\011/* 2 values pushed */
1 5 
MIAP[0]\011/* MoveIndirectAbsPt */
EIF[ ]\011/* EndIf */
PUSHW[ ]\011/* 1 value pushed */
0 
RCVT[ ]\011/* ReadCVT */
IF[ ]\011/* If */
PUSHW[ ]\011/* 1 value pushed */
4 
MDAP[1]\011/* MoveDirectAbsPt */
ELSE[ ]\011/* Else */
PUSHW[ ]\011/* 2 values pushed */
4 5 
MIAP[0]\011/* MoveIndirectAbsPt */
EIF[ ]\011/* EndIf */
PUSHW[ ]\011/* 1 value pushed */
0 
RCVT[ ]\011/* ReadCVT */
IF[ ]\011/* If */
PUSHW[ ]\011/* 1 value pushed */
7 
MDAP[1]\011/* MoveDirectAbsPt */
ELSE[ ]\011/* Else */
PUSHW[ ]\011/* 2 values pushed */
7 5 
MIAP[0]\011/* MoveIndirectAbsPt */
EIF[ ]\011/* EndIf */
IUP[0]\011/* InterpolateUntPts */
IUP[1]\011/* InterpolateUntPts */";
};
width = 378;
}
);
note = one;
unicode = 0031;
},
{
glyphname = two;
layers = (
{
layerId = "8CCE14AF-3337-4F2C-A14C-E3F14A892F52";
paths = (
{
closed = 1;
nodes = (
"503 534 OFFCURVE",
"450 576 OFFCURVE",
"412 576 QCURVE SMOOTH",
"374 576 OFFCURVE",
"308 543 OFFCURVE",
"254 490 OFFCURVE",
"214 425 OFFCURVE",
"202 392 QCURVE",
"204 386 LINE",
"216 386 LINE",
"220 390 LINE",
"229 414 OFFCURVE",
"262 469 OFFCURVE",
"305 515 OFFCURVE",
"356 545 OFFCURVE",
"385 545 QCURVE SMOOTH",
"407 545 OFFCURVE",
"433 524 OFFCURVE",
"433 501 QCURVE SMOOTH",
"433 472 OFFCURVE",
"398 402 OFFCURVE",
"343 327 OFFCURVE",
"273 251 OFFCURVE",
"204 182 OFFCURVE",
"141 125 OFFCURVE",
"121 107 QCURVE",
"116 109 OFFCURVE",
"104 109 OFFCURVE",
"99 108 QCURVE",
"97 107 OFFCURVE",
"66 75 OFFCURVE",
"31 36 OFFCURVE",
"2 3 OFFCURVE",
"1 0 QCURVE",
"14 -8 LINE",
"84 47 LINE",
"93 43 OFFCURVE",
"136 24 OFFCURVE",
"184 4 OFFCURVE",
"229 -12 OFFCURVE",
"240 -12 QCURVE SMOOTH",
"260 -12 OFFCURVE",
"305 14 OFFCURVE",
"349 52 OFFCURVE",
"386 92 OFFCURVE",
"398 107 QCURVE",
"398 111 LINE",
"391 117 LINE",
"386 115 OFFCURVE",
"365 92 OFFCURVE",
"336 66 OFFCURVE",
"299 44 OFFCURVE",
"278 44 QCURVE SMOOTH",
"269 44 OFFCURVE",
"231 58 OFFCURVE",
"189 77 OFFCURVE",
"151 96 OFFCURVE",
"141 101 QCURVE",
"160 117 OFFCURVE",
"228 172 OFFCURVE",
"309 241 OFFCURVE",
"392 319 OFFCURVE",
"460 396 OFFCURVE",
"503 466 OFFCURVE",
"503 493 QCURVE",
"503 493 LINE"
);
}
);
userData = {
assembly = "PUSHW[ ]\011/* 4 values pushed */
46 3 0 4 
CALL[ ]\011/* CallFunction */
NPUSHW[ ]\011/* 5 values pushed */
10 46 26 46 2 
DELTAP2[ ]\011/* DeltaExceptionP2 */
NPUSHW[ ]\011/* 33 values pushed */
9 46 25 46 41 46 57 46 73 46 89 46 105 46 121 46 137 46 153 46 169 46 185 46 201 46 217 46 233 46 249 46 16 
DELTAP1[ ]\011/* DeltaExceptionP1 */
SVTCA[0]\011/* SetFreedomAndProjectionVectorToAxis */
PUSHW[ ]\011/* 3 values pushed */
12 24 3 
CALL[ ]\011/* CallFunction */
PUSHW[ ]\011/* 4 values pushed */
62 2 49 4 
CALL[ ]\011/* CallFunction */
IUP[0]\011/* InterpolateUntPts */
IUP[1]\011/* InterpolateUntPts */";
};
width = 488;
}
);
note = two;
unicode = 0032;
},
{
glyphname = three;
layers = (
{
layerId = "8CCE14AF-3337-4F2C-A14C-E3F14A892F52";
paths = (
{
closed = 1;
nodes = (
"486 550 OFFCURVE",
"440 578 OFFCURVE",
"410 578 QCURVE SMOOTH",
"382 578 OFFCURVE",
"331 559 OFFCURVE",
"285 528 OFFCURVE",
"245 489 OFFCURVE",
"228 468 QCURVE",
"228 463 LINE",
"235 457 LINE",
"240 457 LINE",
"252 470 OFFCURVE",
"283 502 OFFCURVE",
"319 528 OFFCURVE",
"358 546 OFFCURVE",
"378 546 QCURVE SMOOTH",
"396 546 OFFCURVE",
"417 529 OFFCURVE",
"417 510 QCURVE SMOOTH",
"417 474 OFFCURVE",
"366 410 OFFCURVE",
"293 357 OFFCURVE",
"214 319 OFFCURVE",
"187 308 QCURVE",
"183 303 LINE",
"184 294 LINE",
"191 291 LINE",
"208 296 OFFCURVE",
"244 305 OFFCURVE",
"261 305 QCURVE SMOOTH",
"290 305 OFFCURVE",
"331 274 OFFCURVE",
"331 243 QCURVE SMOOTH",
"331 203 OFFCURVE",
"285 121 OFFCURVE",
"215 54 OFFCURVE",
"131 11 OFFCURVE",
"92 11 QCURVE SMOOTH",
"76 11 OFFCURVE",
"36 19 OFFCURVE",
"22 26 QCURVE",
"17 24 LINE",
"10 18 LINE",
"10 13 LINE",
"30 -1 OFFCURVE",
"80 -11 OFFCURVE",
"103 -11 QCURVE SMOOTH",
"146 -11 OFFCURVE",
"249 31 OFFCURVE",
"339 100 OFFCURVE",
"399 189 OFFCURVE",
"399 235 QCURVE SMOOTH",
"399 262 OFFCURVE",
"373 297 OFFCURVE",
"334 318 OFFCURVE",
"286 327 OFFCURVE",
"264 327 QCURVE",
"293 337 OFFCURVE",
"370 371 OFFCURVE",
"439 418 OFFCURVE",
"486 478 OFFCURVE",
"486 516 QCURVE",
"486 516 LINE"
);
}
);
userData = {
assembly = "PUSHW[ ]\011/* 1 value pushed */
62 
MDAP[1]\011/* MoveDirectAbsPt */
PUSHW[ ]\011/* 1 value pushed */
43 
MDAP[1]\011/* MoveDirectAbsPt */
NPUSHW[ ]\011/* 5 values pushed */
10 43 26 43 2 
DELTAP2[ ]\011/* DeltaExceptionP2 */
NPUSHW[ ]\011/* 33 values pushed */
9 43 25 43 41 43 57 43 73 43 89 43 105 43 121 43 137 43 153 43 169 43 185 43 201 43 217 43 233 43 249 43 16 
DELTAP1[ ]\011/* DeltaExceptionP1 */
PUSHW[ ]\011/* 2 values pushed */
0 3 
MIRP[10100]\011/* MoveIndirectRelPt */
PUSHW[ ]\011/* 1 value pushed */
62 
SRP0[ ]\011/* SetRefPoint0 */
PUSHW[ ]\011/* 1 value pushed */
29 
MDRP[10000]\011/* MoveDirectRelPt */
PUSHW[ ]\011/* 1 value pushed */
29 
MDAP[1]\011/* MoveDirectAbsPt */
PUSHW[ ]\011/* 2 values pushed */
10 3 
MIRP[10100]\011/* MoveIndirectRelPt */
NPUSHW[ ]\011/* 33 values pushed */
6 10 22 10 38 10 54 10 70 10 86 10 102 10 118 10 134 10 150 10 166 10 182 10 198 10 214 10 230 10 246 10 16 
DELTAP1[ ]\011/* DeltaExceptionP1 */
NPUSHW[ ]\011/* 5 values pushed */
5 10 21 10 2 
DELTAP2[ ]\011/* DeltaExceptionP2 */
PUSHW[ ]\011/* 1 value pushed */
43 
SRP0[ ]\011/* SetRefPoint0 */
PUSHW[ ]\011/* 1 value pushed */
59 
MDRP[10000]\011/* MoveDirectRelPt */
PUSHW[ ]\011/* 1 value pushed */
59 
MDAP[1]\011/* MoveDirectAbsPt */
PUSHW[ ]\011/* 1 value pushed */
0 
SRP0[ ]\011/* SetRefPoint0 */
PUSHW[ ]\011/* 1 value pushed */
63 
MDRP[11100]\011/* MoveDirectRelPt */
SVTCA[0]\011/* SetFreedomAndProjectionVectorToAxis */
PUSHW[ ]\011/* 4 values pushed */
24 1 15 4 
CALL[ ]\011/* CallFunction */
PUSHW[ ]\011/* 4 values pushed */
59 2 46 4 
CALL[ ]\011/* CallFunction */
IUP[0]\011/* InterpolateUntPts */
IUP[1]\011/* InterpolateUntPts */";
};
width = 458;
}
);
note = three;
unicode = 0033;
},
{
glyphname = four;
layers = (
{
layerId = "8CCE14AF-3337-4F2C-A14C-E3F14A892F52";
paths = (
{
closed = 1;
nodes = (
"485 562 LINE",
"484 569 LINE",
"477 572 LINE",
"457 568 OFFCURVE",
"429 565 OFFCURVE",
"407 558 OFFCURVE",
"386 542 OFFCURVE",
"374 526 QCURVE SMOOTH",
"342 483 OFFCURVE",
"274 403 OFFCURVE",
"239 363 QCURVE SMOOTH",
"203 322 OFFCURVE",
"116 239 OFFCURVE",
"83 197 QCURVE SMOOTH",
"81 195 OFFCURVE",
"80 192 OFFCURVE",
"79 190 QCURVE",
"79 182 LINE",
"322 188 LINE",
"320 184 OFFCURVE",
"303 154 OFFCURVE",
"281 113 OFFCURVE",
"256 67 OFFCURVE",
"236 27 OFFCURVE",
"222 0 OFFCURVE",
"222 -2 QCURVE SMOOTH",
"222 -6 LINE",
"227 -7 LINE SMOOTH",
"230 -7 OFFCURVE",
"249 -4 OFFCURVE",
"271 1 OFFCURVE",
"289 6 OFFCURVE",
"291 8 QCURVE SMOOTH",
"295 12 OFFCURVE",
"322 64 OFFCURVE",
"353 126 OFFCURVE",
"380 182 OFFCURVE",
"385 191 QCURVE",
"414 192 LINE",
"421 197 LINE",
"426 208 LINE",
"420 212 LINE",
"396 212 LINE",
"399 216 OFFCURVE",
"420 258 OFFCURVE",
"444 304 OFFCURVE",
"463 343 OFFCURVE",
"463 345 QCURVE SMOOTH",
"462 351 LINE",
"456 354 LINE",
"442 353 OFFCURVE",
"406 349 OFFCURVE",
"399 335 QCURVE SMOOTH",
"334 209 LINE",
"117 205 LINE",
"125 212 OFFCURVE",
"186 266 OFFCURVE",
"268 340 OFFCURVE",
"359 424 OFFCURVE",
"436 499 OFFCURVE",
"486 554 OFFCURVE",
"485 562 QCURVE",
"485 562 LINE"
);
}
);
userData = {
assembly = "SVTCA[0]\011/* SetFreedomAndProjectionVectorToAxis */
PUSHW[ ]\011/* 1 value pushed */
0 
RCVT[ ]\011/* ReadCVT */
IF[ ]\011/* If */
PUSHW[ ]\011/* 1 value pushed */
7 
MDAP[1]\011/* MoveDirectAbsPt */
ELSE[ ]\011/* Else */
PUSHW[ ]\011/* 2 values pushed */
7 7 
MIAP[0]\011/* MoveIndirectAbsPt */
EIF[ ]\011/* EndIf */
PUSHW[ ]\011/* 1 value pushed */
0 
RCVT[ ]\011/* ReadCVT */
IF[ ]\011/* If */
PUSHW[ ]\011/* 1 value pushed */
19 
MDAP[1]\011/* MoveDirectAbsPt */
ELSE[ ]\011/* Else */
PUSHW[ ]\011/* 2 values pushed */
19 7 
MIAP[0]\011/* MoveIndirectAbsPt */
EIF[ ]\011/* EndIf */
PUSHW[ ]\011/* 1 value pushed */
0 
RCVT[ ]\011/* ReadCVT */
IF[ ]\011/* If */
PUSHW[ ]\011/* 1 value pushed */
21 
MDAP[1]\011/* MoveDirectAbsPt */
ELSE[ ]\011/* Else */
PUSHW[ ]\011/* 2 values pushed */
21 7 
MIAP[0]\011/* MoveIndirectAbsPt */
EIF[ ]\011/* EndIf */
PUSHW[ ]\011/* 2 values pushed */
23 1 
MIRP[10100]\011/* MoveIndirectRelPt */
PUSHW[ ]\011/* 1 value pushed */
24 
MDRP[10000]\011/* MoveDirectRelPt */
PUSHW[ ]\011/* 1 value pushed */
24 
MDAP[1]\011/* MoveDirectAbsPt */
PUSHW[ ]\011/* 1 value pushed */
43 
MDRP[10000]\011/* MoveDirectRelPt */
PUSHW[ ]\011/* 1 value pushed */
44 
MDRP[10000]\011/* MoveDirectRelPt */
PUSHW[ ]\011/* 1 value pushed */
44 
MDAP[1]\011/* MoveDirectAbsPt */
IUP[0]\011/* InterpolateUntPts */
IUP[1]\011/* InterpolateUntPts */";
};
width = 464;
}
);
note = four;
unicode = 0034;
},
{
glyphname = five;
layers = (
{
layerId = "8CCE14AF-3337-4F2C-A14C-E3F14A892F52";
paths = (
{
closed = 1;
nodes = (
"507 576 LINE",
"503 578 LINE",
"480 561 OFFCURVE",
"420 556 OFFCURVE",
"357 560 OFFCURVE",
"296 563 OFFCURVE",
"273 554 QCURVE",
"270 551 OFFCURVE",
"245 512 OFFCURVE",
"211 454 OFFCURVE",
"172 388 OFFCURVE",
"139 328 OFFCURVE",
"115 283 OFFCURVE",
"113 276 QCURVE",
"113 270 LINE",
"119 268 LINE",
"135 276 OFFCURVE",
"166 295 OFFCURVE",
"199 312 OFFCURVE",
"233 324 OFFCURVE",
"251 324 QCURVE SMOOTH",
"282 324 OFFCURVE",
"316 291 OFFCURVE",
"316 260 QCURVE SMOOTH",
"316 218 OFFCURVE",
"267 128 OFFCURVE",
"192 54 OFFCURVE",
"102 6 OFFCURVE",
"60 6 QCURVE SMOOTH",
"45 6 OFFCURVE",
"12 10 OFFCURVE",
"-2 15 QCURVE",
"-6 13 LINE",
"-12 6 LINE",
"-12 -1 LINE",
"0 -9 OFFCURVE",
"45 -13 OFFCURVE",
"59 -13 QCURVE SMOOTH",
"91 -13 OFFCURVE",
"163 9 OFFCURVE",
"235 47 OFFCURVE",
"302 99 OFFCURVE",
"353 161 OFFCURVE",
"383 229 OFFCURVE",
"383 263 QCURVE SMOOTH",
"383 308 OFFCURVE",
"325 350 OFFCURVE",
"283 350 QCURVE SMOOTH",
"249 350 OFFCURVE",
"177 324 OFFCURVE",
"149 305 QCURVE",
"259 496 LINE",
"290 494 OFFCURVE",
"366 491 OFFCURVE",
"436 504 OFFCURVE",
"493 540 OFFCURVE",
"507 576 QCURVE",
"507 576 LINE"
);
}
);
userData = {
assembly = "PUSHW[ ]\011/* 4 values pushed */
33 3 12 4 
CALL[ ]\011/* CallFunction */
NPUSHW[ ]\011/* 5 values pushed */
10 33 26 33 2 
DELTAP2[ ]\011/* DeltaExceptionP2 */
NPUSHW[ ]\011/* 33 values pushed */
9 33 25 33 41 33 57 33 73 33 89 33 105 33 121 33 137 33 153 33 169 33 185 33 201 33 217 33 233 33 249 33 16 
DELTAP1[ ]\011/* DeltaExceptionP1 */
PUSHW[ ]\011/* 1 value pushed */
12 
SRP0[ ]\011/* SetRefPoint0 */
PUSHW[ ]\011/* 1 value pushed */
58 
MDRP[11100]\011/* MoveDirectRelPt */
SVTCA[0]\011/* SetFreedomAndProjectionVectorToAxis */
PUSHW[ ]\011/* 4 values pushed */
28 1 19 4 
CALL[ ]\011/* CallFunction */
PUSHW[ ]\011/* 3 values pushed */
50 5 3 
CALL[ ]\011/* CallFunction */
PUSHW[ ]\011/* 4 values pushed */
9 2 36 4 
CALL[ ]\011/* CallFunction */
IUP[0]\011/* InterpolateUntPts */
IUP[1]\011/* InterpolateUntPts */";
};
width = 445;
}
);
note = five;
unicode = 0035;
},
{
glyphname = six;
layers = (
{
layerId = "8CCE14AF-3337-4F2C-A14C-E3F14A892F52";
paths = (
{
closed = 1;
nodes = (
"433 577 LINE",
"426 588 LINE",
"420 587 LINE",
"385 563 OFFCURVE",
"301 497 OFFCURVE",
"216 418 OFFCURVE",
"136 329 OFFCURVE",
"74 236 OFFCURVE",
"37 141 OFFCURVE",
"37 96 QCURVE SMOOTH",
"37 45 OFFCURVE",
"95 -11 OFFCURVE",
"145 -11 QCURVE SMOOTH",
"188 -11 OFFCURVE",
"279 41 OFFCURVE",
"353 121 OFFCURVE",
"400 216 OFFCURVE",
"400 258 QCURVE SMOOTH",
"400 291 OFFCURVE",
"364 337 OFFCURVE",
"329 337 QCURVE SMOOTH",
"296 337 OFFCURVE",
"235 300 OFFCURVE",
"186 243 OFFCURVE",
"151 176 OFFCURVE",
"144 147 QCURVE",
"146 141 LINE",
"156 142 LINE",
"160 147 LINE",
"168 168 OFFCURVE",
"196 222 OFFCURVE",
"234 272 OFFCURVE",
"280 306 OFFCURVE",
"305 306 QCURVE SMOOTH",
"324 306 OFFCURVE",
"339 283 OFFCURVE",
"339 266 QCURVE SMOOTH",
"339 234 OFFCURVE",
"307 147 OFFCURVE",
"254 68 OFFCURVE",
"186 12 OFFCURVE",
"151 12 QCURVE SMOOTH",
"124 12 OFFCURVE",
"96 48 OFFCURVE",
"96 74 QCURVE SMOOTH",
"96 109 OFFCURVE",
"123 190 OFFCURVE",
"163 270 OFFCURVE",
"210 343 OFFCURVE",
"231 370 QCURVE SMOOTH",
"289 446 OFFCURVE",
"360 511 QCURVE SMOOTH",
"376 525 OFFCURVE",
"414 554 OFFCURVE",
"428 569 QCURVE SMOOTH",
"430 571 OFFCURVE",
"431 575 OFFCURVE",
"433 577 QCURVE",
"433 577 LINE"
);
}
);
userData = {
assembly = "PUSHW[ ]\011/* 1 value pushed */
58 
MDAP[1]\011/* MoveDirectAbsPt */
PUSHW[ ]\011/* 1 value pushed */
21 
MDAP[1]\011/* MoveDirectAbsPt */
PUSHW[ ]\011/* 1 value pushed */
58 
SRP0[ ]\011/* SetRefPoint0 */
PUSHW[ ]\011/* 1 value pushed */
48 
MDRP[10000]\011/* MoveDirectRelPt */
PUSHW[ ]\011/* 1 value pushed */
48 
MDAP[1]\011/* MoveDirectAbsPt */
PUSHW[ ]\011/* 2 values pushed */
13 3 
MIRP[10100]\011/* MoveIndirectRelPt */
NPUSHW[ ]\011/* 33 values pushed */
6 13 22 13 38 13 54 13 70 13 86 13 102 13 118 13 134 13 150 13 166 13 182 13 198 13 214 13 230 13 246 13 16 
DELTAP1[ ]\011/* DeltaExceptionP1 */
NPUSHW[ ]\011/* 5 values pushed */
5 13 21 13 2 
DELTAP2[ ]\011/* DeltaExceptionP2 */
NPUSHW[ ]\011/* 5 values pushed */
10 21 26 21 2 
DELTAP2[ ]\011/* DeltaExceptionP2 */
NPUSHW[ ]\011/* 33 values pushed */
9 21 25 21 41 21 57 21 73 21 89 21 105 21 121 21 137 21 153 21 169 21 185 21 201 21 217 21 233 21 249 21 16 
DELTAP1[ ]\011/* DeltaExceptionP1 */
PUSHW[ ]\011/* 1 value pushed */
21 
SRP0[ ]\011/* SetRefPoint0 */
PUSHW[ ]\011/* 2 values pushed */
40 3 
MIRP[10100]\011/* MoveIndirectRelPt */
PUSHW[ ]\011/* 1 value pushed */
59 
MDRP[11100]\011/* MoveDirectRelPt */
SVTCA[0]\011/* SetFreedomAndProjectionVectorToAxis */
PUSHW[ ]\011/* 4 values pushed */
16 2 45 4 
CALL[ ]\011/* CallFunction */
PUSHW[ ]\011/* 4 values pushed */
37 2 24 4 
CALL[ ]\011/* CallFunction */
IUP[0]\011/* InterpolateUntPts */
IUP[1]\011/* InterpolateUntPts */";
};
width = 421;
}
);
note = six;
unicode = 0036;
},
{
glyphname = seven;
layers = (
{
layerId = "8CCE14AF-3337-4F2C-A14C-E3F14A892F52";
paths = (
{
closed = 1;
nodes = (
"578 562 LINE",
"574 568 LINE",
"570 568 OFFCURVE",
"557 560 OFFCURVE",
"554 558 QCURVE",
"519 563 OFFCURVE",
"447 565 OFFCURVE",
"412 565 QCURVE SMOOTH",
"367 565 OFFCURVE",
"311 554 OFFCURVE",
"270 525 OFFCURVE",
"238 475 OFFCURVE",
"218 435 QCURVE",
"218 429 LINE",
"221 427 LINE",
"232 428 OFFCURVE",
"247 450 OFFCURVE",
"270 477 OFFCURVE",
"307 499 OFFCURVE",
"340 499 QCURVE SMOOTH",
"380 499 OFFCURVE",
"459 496 OFFCURVE",
"499 495 QCURVE",
"490 486 OFFCURVE",
"439 438 OFFCURVE",
"368 370 OFFCURVE",
"283 288 OFFCURVE",
"197 204 OFFCURVE",
"116 122 OFFCURVE",
"52 56 OFFCURVE",
"12 9 OFFCURVE",
"10 2 QCURVE",
"11 -2 LINE",
"17 -5 LINE",
"32 -3 OFFCURVE",
"76 -1 OFFCURVE",
"89 5 QCURVE SMOOTH",
"91 6 OFFCURVE",
"111 29 OFFCURVE",
"133 57 OFFCURVE",
"153 83 OFFCURVE",
"156 86 QCURVE SMOOTH",
"210 154 OFFCURVE",
"320 284 OFFCURVE",
"380 347 QCURVE SMOOTH",
"430 399 OFFCURVE",
"529 501 OFFCURVE",
"576 555 QCURVE",
"576 555 LINE"
);
}
);
userData = {
assembly = "SVTCA[0]\011/* SetFreedomAndProjectionVectorToAxis */
PUSHW[ ]\011/* 1 value pushed */
0 
RCVT[ ]\011/* ReadCVT */
IF[ ]\011/* If */
PUSHW[ ]\011/* 1 value pushed */
14 
MDAP[1]\011/* MoveDirectAbsPt */
ELSE[ ]\011/* Else */
PUSHW[ ]\011/* 2 values pushed */
14 5 
MIAP[0]\011/* MoveIndirectAbsPt */
EIF[ ]\011/* EndIf */
PUSHW[ ]\011/* 1 value pushed */
0 
RCVT[ ]\011/* ReadCVT */
IF[ ]\011/* If */
PUSHW[ ]\011/* 1 value pushed */
16 
MDAP[1]\011/* MoveDirectAbsPt */
ELSE[ ]\011/* Else */
PUSHW[ ]\011/* 2 values pushed */
16 5 
MIAP[0]\011/* MoveIndirectAbsPt */
EIF[ ]\011/* EndIf */
PUSHW[ ]\011/* 3 values pushed */
40 28 3 
CALL[ ]\011/* CallFunction */
PUSHW[ ]\011/* 1 value pushed */
28 
SRP0[ ]\011/* SetRefPoint0 */
PUSHW[ ]\011/* 1 value pushed */
25 
MDRP[10000]\011/* MoveDirectRelPt */
PUSHW[ ]\011/* 1 value pushed */
25 
MDAP[1]\011/* MoveDirectAbsPt */
PUSHW[ ]\011/* 1 value pushed */
40 
SRP0[ ]\011/* SetRefPoint0 */
PUSHW[ ]\011/* 1 value pushed */
43 
MDRP[10000]\011/* MoveDirectRelPt */
PUSHW[ ]\011/* 1 value pushed */
43 
MDAP[1]\011/* MoveDirectAbsPt */
PUSHW[ ]\011/* 1 value pushed */
40 
SRP0[ ]\011/* SetRefPoint0 */
PUSHW[ ]\011/* 1 value pushed */
46 
MDRP[10000]\011/* MoveDirectRelPt */
PUSHW[ ]\011/* 1 value pushed */
46 
MDAP[1]\011/* MoveDirectAbsPt */
IUP[0]\011/* InterpolateUntPts */
IUP[1]\011/* InterpolateUntPts */";
};
width = 488;
}
);
note = seven;
unicode = 0037;
},
{
glyphname = eight;
layers = (
{
layerId = "8CCE14AF-3337-4F2C-A14C-E3F14A892F52";
paths = (
{
closed = 1;
nodes = (
"461 541 OFFCURVE",
"407 577 OFFCURVE",
"369 577 QCURVE SMOOTH",
"337 577 OFFCURVE",
"276 551 OFFCURVE",
"229 506 OFFCURVE",
"201 447 OFFCURVE",
"201 414 QCURVE SMOOTH",
"201 373 OFFCURVE",
"218 334 QCURVE",
"192 314 OFFCURVE",
"121 259 OFFCURVE",
"58 193 OFFCURVE",
"14 121 OFFCURVE",
"14 86 QCURVE SMOOTH",
"14 62 OFFCURVE",
"33 26 OFFCURVE",
"65 1 OFFCURVE",
"106 -11 OFFCURVE",
"128 -11 QCURVE SMOOTH",
"164 -11 OFFCURVE",
"236 18 OFFCURVE",
"293 68 OFFCURVE",
"329 134 OFFCURVE",
"329 172 QCURVE SMOOTH",
"329 205 OFFCURVE",
"324 254 OFFCURVE",
"310 284 QCURVE",
"332 303 OFFCURVE",
"384 352 OFFCURVE",
"430 408 OFFCURVE",
"461 469 OFFCURVE",
"461 500 QCURVE",
"461 500 LINE"
);
},
{
closed = 1;
nodes = (
"425 473 OFFCURVE",
"402 417 OFFCURVE",
"366 366 OFFCURVE",
"323 321 OFFCURVE",
"303 305 QCURVE",
"297 320 OFFCURVE",
"284 356 OFFCURVE",
"273 393 OFFCURVE",
"266 430 OFFCURVE",
"266 447 QCURVE SMOOTH",
"266 468 OFFCURVE",
"282 507 OFFCURVE",
"311 538 OFFCURVE",
"349 557 OFFCURVE",
"370 557 QCURVE SMOOTH",
"396 557 OFFCURVE",
"425 527 OFFCURVE",
"425 501 QCURVE",
"425 501 LINE"
);
},
{
closed = 1;
nodes = (
"265 130 OFFCURVE",
"244 77 OFFCURVE",
"207 36 OFFCURVE",
"158 10 OFFCURVE",
"130 10 QCURVE SMOOTH",
"95 10 OFFCURVE",
"60 50 OFFCURVE",
"60 83 QCURVE SMOOTH",
"60 119 OFFCURVE",
"91 186 OFFCURVE",
"139 245 OFFCURVE",
"197 295 OFFCURVE",
"223 315 QCURVE",
"237 280 OFFCURVE",
"265 194 OFFCURVE",
"265 157 QCURVE",
"265 157 LINE"
);
}
);
userData = {
assembly = "PUSHW[ ]\011/* 4 values pushed */
51 3 8 4 
CALL[ ]\011/* CallFunction */
PUSHW[ ]\011/* 4 values pushed */
33 3 0 4 
CALL[ ]\011/* CallFunction */
PUSHW[ ]\011/* 4 values pushed */
59 3 18 4 
CALL[ ]\011/* CallFunction */
NPUSHW[ ]\011/* 5 values pushed */
10 33 26 33 2 
DELTAP2[ ]\011/* DeltaExceptionP2 */
NPUSHW[ ]\011/* 33 values pushed */
9 33 25 33 41 33 57 33 73 33 89 33 105 33 121 33 137 33 153 33 169 33 185 33 201 33 217 33 233 33 249 33 16 
DELTAP1[ ]\011/* DeltaExceptionP1 */
NPUSHW[ ]\011/* 5 values pushed */
10 51 26 51 2 
DELTAP2[ ]\011/* DeltaExceptionP2 */
NPUSHW[ ]\011/* 33 values pushed */
9 51 25 51 41 51 57 51 73 51 89 51 105 51 121 51 137 51 153 51 169 51 185 51 201 51 217 51 233 51 249 51 16 
DELTAP1[ ]\011/* DeltaExceptionP1 */
PUSHW[ ]\011/* 1 value pushed */
51 
SRP0[ ]\011/* SetRefPoint0 */
PUSHW[ ]\011/* 1 value pushed */
41 
MDRP[10000]\011/* MoveDirectRelPt */
PUSHW[ ]\011/* 1 value pushed */
41 
MDAP[1]\011/* MoveDirectAbsPt */
PUSHW[ ]\011/* 3 values pushed */
46 8 51 
SRP1[ ]\011/* SetRefPoint1 */
SRP2[ ]\011/* SetRefPoint2 */
IP[ ]\011/* InterpolatePts */
PUSHW[ ]\011/* 3 values pushed */
54 18 0 
SRP1[ ]\011/* SetRefPoint1 */
SRP2[ ]\011/* SetRefPoint2 */
IP[ ]\011/* InterpolatePts */
NPUSHW[ ]\011/* 33 values pushed */
6 59 22 59 38 59 54 59 70 59 86 59 102 59 118 59 134 59 150 59 166 59 182 59 198 59 214 59 230 59 246 59 16 
DELTAP1[ ]\011/* DeltaExceptionP1 */
NPUSHW[ ]\011/* 5 values pushed */
5 59 21 59 2 
DELTAP2[ ]\011/* DeltaExceptionP2 */
SVTCA[0]\011/* SetFreedomAndProjectionVectorToAxis */
PUSHW[ ]\011/* 1 value pushed */
30 
MDAP[1]\011/* MoveDirectAbsPt */
PUSHW[ ]\011/* 4 values pushed */
62 1 13 4 
CALL[ ]\011/* CallFunction */
IUP[0]\011/* InterpolateUntPts */
IUP[1]\011/* InterpolateUntPts */";
};
width = 420;
}
);
note = eight;
unicode = 0038;
},
{
glyphname = nine;
layers = (
{
layerId = "8CCE14AF-3337-4F2C-A14C-E3F14A892F52";
paths = (
{
closed = 1;
nodes = (
"438 479 OFFCURVE",
"427 522 OFFCURVE",
"403 556 OFFCURVE",
"366 577 OFFCURVE",
"340 577 QCURVE SMOOTH",
"297 577 OFFCURVE",
"203 518 OFFCURVE",
"125 430 OFFCURVE",
"74 328 OFFCURVE",
"74 286 QCURVE SMOOTH",
"74 253 OFFCURVE",
"110 208 OFFCURVE",
"145 208 QCURVE SMOOTH",
"178 208 OFFCURVE",
"237 248 OFFCURVE",
"287 308 OFFCURVE",
"323 375 OFFCURVE",
"334 402 QCURVE",
"333 407 LINE",
"322 408 LINE",
"318 405 LINE",
"309 384 OFFCURVE",
"284 336 OFFCURVE",
"250 294 OFFCURVE",
"207 266 OFFCURVE",
"181 266 QCURVE SMOOTH",
"155 266 OFFCURVE",
"131 298 OFFCURVE",
"131 322 QCURVE SMOOTH",
"131 355 OFFCURVE",
"164 436 OFFCURVE",
"218 508 OFFCURVE",
"287 556 OFFCURVE",
"323 556 QCURVE SMOOTH",
"355 556 OFFCURVE",
"378 515 OFFCURVE",
"378 487 QCURVE SMOOTH",
"378 469 OFFCURVE",
"373 432 OFFCURVE",
"368 415 QCURVE SMOOTH",
"333 279 OFFCURVE",
"174 72 OFFCURVE",
"62 -7 QCURVE",
"58 -13 LINE",
"63 -22 LINE",
"69 -22 LINE",
"123 13 OFFCURVE",
"251 119 OFFCURVE",
"363 246 OFFCURVE",
"438 386 OFFCURVE",
"438 456 QCURVE",
"438 456 LINE"
);
}
);
userData = {
assembly = "PUSHW[ ]\011/* 1 value pushed */
51 
MDAP[1]\011/* MoveDirectAbsPt */
PUSHW[ ]\011/* 1 value pushed */
14 
MDAP[1]\011/* MoveDirectAbsPt */
NPUSHW[ ]\011/* 5 values pushed */
10 14 26 14 2 
DELTAP2[ ]\011/* DeltaExceptionP2 */
NPUSHW[ ]\011/* 33 values pushed */
9 14 25 14 41 14 57 14 73 14 89 14 105 14 121 14 137 14 153 14 169 14 185 14 201 14 217 14 233 14 249 14 16 
DELTAP1[ ]\011/* DeltaExceptionP1 */
PUSHW[ ]\011/* 2 values pushed */
0 3 
MIRP[10100]\011/* MoveIndirectRelPt */
PUSHW[ ]\011/* 1 value pushed */
51 
SRP0[ ]\011/* SetRefPoint0 */
PUSHW[ ]\011/* 1 value pushed */
41 
MDRP[10000]\011/* MoveDirectRelPt */
PUSHW[ ]\011/* 1 value pushed */
41 
MDAP[1]\011/* MoveDirectAbsPt */
PUSHW[ ]\011/* 1 value pushed */
5 
MDRP[10000]\011/* MoveDirectRelPt */
PUSHW[ ]\011/* 1 value pushed */
5 
MDAP[1]\011/* MoveDirectAbsPt */
PUSHW[ ]\011/* 1 value pushed */
41 
SRP0[ ]\011/* SetRefPoint0 */
PUSHW[ ]\011/* 2 values pushed */
22 3 
MIRP[10100]\011/* MoveIndirectRelPt */
NPUSHW[ ]\011/* 33 values pushed */
6 22 22 22 38 22 54 22 70 22 86 22 102 22 118 22 134 22 150 22 166 22 182 22 198 22 214 22 230 22 246 22 16 
DELTAP1[ ]\011/* DeltaExceptionP1 */
NPUSHW[ ]\011/* 5 values pushed */
5 22 21 22 2 
DELTAP2[ ]\011/* DeltaExceptionP2 */
PUSHW[ ]\011/* 1 value pushed */
0 
SRP0[ ]\011/* SetRefPoint0 */
PUSHW[ ]\011/* 1 value pushed */
52 
MDRP[11100]\011/* MoveDirectRelPt */
SVTCA[0]\011/* SetFreedomAndProjectionVectorToAxis */
PUSHW[ ]\011/* 1 value pushed */
17 
MDAP[1]\011/* MoveDirectAbsPt */
PUSHW[ ]\011/* 3 values pushed */
25 38 3 
CALL[ ]\011/* CallFunction */
IUP[0]\011/* InterpolateUntPts */
IUP[1]\011/* InterpolateUntPts */";
};
width = 435;
}
);
note = nine;
unicode = 0039;
},
{
glyphname = colon;
layers = (
{
layerId = "8CCE14AF-3337-4F2C-A14C-E3F14A892F52";
paths = (
{
closed = 1;
nodes = (
"257 268 OFFCURVE",
"237 292 OFFCURVE",
"220 292 QCURVE SMOOTH",
"203 292 OFFCURVE",
"174 268 OFFCURVE",
"172 251 QCURVE SMOOTH",
"169 234 OFFCURVE",
"189 210 OFFCURVE",
"206 210 QCURVE SMOOTH",
"223 210 OFFCURVE",
"251 234 OFFCURVE",
"254 251 QCURVE",
"254 251 LINE"
);
},
{
closed = 1;
nodes = (
"147 44 OFFCURVE",
"127 68 OFFCURVE",
"110 68 QCURVE SMOOTH",
"93 68 OFFCURVE",
"65 44 OFFCURVE",
"62 27 QCURVE SMOOTH",
"59 10 OFFCURVE",
"79 -14 OFFCURVE",
"96 -14 QCURVE SMOOTH",
"113 -14 OFFCURVE",
"142 10 OFFCURVE",
"144 27 QCURVE",
"144 27 LINE"
);
}
);
userData = {
assembly = "SVTCA[0]\011/* SetFreedomAndProjectionVectorToAxis */
PUSHW[ ]\011/* 3 values pushed */
21 15 3 
CALL[ ]\011/* CallFunction */
PUSHW[ ]\011/* 3 values pushed */
9 3 3 
CALL[ ]\011/* CallFunction */
IUP[0]\011/* InterpolateUntPts */
IUP[1]\011/* InterpolateUntPts */";
};
width = 256;
}
);
note = colon;
unicode = 003A;
},
{
glyphname = semicolon;
layers = (
{
layerId = "8CCE14AF-3337-4F2C-A14C-E3F14A892F52";
paths = (
{
closed = 1;
nodes = (
"257 268 OFFCURVE",
"237 292 OFFCURVE",
"220 292 QCURVE SMOOTH",
"203 292 OFFCURVE",
"174 268 OFFCURVE",
"172 251 QCURVE SMOOTH",
"169 234 OFFCURVE",
"189 210 OFFCURVE",
"206 210 QCURVE SMOOTH",
"223 210 OFFCURVE",
"251 234 OFFCURVE",
"254 251 QCURVE",
"254 251 LINE"
);
},
{
closed = 1;
nodes = (
"151 34 OFFCURVE",
"132 68 OFFCURVE",
"110 68 QCURVE SMOOTH",
"93 68 OFFCURVE",
"65 44 OFFCURVE",
"62 27 QCURVE SMOOTH",
"59 10 OFFCURVE",
"79 -14 OFFCURVE",
"96 -14 QCURVE SMOOTH",
"110 -14 OFFCURVE",
"125 -4 QCURVE",
"120 -38 OFFCURVE",
"76 -82 OFFCURVE",
"48 -91 QCURVE SMOOTH",
"39 -94 OFFCURVE",
"41 -106 OFFCURVE",
"51 -102 QCURVE SMOOTH",
"67 -97 OFFCURVE",
"102 -78 OFFCURVE",
"132 -49 OFFCURVE",
"151 -11 OFFCURVE",
"151 14 QCURVE",
"151 14 LINE"
);
}
);
userData = {
assembly = "PUSHW[ ]\011/* 4 values pushed */
12 4 23 4 
CALL[ ]\011/* CallFunction */
NPUSHW[ ]\011/* 33 values pushed */
6 12 22 12 38 12 54 12 70 12 86 12 102 12 118 12 134 12 150 12 166 12 182 12 198 12 214 12 230 12 246 12 16 
DELTAP1[ ]\011/* DeltaExceptionP1 */
NPUSHW[ ]\011/* 33 values pushed */
6 12 22 12 38 12 54 12 70 12 86 12 102 12 118 12 134 12 150 12 166 12 182 12 198 12 214 12 230 12 246 12 16 
DELTAP2[ ]\011/* DeltaExceptionP2 */
NPUSHW[ ]\011/* 33 values pushed */
6 12 22 12 38 12 54 12 70 12 86 12 102 12 118 12 134 12 150 12 166 12 182 12 198 12 214 12 230 12 246 12 16 
DELTAP3[ ]\011/* DeltaExceptionP3 */
SVTCA[0]\011/* SetFreedomAndProjectionVectorToAxis */
PUSHW[ ]\011/* 3 values pushed */
9 3 3 
CALL[ ]\011/* CallFunction */
PUSHW[ ]\011/* 3 values pushed */
31 25 3 
CALL[ ]\011/* CallFunction */
PUSHW[ ]\011/* 3 values pushed */
23 25 31 
SRP1[ ]\011/* SetRefPoint1 */
SRP2[ ]\011/* SetRefPoint2 */
IP[ ]\011/* InterpolatePts */
IUP[0]\011/* InterpolateUntPts */
IUP[1]\011/* InterpolateUntPts */";
};
width = 255;
}
);
note = semicolon;
unicode = 003B;
},
{
glyphname = less;
layers = (
{
layerId = "8CCE14AF-3337-4F2C-A14C-E3F14A892F52";
paths = (
{
closed = 1;
nodes = (
"333 297 LINE",
"332 304 LINE",
"325 307 LINE",
"322 307 OFFCURVE",
"292 290 OFFCURVE",
"248 264 OFFCURVE",
"197 232 OFFCURVE",
"152 204 OFFCURVE",
"117 182 OFFCURVE",
"112 179 QCURVE",
"121 141 OFFCURVE",
"136 59 OFFCURVE",
"150 24 QCURVE",
"153 21 OFFCURVE",
"158 21 QCURVE",
"165 24 LINE",
"170 34 LINE",
"171 170 LINE",
"181 178 OFFCURVE",
"230 211 OFFCURVE",
"282 249 OFFCURVE",
"326 286 OFFCURVE",
"333 297 QCURVE",
"333 297 LINE"
);
}
);
userData = {
assembly = "SVTCA[0]\011/* SetFreedomAndProjectionVectorToAxis */
PUSHW[ ]\011/* 1 value pushed */
8 
MDAP[1]\011/* MoveDirectAbsPt */
PUSHW[ ]\011/* 1 value pushed */
10 
MDAP[1]\011/* MoveDirectAbsPt */
PUSHW[ ]\011/* 1 value pushed */
20 
MDAP[1]\011/* MoveDirectAbsPt */
IUP[0]\011/* InterpolateUntPts */
IUP[1]\011/* InterpolateUntPts */";
};
width = 329;
}
);
note = less;
unicode = 003C;
},
{
glyphname = equal;
layers = (
{
layerId = "8CCE14AF-3337-4F2C-A14C-E3F14A892F52";
paths = (
{
closed = 1;
nodes = (
"409 330 OFFCURVE",
"382 338 OFFCURVE",
"348 342 OFFCURVE",
"316 342 OFFCURVE",
"311 342 QCURVE SMOOTH",
"164 342 LINE SMOOTH",
"156 342 OFFCURVE",
"147 331 OFFCURVE",
"147 323 QCURVE SMOOTH",
"147 316 OFFCURVE",
"155 294 OFFCURVE",
"164 294 QCURVE SMOOTH",
"184 294 OFFCURVE",
"221 301 OFFCURVE",
"241 303 QCURVE SMOOTH",
"279 307 OFFCURVE",
"354 311 OFFCURVE",
"392 311 QCURVE SMOOTH",
"397 311 OFFCURVE",
"409 315 OFFCURVE",
"409 322 QCURVE",
"409 322 LINE"
);
},
{
closed = 1;
nodes = (
"409 230 OFFCURVE",
"382 238 OFFCURVE",
"348 242 OFFCURVE",
"316 242 OFFCURVE",
"311 242 QCURVE SMOOTH",
"164 242 LINE SMOOTH",
"156 242 OFFCURVE",
"147 231 OFFCURVE",
"147 223 QCURVE SMOOTH",
"147 216 OFFCURVE",
"155 194 OFFCURVE",
"164 194 QCURVE SMOOTH",
"184 194 OFFCURVE",
"221 201 OFFCURVE",
"241 203 QCURVE SMOOTH",
"279 207 OFFCURVE",
"354 211 OFFCURVE",
"392 211 QCURVE SMOOTH",
"397 211 OFFCURVE",
"409 215 OFFCURVE",
"409 222 QCURVE",
"409 222 LINE"
);
}
);
userData = {
assembly = "PUSHW[ ]\011/* 3 values pushed */
12 0 3 
CALL[ ]\011/* CallFunction */
NPUSHW[ ]\011/* 27 values pushed */
6 0 22 0 38 0 54 0 70 0 86 0 102 0 118 0 134 0 150 0 166 0 182 0 198 0 13 
DELTAP1[ ]\011/* DeltaExceptionP1 */
NPUSHW[ ]\011/* 5 values pushed */
213 0 229 0 2 
DELTAP1[ ]\011/* DeltaExceptionP1 */
PUSHW[ ]\011/* 1 value pushed */
0 
SRP0[ ]\011/* SetRefPoint0 */
PUSHW[ ]\011/* 1 value pushed */
21 
MDRP[10000]\011/* MoveDirectRelPt */
PUSHW[ ]\011/* 1 value pushed */
12 
SRP0[ ]\011/* SetRefPoint0 */
PUSHW[ ]\011/* 1 value pushed */
33 
MDRP[10000]\011/* MoveDirectRelPt */
SVTCA[0]\011/* SetFreedomAndProjectionVectorToAxis */
PUSHW[ ]\011/* 4 values pushed */
36 2 30 4 
CALL[ ]\011/* CallFunction */
PUSHW[ ]\011/* 4 values pushed */
15 2 9 4 
CALL[ ]\011/* CallFunction */
IUP[0]\011/* InterpolateUntPts */
IUP[1]\011/* InterpolateUntPts */";
};
width = 458;
}
);
note = equal;
unicode = 003D;
},
{
glyphname = greater;
layers = (
{
layerId = "8CCE14AF-3337-4F2C-A14C-E3F14A892F52";
paths = (
{
closed = 1;
nodes = (
"248 150 LINE",
"240 187 OFFCURVE",
"226 268 OFFCURVE",
"212 303 QCURVE",
"203 307 LINE",
"195 303 LINE",
"193 301 OFFCURVE",
"192 296 OFFCURVE",
"190 294 QCURVE",
"189 158 LINE",
"188 157 OFFCURVE",
"163 140 OFFCURVE",
"127 115 OFFCURVE",
"86 84 OFFCURVE",
"50 55 OFFCURVE",
"27 32 OFFCURVE",
"27 27 QCURVE",
"28 23 LINE",
"32 21 OFFCURVE",
"36 21 QCURVE SMOOTH",
"43 22 LINE",
"43 22 LINE"
);
}
);
userData = {
assembly = "SVTCA[0]\011/* SetFreedomAndProjectionVectorToAxis */
PUSHW[ ]\011/* 1 value pushed */
1 
MDAP[1]\011/* MoveDirectAbsPt */
PUSHW[ ]\011/* 1 value pushed */
3 
MDAP[1]\011/* MoveDirectAbsPt */
PUSHW[ ]\011/* 1 value pushed */
16 
MDAP[1]\011/* MoveDirectAbsPt */
IUP[0]\011/* InterpolateUntPts */
IUP[1]\011/* InterpolateUntPts */";
};
width = 329;
}
);
note = greater;
unicode = 003E;
},
{
glyphname = question;
layers = (
{
layerId = "8CCE14AF-3337-4F2C-A14C-E3F14A892F52";
paths = (
{
closed = 1;
nodes = (
"463 488 OFFCURVE",
"492 558 OFFCURVE",
"485 610 OFFCURVE",
"447 642 OFFCURVE",
"391 651 OFFCURVE",
"322 637 OFFCURVE",
"287 617 QCURVE SMOOTH",
"267 605 OFFCURVE",
"224 573 OFFCURVE",
"214 551 QCURVE SMOOTH",
"203 525 OFFCURVE",
"212 485 OFFCURVE",
"240 464 OFFCURVE",
"280 466 OFFCURVE",
"300 481 QCURVE SMOOTH",
"317 494 OFFCURVE",
"326 530 OFFCURVE",
"313 556 OFFCURVE",
"282 566 OFFCURVE",
"260 554 QCURVE SMOOTH",
"248 547 OFFCURVE",
"228 530 OFFCURVE",
"225 518 QCURVE",
"222 536 OFFCURVE",
"258 576 OFFCURVE",
"281 587 QCURVE SMOOTH",
"317 605 OFFCURVE",
"383 603 OFFCURVE",
"419 571 OFFCURVE",
"415 511 OFFCURVE",
"382 469 QCURVE SMOOTH",
"354 434 OFFCURVE",
"291 359 OFFCURVE",
"234 282 OFFCURVE",
"190 204 OFFCURVE",
"181 167 QCURVE SMOOTH",
"179 157 OFFCURVE",
"196 151 OFFCURVE",
"200 160 QCURVE SMOOTH",
"219 211 OFFCURVE",
"270 284 OFFCURVE",
"328 347 OFFCURVE",
"392 407 OFFCURVE",
"424 444 QCURVE",
"424 444 LINE"
);
},
{
closed = 1;
nodes = (
"205 44 OFFCURVE",
"185 68 OFFCURVE",
"168 68 QCURVE SMOOTH",
"151 68 OFFCURVE",
"122 44 OFFCURVE",
"120 27 QCURVE SMOOTH",
"117 10 OFFCURVE",
"137 -14 OFFCURVE",
"154 -14 QCURVE SMOOTH",
"171 -14 OFFCURVE",
"199 10 OFFCURVE",
"202 27 QCURVE",
"202 27 LINE"
);
}
);
userData = {
assembly = "SVTCA[0]\011/* SetFreedomAndProjectionVectorToAxis */
PUSHW[ ]\011/* 3 values pushed */
53 47 3 
CALL[ ]\011/* CallFunction */
IUP[0]\011/* InterpolateUntPts */
IUP[1]\011/* InterpolateUntPts */";
};
width = 382;
}
);
note = question;
unicode = 003F;
},
{
glyphname = at;
layers = (
{
layerId = "8CCE14AF-3337-4F2C-A14C-E3F14A892F52";
paths = (
{
closed = 1;
nodes = (
"937 506 OFFCURVE",
"876 596 OFFCURVE",
"783 653 OFFCURVE",
"670 679 OFFCURVE",
"613 679 QCURVE SMOOTH",
"543 679 OFFCURVE",
"407 640 OFFCURVE",
"284 569 OFFCURVE",
"180 470 OFFCURVE",
"107 351 OFFCURVE",
"70 215 OFFCURVE",
"76 143 QCURVE SMOOTH",
"82 65 OFFCURVE",
"149 -45 OFFCURVE",
"252 -115 OFFCURVE",
"382 -148 OFFCURVE",
"451 -148 QCURVE SMOOTH",
"542 -148 OFFCURVE",
"706 -91 OFFCURVE",
"778 -43 QCURVE",
"784 -40 OFFCURVE",
"785 -31 OFFCURVE",
"781 -24 OFFCURVE",
"771 -23 OFFCURVE",
"767 -27 QCURVE",
"700 -72 OFFCURVE",
"543 -126 OFFCURVE",
"458 -126 QCURVE SMOOTH",
"398 -126 OFFCURVE",
"283 -96 OFFCURVE",
"191 -33 OFFCURVE",
"130 64 OFFCURVE",
"125 131 QCURVE SMOOTH",
"119 199 OFFCURVE",
"150 331 OFFCURVE",
"214 448 OFFCURVE",
"306 547 OFFCURVE",
"419 618 OFFCURVE",
"547 658 OFFCURVE",
"615 658 QCURVE SMOOTH",
"667 658 OFFCURVE",
"767 635 OFFCURVE",
"846 583 OFFCURVE",
"897 500 OFFCURVE",
"902 440 QCURVE SMOOTH",
"905 395 OFFCURVE",
"888 304 OFFCURVE",
"851 219 OFFCURVE",
"797 145 OFFCURVE",
"764 118 QCURVE SMOOTH",
"749 106 OFFCURVE",
"709 84 OFFCURVE",
"665 69 OFFCURVE",
"625 65 OFFCURVE",
"595 79 OFFCURVE",
"582 114 OFFCURVE",
"589 146 QCURVE SMOOTH",
"595 174 OFFCURVE",
"625 248 OFFCURVE",
"661 317 OFFCURVE",
"696 371 OFFCURVE",
"706 381 QCURVE",
"692 379 OFFCURVE",
"665 386 OFFCURVE",
"653 387 QCURVE SMOOTH",
"623 389 OFFCURVE",
"588 346 OFFCURVE",
"567 305 QCURVE SMOOTH",
"543 259 OFFCURVE",
"489 169 OFFCURVE",
"455 129 QCURVE SMOOTH",
"433 103 OFFCURVE",
"387 74 OFFCURVE",
"353 74 OFFCURVE",
"334 104 OFFCURVE",
"339 137 QCURVE SMOOTH",
"342 155 OFFCURVE",
"355 194 OFFCURVE",
"372 230 OFFCURVE",
"387 258 OFFCURVE",
"391 265 QCURVE SMOOTH",
"408 293 OFFCURVE",
"448 347 OFFCURVE",
"492 394 OFFCURVE",
"537 432 OFFCURVE",
"558 444 QCURVE SMOOTH",
"593 464 OFFCURVE",
"655 448 OFFCURVE",
"666 413 QCURVE",
"681 410 OFFCURVE",
"692 435 OFFCURVE",
"679 449 QCURVE SMOOTH",
"652 479 OFFCURVE",
"575 493 OFFCURVE",
"493 474 OFFCURVE",
"415 425 OFFCURVE",
"387 391 QCURVE SMOOTH",
"339 334 OFFCURVE",
"290 225 OFFCURVE",
"277 133 OFFCURVE",
"296 65 OFFCURVE",
"339 34 OFFCURVE",
"401 47 OFFCURVE",
"437 82 QCURVE SMOOTH",
"465 109 OFFCURVE",
"513 175 OFFCURVE",
"528 200 QCURVE",
"514 150 OFFCURVE",
"523 89 OFFCURVE",
"552 55 OFFCURVE",
"591 44 OFFCURVE",
"607 45 QCURVE SMOOTH",
"625 45 OFFCURVE",
"670 53 OFFCURVE",
"715 68 OFFCURVE",
"755 87 OFFCURVE",
"769 98 QCURVE SMOOTH",
"806 128 OFFCURVE",
"873 205 OFFCURVE",
"921 294 OFFCURVE",
"946 391 OFFCURVE",
"942 442 QCURVE",
"942 442 LINE"
);
}
);
userData = {
assembly = "PUSHW[ ]\011/* 1 value pushed */
122 
MDAP[1]\011/* MoveDirectAbsPt */
PUSHW[ ]\011/* 1 value pushed */
77 
MDAP[1]\011/* MoveDirectAbsPt */
NPUSHW[ ]\011/* 5 values pushed */
10 77 26 77 2 
DELTAP2[ ]\011/* DeltaExceptionP2 */
NPUSHW[ ]\011/* 33 values pushed */
9 77 25 77 41 77 57 77 73 77 89 77 105 77 121 77 137 77 153 77 169 77 185 77 201 77 217 77 233 77 249 77 16 
DELTAP1[ ]\011/* DeltaExceptionP1 */
PUSHW[ ]\011/* 2 values pushed */
0 3 
MIRP[10100]\011/* MoveIndirectRelPt */
PUSHW[ ]\011/* 1 value pushed */
122 
SRP0[ ]\011/* SetRefPoint0 */
PUSHW[ ]\011/* 1 value pushed */
110 
MDRP[10000]\011/* MoveDirectRelPt */
PUSHW[ ]\011/* 1 value pushed */
110 
MDAP[1]\011/* MoveDirectAbsPt */
PUSHW[ ]\011/* 3 values pushed */
15 110 0 
SRP1[ ]\011/* SetRefPoint1 */
SRP2[ ]\011/* SetRefPoint2 */
IP[ ]\011/* InterpolatePts */
PUSHW[ ]\011/* 3 values pushed */
60 110 0 
SRP1[ ]\011/* SetRefPoint1 */
SRP2[ ]\011/* SetRefPoint2 */
IP[ ]\011/* InterpolatePts */
PUSHW[ ]\011/* 2 values pushed */
89 3 
MIRP[10100]\011/* MoveIndirectRelPt */
NPUSHW[ ]\011/* 33 values pushed */
6 89 22 89 38 89 54 89 70 89 86 89 102 89 118 89 134 89 150 89 166 89 182 89 198 89 214 89 230 89 246 89 16 
DELTAP1[ ]\011/* DeltaExceptionP1 */
NPUSHW[ ]\011/* 5 values pushed */
5 89 21 89 2 
DELTAP2[ ]\011/* DeltaExceptionP2 */
PUSHW[ ]\011/* 1 value pushed */
0 
SRP0[ ]\011/* SetRefPoint0 */
PUSHW[ ]\011/* 1 value pushed */
123 
MDRP[11100]\011/* MoveDirectRelPt */
SVTCA[0]\011/* SetFreedomAndProjectionVectorToAxis */
PUSHW[ ]\011/* 1 value pushed */
82 
MDAP[1]\011/* MoveDirectAbsPt */
PUSHW[ ]\011/* 4 values pushed */
94 1 105 4 
CALL[ ]\011/* CallFunction */
IUP[0]\011/* InterpolateUntPts */
IUP[1]\011/* InterpolateUntPts */";
};
width = 956;
}
);
note = at;
unicode = 0040;
},
{
glyphname = A;
layers = (
{
layerId = "8CCE14AF-3337-4F2C-A14C-E3F14A892F52";
paths = (
{
closed = 1;
nodes = (
"860 702 OFFCURVE",
"769 773 OFFCURVE",
"688 773 QCURVE SMOOTH",
"615 773 OFFCURVE",
"480 731 OFFCURVE",
"357 659 OFFCURVE",
"247 564 OFFCURVE",
"200 512 QCURVE",
"144 538 OFFCURVE",
"112 575 QCURVE SMOOTH",
"95 595 OFFCURVE",
"81 631 OFFCURVE",
"91 654 QCURVE SMOOTH",
"99 672 OFFCURVE",
"82 685 OFFCURVE",
"73 673 QCURVE",
"65 667 OFFCURVE",
"58 639 OFFCURVE",
"60 606 OFFCURVE",
"71 572 OFFCURVE",
"82 560 QCURVE SMOOTH",
"101 539 OFFCURVE",
"152 505 OFFCURVE",
"182 491 QCURVE",
"156 462 OFFCURVE",
"113 398 OFFCURVE",
"94 364 QCURVE SMOOTH",
"56 296 OFFCURVE",
"19 166 OFFCURVE",
"18 58 OFFCURVE",
"54 -20 OFFCURVE",
"90 -35 QCURVE SMOOTH",
"125 -50 OFFCURVE",
"203 -42 OFFCURVE",
"280 -8 OFFCURVE",
"356 46 OFFCURVE",
"423 107 OFFCURVE",
"481 168 OFFCURVE",
"501 192 QCURVE",
"490 177 OFFCURVE",
"472 128 OFFCURVE",
"462 71 OFFCURVE",
"464 13 OFFCURVE",
"480 -34 OFFCURVE",
"514 -64 OFFCURVE",
"542 -64 QCURVE SMOOTH",
"563 -64 OFFCURVE",
"605 -50 OFFCURVE",
"643 -26 OFFCURVE",
"676 5 OFFCURVE",
"689 22 QCURVE SMOOTH",
"703 40 OFFCURVE",
"730 84 OFFCURVE",
"755 127 OFFCURVE",
"775 167 OFFCURVE",
"782 182 QCURVE SMOOTH",
"790 200 OFFCURVE",
"772 200 OFFCURVE",
"765 186 QCURVE SMOOTH",
"748 148 OFFCURVE",
"701 74 OFFCURVE",
"678 44 QCURVE SMOOTH",
"648 7 OFFCURVE",
"586 -35 OFFCURVE",
"540 -31 OFFCURVE",
"519 27 OFFCURVE",
"531 90 QCURVE SMOOTH",
"538 127 OFFCURVE",
"565 202 OFFCURVE",
"600 272 OFFCURVE",
"641 334 OFFCURVE",
"662 358 QCURVE SMOOTH",
"684 382 OFFCURVE",
"689 429 OFFCURVE",
"668 449 OFFCURVE",
"628 429 OFFCURVE",
"605 386 QCURVE SMOOTH",
"585 349 OFFCURVE",
"527 266 OFFCURVE",
"458 183 OFFCURVE",
"382 104 OFFCURVE",
"343 71 QCURVE SMOOTH",
"274 14 OFFCURVE",
"153 -27 OFFCURVE",
"78 9 OFFCURVE",
"64 122 OFFCURVE",
"102 218 QCURVE SMOOTH",
"115 251 OFFCURVE",
"154 324 OFFCURVE",
"195 392 OFFCURVE",
"233 451 OFFCURVE",
"247 470 QCURVE",
"318 447 OFFCURVE",
"464 439 OFFCURVE",
"549 447 QCURVE SMOOTH",
"636 455 OFFCURVE",
"755 498 OFFCURVE",
"828 555 OFFCURVE",
"860 619 OFFCURVE",
"860 646 QCURVE",
"860 646 LINE"
);
},
{
closed = 1;
nodes = (
"819 621 OFFCURVE",
"781 557 OFFCURVE",
"711 508 OFFCURVE",
"611 476 OFFCURVE",
"549 471 QCURVE SMOOTH",
"454 463 OFFCURVE",
"321 471 OFFCURVE",
"263 490 QCURVE",
"305 540 OFFCURVE",
"397 633 OFFCURVE",
"501 704 OFFCURVE",
"621 747 OFFCURVE",
"691 747 QCURVE SMOOTH",
"746 747 OFFCURVE",
"819 703 OFFCURVE",
"819 658 QCURVE",
"819 658 LINE"
);
}
);
userData = {
assembly = "PUSHW[ ]\011/* 4 values pushed */
0 3 100 4 
CALL[ ]\011/* CallFunction */
NPUSHW[ ]\011/* 5 values pushed */
10 100 26 100 2 
DELTAP2[ ]\011/* DeltaExceptionP2 */
NPUSHW[ ]\011/* 33 values pushed */
9 100 25 100 41 100 57 100 73 100 89 100 105 100 121 100 137 100 153 100 169 100 185 100 201 100 217 100 233 100 249 100 16 
DELTAP1[ ]\011/* DeltaExceptionP1 */
SVTCA[0]\011/* SetFreedomAndProjectionVectorToAxis */
PUSHW[ ]\011/* 4 values pushed */
97 2 103 4 
CALL[ ]\011/* CallFunction */
IUP[0]\011/* InterpolateUntPts */
IUP[1]\011/* InterpolateUntPts */";
};
width = 712;
}
);
note = A;
unicode = 0041;
},
{
glyphname = B;
layers = (
{
layerId = "8CCE14AF-3337-4F2C-A14C-E3F14A892F52";
paths = (
{
closed = 1;
nodes = (
"1091 531 OFFCURVE",
"1082 608 OFFCURVE",
"1024 671 OFFCURVE",
"924 720 OFFCURVE",
"860 737 QCURVE",
"862 741 OFFCURVE",
"879 757 OFFCURVE",
"889 764 QCURVE SMOOTH",
"907 775 OFFCURVE",
"903 789 OFFCURVE",
"879 779 QCURVE SMOOTH",
"866 774 OFFCURVE",
"837 756 OFFCURVE",
"824 745 QCURVE",
"736 764 OFFCURVE",
"535 769 OFFCURVE",
"430 754 QCURVE SMOOTH",
"342 741 OFFCURVE",
"209 681 OFFCURVE",
"121 601 OFFCURVE",
"79 511 OFFCURVE",
"83 429 OFFCURVE",
"136 361 OFFCURVE",
"187 343 QCURVE SMOOTH",
"220 331 OFFCURVE",
"290 339 OFFCURVE",
"350 373 OFFCURVE",
"393 430 OFFCURVE",
"399 467 QCURVE SMOOTH",
"399 468 LINE SMOOTH",
"399 476 OFFCURVE",
"392 482 OFFCURVE",
"385 482 OFFCURVE",
"378 478 OFFCURVE",
"378 476 QCURVE SMOOTH",
"380 465 OFFCURVE",
"357 418 OFFCURVE",
"310 376 OFFCURVE",
"241 353 OFFCURVE",
"197 367 QCURVE SMOOTH",
"160 378 OFFCURVE",
"125 430 OFFCURVE",
"128 497 OFFCURVE",
"167 572 OFFCURVE",
"241 641 OFFCURVE",
"348 697 OFFCURVE",
"417 712 QCURVE SMOOTH",
"519 734 OFFCURVE",
"716 737 OFFCURVE",
"800 723 QCURVE",
"743 658 LINE SMOOTH",
"679 587 OFFCURVE",
"583 422 OFFCURVE",
"499 262 OFFCURVE",
"417 120 OFFCURVE",
"367 72 QCURVE",
"319 95 OFFCURVE",
"250 135 OFFCURVE",
"222 146 QCURVE SMOOTH",
"166 166 OFFCURVE",
"80 158 OFFCURVE",
"26 121 OFFCURVE",
"6 67 OFFCURVE",
"23 13 OFFCURVE",
"81 -30 OFFCURVE",
"132 -36 QCURVE SMOOTH",
"201 -45 OFFCURVE",
"329 -9 OFFCURVE",
"387 34 QCURVE",
"433 13 OFFCURVE",
"558 -23 OFFCURVE",
"653 -35 QCURVE SMOOTH",
"698 -41 OFFCURVE",
"796 -29 OFFCURVE",
"889 2 OFFCURVE",
"969 51 OFFCURVE",
"1023 117 OFFCURVE",
"1043 196 OFFCURVE",
"1030 242 QCURVE SMOOTH",
"1022 270 OFFCURVE",
"979 316 OFFCURVE",
"925 351 OFFCURVE",
"866 376 OFFCURVE",
"841 384 QCURVE",
"869 385 OFFCURVE",
"934 397 OFFCURVE",
"997 422 OFFCURVE",
"1050 461 OFFCURVE",
"1066 488 QCURVE",
"1066 488 LINE"
);
},
{
closed = 1;
nodes = (
"988 659 OFFCURVE",
"1025 603 OFFCURVE",
"1022 544 OFFCURVE",
"986 486 OFFCURVE",
"932 441 OFFCURVE",
"866 412 OFFCURVE",
"835 412 QCURVE SMOOTH",
"806 412 OFFCURVE",
"753 417 OFFCURVE",
"713 418 OFFCURVE",
"690 411 OFFCURVE",
"690 398 QCURVE",
"694 390 OFFCURVE",
"731 376 OFFCURVE",
"784 359 OFFCURVE",
"847 339 OFFCURVE",
"876 325 QCURVE SMOOTH",
"924 302 OFFCURVE",
"965 231 OFFCURVE",
"959 153 OFFCURVE",
"910 76 OFFCURVE",
"828 18 OFFCURVE",
"717 -14 OFFCURVE",
"652 -8 QCURVE SMOOTH",
"574 0 OFFCURVE",
"456 32 OFFCURVE",
"409 52 QCURVE",
"419 61 OFFCURVE",
"437 78 OFFCURVE",
"447 88 QCURVE SMOOTH",
"497 142 OFFCURVE",
"597 299 OFFCURVE",
"697 471 OFFCURVE",
"798 643 OFFCURVE",
"848 712 QCURVE",
"874 706 OFFCURVE",
"922 691 OFFCURVE",
"942 681 QCURVE",
"942 681 LINE"
);
},
{
closed = 1;
nodes = (
"305 23 OFFCURVE",
"212 -10 OFFCURVE",
"157 -8 QCURVE SMOOTH",
"124 -6 OFFCURVE",
"84 21 OFFCURVE",
"67 59 OFFCURVE",
"74 98 OFFCURVE",
"105 126 OFFCURVE",
"159 133 OFFCURVE",
"197 120 QCURVE SMOOTH",
"242 104 OFFCURVE",
"310 70 OFFCURVE",
"345 53 QCURVE",
"345 53 LINE"
);
}
);
userData = {
assembly = "SVTCA[0]\011/* SetFreedomAndProjectionVectorToAxis */
PUSHW[ ]\011/* 1 value pushed */
0 
RCVT[ ]\011/* ReadCVT */
IF[ ]\011/* If */
PUSHW[ ]\011/* 1 value pushed */
120 
MDAP[1]\011/* MoveDirectAbsPt */
ELSE[ ]\011/* Else */
PUSHW[ ]\011/* 2 values pushed */
120 9 
MIAP[0]\011/* MoveIndirectAbsPt */
EIF[ ]\011/* EndIf */
PUSHW[ ]\011/* 2 values pushed */
5 2 
MIRP[10100]\011/* MoveIndirectRelPt */
NPUSHW[ ]\011/* 33 values pushed */
8 5 24 5 40 5 56 5 72 5 88 5 104 5 120 5 136 5 152 5 168 5 184 5 200 5 216 5 232 5 248 5 16 
DELTAP1[ ]\011/* DeltaExceptionP1 */
NPUSHW[ ]\011/* 33 values pushed */
8 5 24 5 40 5 56 5 72 5 88 5 104 5 120 5 136 5 152 5 168 5 184 5 200 5 216 5 232 5 248 5 16 
DELTAP2[ ]\011/* DeltaExceptionP2 */
NPUSHW[ ]\011/* 33 values pushed */
8 5 24 5 40 5 56 5 72 5 88 5 104 5 120 5 136 5 152 5 168 5 184 5 200 5 216 5 232 5 248 5 16 
DELTAP3[ ]\011/* DeltaExceptionP3 */
IUP[0]\011/* InterpolateUntPts */
IUP[1]\011/* InterpolateUntPts */";
};
width = 1041;
}
);
note = B;
unicode = 0042;
},
{
glyphname = C;
layers = (
{
layerId = "8CCE14AF-3337-4F2C-A14C-E3F14A892F52";
paths = (
{
closed = 1;
nodes = (
"788 198 OFFCURVE",
"774 206 OFFCURVE",
"768 193 QCURVE SMOOTH",
"752 161 OFFCURVE",
"722 104 OFFCURVE",
"684 54 OFFCURVE",
"637 10 OFFCURVE",
"604 -9 QCURVE SMOOTH",
"529 -54 OFFCURVE",
"350 -75 OFFCURVE",
"269 -51 QCURVE SMOOTH",
"204 -31 OFFCURVE",
"140 57 OFFCURVE",
"120 167 OFFCURVE",
"136 288 OFFCURVE",
"166 392 OFFCURVE",
"200 469 OFFCURVE",
"209 481 QCURVE",
"248 400 OFFCURVE",
"379 322 OFFCURVE",
"457 311 QCURVE SMOOTH",
"534 300 OFFCURVE",
"662 324 OFFCURVE",
"760 380 OFFCURVE",
"825 460 OFFCURVE",
"854 549 OFFCURVE",
"844 639 OFFCURVE",
"792 714 OFFCURVE",
"694 768 OFFCURVE",
"621 776 QCURVE SMOOTH",
"502 790 OFFCURVE",
"286 698 OFFCURVE",
"205 593 QCURVE",
"197 634 OFFCURVE",
"189 735 OFFCURVE",
"197 783 QCURVE SMOOTH",
"199 793 OFFCURVE",
"194 802 OFFCURVE",
"187 802 OFFCURVE",
"178 794 OFFCURVE",
"177 788 QCURVE SMOOTH",
"169 760 OFFCURVE",
"164 699 OFFCURVE",
"167 639 OFFCURVE",
"175 582 OFFCURVE",
"181 559 QCURVE",
"146 515 OFFCURVE",
"92 403 OFFCURVE",
"61 281 OFFCURVE",
"58 157 OFFCURVE",
"92 46 OFFCURVE",
"167 -43 OFFCURVE",
"230 -70 QCURVE SMOOTH",
"284 -93 OFFCURVE",
"391 -105 OFFCURVE",
"490 -89 OFFCURVE",
"581 -51 OFFCURVE",
"619 -25 QCURVE SMOOTH",
"651 -3 OFFCURVE",
"697 43 OFFCURVE",
"733 94 OFFCURVE",
"764 150 OFFCURVE",
"780 183 QCURVE",
"780 183 LINE"
);
},
{
closed = 1;
nodes = (
"703 727 OFFCURVE",
"787 654 OFFCURVE",
"812 558 OFFCURVE",
"780 454 OFFCURVE",
"696 371 OFFCURVE",
"562 325 OFFCURVE",
"472 335 QCURVE SMOOTH",
"390 344 OFFCURVE",
"263 427 OFFCURVE",
"229 513 QCURVE",
"266 570 OFFCURVE",
"359 660 OFFCURVE",
"463 720 OFFCURVE",
"574 746 OFFCURVE",
"630 738 QCURVE",
"630 738 LINE"
);
}
);
width = 710;
}
);
note = C;
unicode = 0043;
},
{
glyphname = D;
layers = (
{
layerId = "8CCE14AF-3337-4F2C-A14C-E3F14A892F52";
paths = (
{
closed = 1;
nodes = (
"1030 310 OFFCURVE",
"1006 437 OFFCURVE",
"951 546 OFFCURVE",
"869 635 OFFCURVE",
"818 669 QCURVE",
"830 687 OFFCURVE",
"854 721 OFFCURVE",
"865 737 QCURVE SMOOTH",
"867 740 OFFCURVE",
"884 757 OFFCURVE",
"894 764 QCURVE SMOOTH",
"912 775 OFFCURVE",
"908 789 OFFCURVE",
"884 779 QCURVE SMOOTH",
"878 777 OFFCURVE",
"855 763 OFFCURVE",
"829 746 OFFCURVE",
"806 729 OFFCURVE",
"800 723 QCURVE SMOOTH",
"775 694 LINE",
"697 736 OFFCURVE",
"516 768 OFFCURVE",
"423 754 QCURVE SMOOTH",
"320 739 OFFCURVE",
"180 675 OFFCURVE",
"96 594 OFFCURVE",
"66 504 OFFCURVE",
"81 423 OFFCURVE",
"136 358 OFFCURVE",
"180 343 QCURVE SMOOTH",
"213 331 OFFCURVE",
"283 339 OFFCURVE",
"343 373 OFFCURVE",
"386 430 OFFCURVE",
"391 467 QCURVE SMOOTH",
"393 481 OFFCURVE",
"372 484 OFFCURVE",
"371 476 QCURVE SMOOTH",
"370 463 OFFCURVE",
"347 415 OFFCURVE",
"301 374 OFFCURVE",
"234 353 OFFCURVE",
"190 367 QCURVE SMOOTH",
"153 378 OFFCURVE",
"117 431 OFFCURVE",
"118 500 OFFCURVE",
"156 576 OFFCURVE",
"228 647 OFFCURVE",
"334 704 OFFCURVE",
"403 719 QCURVE SMOOTH",
"497 739 OFFCURVE",
"673 708 OFFCURVE",
"747 663 QCURVE",
"688 597 OFFCURVE",
"596 436 OFFCURVE",
"511 274 OFFCURVE",
"422 125 OFFCURVE",
"367 72 QCURVE",
"355 78 OFFCURVE",
"315 99 OFFCURVE",
"271 121 OFFCURVE",
"229 141 OFFCURVE",
"215 146 QCURVE SMOOTH",
"159 165 OFFCURVE",
"73 157 OFFCURVE",
"19 121 OFFCURVE",
"-1 66 OFFCURVE",
"16 12 OFFCURVE",
"74 -30 OFFCURVE",
"125 -36 QCURVE SMOOTH",
"197 -45 OFFCURVE",
"320 -9 OFFCURVE",
"375 36 QCURVE",
"399 25 OFFCURVE",
"453 5 OFFCURVE",
"518 -13 OFFCURVE",
"597 -29 OFFCURVE",
"646 -35 QCURVE SMOOTH",
"713 -43 OFFCURVE",
"843 -12 OFFCURVE",
"947 60 OFFCURVE",
"1016 169 OFFCURVE",
"1023 239 QCURVE",
"1023 239 LINE"
);
},
{
closed = 1;
nodes = (
"954 185 OFFCURVE",
"903 91 OFFCURVE",
"820 22 OFFCURVE",
"710 -14 OFFCURVE",
"645 -8 QCURVE SMOOTH",
"564 0 OFFCURVE",
"446 33 OFFCURVE",
"399 54 QCURVE",
"409 62 OFFCURVE",
"427 79 OFFCURVE",
"437 90 QCURVE SMOOTH",
"478 134 OFFCURVE",
"567 263 OFFCURVE",
"659 409 OFFCURVE",
"750 562 OFFCURVE",
"794 631 QCURVE",
"836 598 OFFCURVE",
"904 512 OFFCURVE",
"948 412 OFFCURVE",
"966 298 OFFCURVE",
"960 237 QCURVE",
"960 237 LINE"
);
},
{
closed = 1;
nodes = (
"299 22 OFFCURVE",
"204 -10 OFFCURVE",
"150 -8 QCURVE SMOOTH",
"119 -7 OFFCURVE",
"82 21 OFFCURVE",
"66 57 OFFCURVE",
"73 97 OFFCURVE",
"103 124 OFFCURVE",
"154 133 OFFCURVE",
"190 120 QCURVE SMOOTH",
"235 104 OFFCURVE",
"305 69 OFFCURVE",
"341 52 QCURVE",
"341 52 LINE"
);
}
);
width = 1014;
}
);
note = D;
unicode = 0044;
},
{
glyphname = E;
layers = (
{
layerId = "8CCE14AF-3337-4F2C-A14C-E3F14A892F52";
paths = (
{
closed = 1;
nodes = (
"781 263 OFFCURVE",
"758 264 OFFCURVE",
"748 258 OFFCURVE",
"755 248 OFFCURVE",
"772 244 QCURVE SMOOTH",
"793 239 OFFCURVE",
"801 210 OFFCURVE",
"784 171 OFFCURVE",
"745 125 OFFCURVE",
"717 103 QCURVE SMOOTH",
"685 78 OFFCURVE",
"598 29 OFFCURVE",
"498 -9 OFFCURVE",
"386 -33 OFFCURVE",
"328 -33 QCURVE SMOOTH",
"242 -33 OFFCURVE",
"138 17 OFFCURVE",
"90 95 OFFCURVE",
"94 189 OFFCURVE",
"139 277 OFFCURVE",
"219 347 OFFCURVE",
"271 361 QCURVE SMOOTH",
"319 374 OFFCURVE",
"409 376 OFFCURVE",
"482 374 OFFCURVE",
"529 377 OFFCURVE",
"534 392 QCURVE SMOOTH",
"538 410 OFFCURVE",
"506 428 OFFCURVE",
"455 442 OFFCURVE",
"394 456 OFFCURVE",
"345 484 OFFCURVE",
"317 531 OFFCURVE",
"324 570 QCURVE SMOOTH",
"333 618 OFFCURVE",
"412 699 OFFCURVE",
"523 756 OFFCURVE",
"652 784 OFFCURVE",
"711 778 QCURVE SMOOTH",
"757 773 OFFCURVE",
"802 740 OFFCURVE",
"813 696 OFFCURVE",
"795 646 OFFCURVE",
"760 603 OFFCURVE",
"714 573 OFFCURVE",
"691 571 QCURVE SMOOTH",
"674 569 OFFCURVE",
"655 559 OFFCURVE",
"654 551 OFFCURVE",
"673 548 OFFCURVE",
"694 553 QCURVE SMOOTH",
"744 564 OFFCURVE",
"819 606 OFFCURVE",
"863 657 OFFCURVE",
"872 712 OFFCURVE",
"844 759 OFFCURVE",
"773 795 OFFCURVE",
"715 802 QCURVE SMOOTH",
"675 806 OFFCURVE",
"577 796 OFFCURVE",
"476 767 OFFCURVE",
"379 722 OFFCURVE",
"302 662 OFFCURVE",
"252 588 OFFCURVE",
"248 545 QCURVE SMOOTH",
"246 523 OFFCURVE",
"267 484 OFFCURVE",
"303 452 OFFCURVE",
"347 427 OFFCURVE",
"368 420 QCURVE",
"320 418 OFFCURVE",
"267 403 QCURVE SMOOTH",
"185 378 OFFCURVE",
"74 292 OFFCURVE",
"20 190 OFFCURVE",
"24 85 OFFCURVE",
"91 -1 OFFCURVE",
"223 -55 OFFCURVE",
"324 -55 QCURVE SMOOTH",
"386 -55 OFFCURVE",
"509 -36 OFFCURVE",
"622 -2 OFFCURVE",
"721 47 OFFCURVE",
"758 76 QCURVE SMOOTH",
"791 102 OFFCURVE",
"831 154 OFFCURVE",
"841 202 OFFCURVE",
"820 243 OFFCURVE",
"793 257 QCURVE",
"793 257 LINE"
);
}
);
userData = {
assembly = "SVTCA[0]\011/* SetFreedomAndProjectionVectorToAxis */
PUSHW[ ]\011/* 4 values pushed */
74 1 10 4 
CALL[ ]\011/* CallFunction */
IUP[0]\011/* InterpolateUntPts */
IUP[1]\011/* InterpolateUntPts */";
};
width = 815;
}
);
note = E;
unicode = 0045;
},
{
glyphname = F;
layers = (
{
layerId = "8CCE14AF-3337-4F2C-A14C-E3F14A892F52";
paths = (
{
closed = 1;
nodes = (
"1391 591 OFFCURVE",
"1379 601 OFFCURVE",
"1368 577 QCURVE SMOOTH",
"1358 557 OFFCURVE",
"1312 542 OFFCURVE",
"1250 544 OFFCURVE",
"1180 561 OFFCURVE",
"1113 583 OFFCURVE",
"1057 606 OFFCURVE",
"1040 615 QCURVE",
"1051 625 OFFCURVE",
"1083 641 OFFCURVE",
"1100 634 QCURVE",
"1108 625 OFFCURVE",
"1118 628 OFFCURVE",
"1118 640 OFFCURVE",
"1110 655 OFFCURVE",
"1100 658 QCURVE SMOOTH",
"1083 663 OFFCURVE",
"1056 658 OFFCURVE",
"1035 646 OFFCURVE",
"1020 631 OFFCURVE",
"1016 627 QCURVE",
"969 656 OFFCURVE",
"831 720 OFFCURVE",
"748 743 QCURVE SMOOTH",
"666 766 OFFCURVE",
"529 749 OFFCURVE",
"427 692 OFFCURVE",
"363 607 OFFCURVE",
"343 518 OFFCURVE",
"371 439 OFFCURVE",
"413 415 QCURVE SMOOTH",
"443 398 OFFCURVE",
"516 393 OFFCURVE",
"583 416 OFFCURVE",
"637 466 OFFCURVE",
"648 502 QCURVE SMOOTH",
"652 515 OFFCURVE",
"649 524 OFFCURVE",
"640 520 OFFCURVE",
"631 506 OFFCURVE",
"631 498 QCURVE SMOOTH",
"631 487 OFFCURVE",
"595 448 OFFCURVE",
"535 419 OFFCURVE",
"460 414 OFFCURVE",
"422 438 QCURVE SMOOTH",
"399 452 OFFCURVE",
"389 509 OFFCURVE",
"413 575 OFFCURVE",
"467 642 OFFCURVE",
"551 692 OFFCURVE",
"663 715 OFFCURVE",
"731 705 QCURVE SMOOTH",
"805 694 OFFCURVE",
"939 642 OFFCURVE",
"1003 610 QCURVE",
"996 602 OFFCURVE",
"962 550 OFFCURVE",
"920 478 OFFCURVE",
"876 391 OFFCURVE",
"858 348 QCURVE",
"822 354 OFFCURVE",
"748 359 OFFCURVE",
"682 345 OFFCURVE",
"627 305 OFFCURVE",
"610 267 QCURVE SMOOTH",
"606 259 OFFCURVE",
"617 246 OFFCURVE",
"626 258 QCURVE SMOOTH",
"644 283 OFFCURVE",
"705 306 OFFCURVE",
"771 314 OFFCURVE",
"830 311 OFFCURVE",
"844 311 QCURVE",
"808 229 OFFCURVE",
"713 83 OFFCURVE",
"594 -26 OFFCURVE",
"451 -87 OFFCURVE",
"368 -83 QCURVE SMOOTH",
"313 -81 OFFCURVE",
"198 -39 OFFCURVE",
"110 39 OFFCURVE",
"63 152 OFFCURVE",
"76 226 QCURVE SMOOTH",
"80 251 OFFCURVE",
"99 289 OFFCURVE",
"121 316 OFFCURVE",
"144 335 OFFCURVE",
"153 342 QCURVE SMOOTH",
"164 350 OFFCURVE",
"182 363 OFFCURVE",
"189 370 OFFCURVE",
"184 372 OFFCURVE",
"172 368 QCURVE SMOOTH",
"161 365 OFFCURVE",
"131 347 OFFCURVE",
"101 321 OFFCURVE",
"75 285 OFFCURVE",
"68 264 QCURVE SMOOTH",
"41 182 OFFCURVE",
"67 39 OFFCURVE",
"153 -68 OFFCURVE",
"293 -130 OFFCURVE",
"380 -130 QCURVE SMOOTH",
"461 -130 OFFCURVE",
"588 -91 OFFCURVE",
"688 -25 OFFCURVE",
"763 63 OFFCURVE",
"820 160 OFFCURVE",
"863 261 OFFCURVE",
"880 308 QCURVE",
"899 306 OFFCURVE",
"957 304 OFFCURVE",
"1017 306 OFFCURVE",
"1069 310 OFFCURVE",
"1082 313 QCURVE SMOOTH",
"1105 319 OFFCURVE",
"1106 335 OFFCURVE",
"1080 333 QCURVE SMOOTH",
"1065 332 OFFCURVE",
"1019 332 OFFCURVE",
"968 333 OFFCURVE",
"915 336 OFFCURVE",
"892 339 QCURVE",
"902 363 OFFCURVE",
"929 430 OFFCURVE",
"961 500 OFFCURVE",
"1001 570 OFFCURVE",
"1025 597 QCURVE",
"1032 594 OFFCURVE",
"1074 572 OFFCURVE",
"1137 545 OFFCURVE",
"1215 518 OFFCURVE",
"1259 511 QCURVE SMOOTH",
"1284 507 OFFCURVE",
"1329 514 OFFCURVE",
"1363 531 OFFCURVE",
"1384 557 OFFCURVE",
"1386 572 QCURVE",
"1386 572 LINE"
);
}
);
userData = {
assembly = "SVTCA[0]\011/* SetFreedomAndProjectionVectorToAxis */
PUSHW[ ]\011/* 4 values pushed */
60 2 35 4 
CALL[ ]\011/* CallFunction */
IUP[0]\011/* InterpolateUntPts */
IUP[1]\011/* InterpolateUntPts */";
};
width = 1048;
}
);
note = F;
unicode = 0046;
},
{
glyphname = G;
layers = (
{
layerId = "8CCE14AF-3337-4F2C-A14C-E3F14A892F52";
paths = (
{
closed = 1;
nodes = (
"725 -101 OFFCURVE",
"618 -87 OFFCURVE",
"551 -86 QCURVE",
"606 4 OFFCURVE",
"676 161 OFFCURVE",
"687 244 QCURVE SMOOTH",
"690 263 OFFCURVE",
"669 292 OFFCURVE",
"634 291 OFFCURVE",
"590 250 OFFCURVE",
"568 199 QCURVE SMOOTH",
"557 174 OFFCURVE",
"485 115 OFFCURVE",
"387 71 OFFCURVE",
"275 53 OFFCURVE",
"226 69 QCURVE SMOOTH",
"182 83 OFFCURVE",
"125 156 OFFCURVE",
"105 261 OFFCURVE",
"125 391 OFFCURVE",
"158 462 QCURVE",
"182 446 OFFCURVE",
"243 420 OFFCURVE",
"311 402 OFFCURVE",
"385 392 OFFCURVE",
"421 393 QCURVE SMOOTH",
"527 394 OFFCURVE",
"679 451 OFFCURVE",
"771 537 OFFCURVE",
"802 639 OFFCURVE",
"772 731 OFFCURVE",
"680 802 OFFCURVE",
"603 814 QCURVE SMOOTH",
"543 823 OFFCURVE",
"411 797 OFFCURVE",
"285 733 OFFCURVE",
"174 633 OFFCURVE",
"134 568 QCURVE SMOOTH",
"128 558 OFFCURVE",
"117 539 OFFCURVE",
"112 529 QCURVE",
"89 556 OFFCURVE",
"63 619 OFFCURVE",
"59 684 OFFCURVE",
"80 750 OFFCURVE",
"105 781 QCURVE SMOOTH",
"117 797 OFFCURVE",
"103 800 OFFCURVE",
"92 789 QCURVE SMOOTH",
"57 754 OFFCURVE",
"28 677 OFFCURVE",
"33 601 OFFCURVE",
"67 529 OFFCURVE",
"96 499 QCURVE",
"55 414 OFFCURVE",
"40 260 OFFCURVE",
"73 137 OFFCURVE",
"145 52 OFFCURVE",
"192 36 QCURVE SMOOTH",
"233 22 OFFCURVE",
"318 25 OFFCURVE",
"400 46 OFFCURVE",
"476 83 OFFCURVE",
"541 123 OFFCURVE",
"591 163 OFFCURVE",
"606 177 QCURVE",
"602 160 LINE SMOOTH",
"594 125 OFFCURVE",
"574 63 OFFCURVE",
"550 4 OFFCURVE",
"519 -55 OFFCURVE",
"501 -86 QCURVE",
"477 -86 OFFCURVE",
"420 -89 OFFCURVE",
"362 -94 OFFCURVE",
"308 -99 OFFCURVE",
"289 -102 QCURVE SMOOTH",
"227 -111 OFFCURVE",
"113 -147 OFFCURVE",
"24 -194 OFFCURVE",
"-36 -248 OFFCURVE",
"-53 -301 OFFCURVE",
"-21 -348 OFFCURVE",
"25 -365 QCURVE SMOOTH",
"53 -375 OFFCURVE",
"133 -371 OFFCURVE",
"225 -346 OFFCURVE",
"325 -300 OFFCURVE",
"420 -237 OFFCURVE",
"505 -158 OFFCURVE",
"537 -112 QCURVE",
"567 -112 OFFCURVE",
"632 -114 OFFCURVE",
"693 -118 OFFCURVE",
"745 -126 OFFCURVE",
"762 -130 QCURVE SMOOTH",
"776 -133 OFFCURVE",
"790 -131 OFFCURVE",
"792 -123 OFFCURVE",
"781 -115 OFFCURVE",
"770 -112 QCURVE",
"770 -112 LINE"
);
},
{
closed = 1;
nodes = (
"669 775 OFFCURVE",
"738 719 OFFCURVE",
"757 645 OFFCURVE",
"725 561 OFFCURVE",
"646 487 OFFCURVE",
"521 433 OFFCURVE",
"437 424 QCURVE SMOOTH",
"360 416 OFFCURVE",
"218 453 OFFCURVE",
"171 488 QCURVE",
"178 502 OFFCURVE",
"194 529 OFFCURVE",
"202 543 QCURVE SMOOTH",
"237 601 OFFCURVE",
"335 696 OFFCURVE",
"444 761 OFFCURVE",
"557 791 OFFCURVE",
"608 784 QCURVE",
"608 784 LINE"
);
},
{
closed = 1;
nodes = (
"456 -155 OFFCURVE",
"381 -224 OFFCURVE",
"299 -277 OFFCURVE",
"216 -316 OFFCURVE",
"139 -338 OFFCURVE",
"73 -344 OFFCURVE",
"51 -339 QCURVE SMOOTH",
"14 -331 OFFCURVE",
"-2 -298 OFFCURVE",
"24 -256 OFFCURVE",
"85 -209 OFFCURVE",
"165 -168 OFFCURVE",
"257 -136 OFFCURVE",
"301 -129 QCURVE SMOOTH",
"343 -122 OFFCURVE",
"437 -115 OFFCURVE",
"485 -113 QCURVE",
"485 -113 LINE"
);
}
);
userData = {
assembly = "SVTCA[0]\011/* SetFreedomAndProjectionVectorToAxis */
PUSHW[ ]\011/* 4 values pushed */
98 2 10 4 
CALL[ ]\011/* CallFunction */
PUSHW[ ]\011/* 1 value pushed */
98 
SRP0[ ]\011/* SetRefPoint0 */
PUSHW[ ]\011/* 1 value pushed */
29 
MDRP[10000]\011/* MoveDirectRelPt */
PUSHW[ ]\011/* 1 value pushed */
10 
SRP0[ ]\011/* SetRefPoint0 */
PUSHW[ ]\011/* 1 value pushed */
119 
MDRP[10000]\011/* MoveDirectRelPt */
PUSHW[ ]\011/* 1 value pushed */
119 
MDAP[1]\011/* MoveDirectAbsPt */
IUP[0]\011/* InterpolateUntPts */
IUP[1]\011/* InterpolateUntPts */";
};
width = 699;
}
);
note = G;
unicode = 0047;
},
{
glyphname = H;
layers = (
{
layerId = "8CCE14AF-3337-4F2C-A14C-E3F14A892F52";
paths = (
{
closed = 1;
nodes = (
"1537 757 OFFCURVE",
"1537 763 OFFCURVE",
"1519 761 OFFCURVE",
"1491 754 OFFCURVE",
"1476 749 QCURVE SMOOTH",
"1456 742 OFFCURVE",
"1411 684 OFFCURVE",
"1365 604 OFFCURVE",
"1321 511 OFFCURVE",
"1286 428 OFFCURVE",
"1262 365 OFFCURVE",
"1258 355 QCURVE",
"1232 355 OFFCURVE",
"1157 360 OFFCURVE",
"1068 367 OFFCURVE",
"969 372 OFFCURVE",
"919 372 QCURVE",
"923 383 OFFCURVE",
"940 429 OFFCURVE",
"963 489 OFFCURVE",
"989 558 OFFCURVE",
"1014 623 OFFCURVE",
"1039 679 OFFCURVE",
"1048 698 QCURVE",
"1063 698 OFFCURVE",
"1104 708 OFFCURVE",
"1140 727 OFFCURVE",
"1166 754 OFFCURVE",
"1166 772 QCURVE SMOOTH",
"1166 793 OFFCURVE",
"1131 806 OFFCURVE",
"1109 800 QCURVE SMOOTH",
"1097 796 OFFCURVE",
"1072 774 OFFCURVE",
"1050 748 OFFCURVE",
"1035 724 OFFCURVE",
"1032 720 QCURVE",
"983 715 OFFCURVE",
"867 710 OFFCURVE",
"748 698 OFFCURVE",
"631 672 OFFCURVE",
"534 620 OFFCURVE",
"462 537 OFFCURVE",
"446 474 QCURVE SMOOTH",
"434 425 OFFCURVE",
"459 338 OFFCURVE",
"518 280 OFFCURVE",
"601 259 OFFCURVE",
"646 276 QCURVE SMOOTH",
"673 286 OFFCURVE",
"722 329 OFFCURVE",
"753 385 OFFCURVE",
"760 449 OFFCURVE",
"746 480 QCURVE SMOOTH",
"743 486 OFFCURVE",
"736 489 OFFCURVE",
"730 487 OFFCURVE",
"729 479 OFFCURVE",
"733 473 QCURVE SMOOTH",
"738 466 OFFCURVE",
"732 416 OFFCURVE",
"711 358 OFFCURVE",
"673 305 OFFCURVE",
"645 295 QCURVE SMOOTH",
"607 281 OFFCURVE",
"547 298 OFFCURVE",
"511 346 OFFCURVE",
"501 417 OFFCURVE",
"514 458 QCURVE SMOOTH",
"532 516 OFFCURVE",
"593 593 OFFCURVE",
"673 642 OFFCURVE",
"766 669 OFFCURVE",
"866 683 OFFCURVE",
"969 690 OFFCURVE",
"1018 696 QCURVE",
"1010 680 OFFCURVE",
"977 610 OFFCURVE",
"935 520 OFFCURVE",
"891 419 OFFCURVE",
"872 372 QCURVE",
"833 372 LINE",
"813 370 OFFCURVE",
"778 345 OFFCURVE",
"771 334 QCURVE SMOOTH",
"765 324 OFFCURVE",
"769 317 OFFCURVE",
"780 317 OFFCURVE",
"794 321 OFFCURVE",
"798 323 QCURVE SMOOTH",
"812 330 OFFCURVE",
"842 339 OFFCURVE",
"858 339 QCURVE",
"833 274 OFFCURVE",
"757 138 OFFCURVE",
"643 18 OFFCURVE",
"486 -76 OFFCURVE",
"381 -100 QCURVE SMOOTH",
"346 -108 OFFCURVE",
"262 -109 OFFCURVE",
"179 -92 OFFCURVE",
"102 -55 OFFCURVE",
"47 3 OFFCURVE",
"19 86 OFFCURVE",
"26 140 QCURVE SMOOTH",
"30 171 OFFCURVE",
"54 224 OFFCURVE",
"84 265 OFFCURVE",
"116 293 OFFCURVE",
"128 298 QCURVE SMOOTH",
"136 301 OFFCURVE",
"142 312 OFFCURVE",
"126 312 QCURVE SMOOTH",
"114 312 OFFCURVE",
"78 290 OFFCURVE",
"41 255 OFFCURVE",
"10 209 OFFCURVE",
"4 185 QCURVE SMOOTH",
"-20 91 OFFCURVE",
"30 -50 OFFCURVE",
"145 -141 OFFCURVE",
"305 -178 OFFCURVE",
"391 -167 QCURVE SMOOTH",
"488 -155 OFFCURVE",
"652 -59 OFFCURVE",
"784 80 OFFCURVE",
"881 250 OFFCURVE",
"910 337 QCURVE",
"944 335 OFFCURVE",
"1046 331 OFFCURVE",
"1148 327 OFFCURVE",
"1232 324 OFFCURVE",
"1249 324 QCURVE",
"1243 307 OFFCURVE",
"1221 247 OFFCURVE",
"1198 175 OFFCURVE",
"1180 99 OFFCURVE",
"1177 31 OFFCURVE",
"1193 -21 OFFCURVE",
"1216 -33 QCURVE SMOOTH",
"1242 -47 OFFCURVE",
"1303 -32 OFFCURVE",
"1329 -6 QCURVE SMOOTH",
"1346 10 OFFCURVE",
"1374 42 OFFCURVE",
"1401 84 OFFCURVE",
"1431 141 OFFCURVE",
"1451 182 QCURVE SMOOTH",
"1459 200 OFFCURVE",
"1444 206 OFFCURVE",
"1436 189 QCURVE SMOOTH",
"1424 165 OFFCURVE",
"1396 113 OFFCURVE",
"1365 64 OFFCURVE",
"1330 22 OFFCURVE",
"1311 8 QCURVE SMOOTH",
"1294 -4 OFFCURVE",
"1265 -3 OFFCURVE",
"1255 8 QCURVE SMOOTH",
"1244 20 OFFCURVE",
"1241 68 OFFCURVE",
"1249 128 OFFCURVE",
"1266 195 OFFCURVE",
"1285 258 OFFCURVE",
"1302 309 OFFCURVE",
"1307 324 QCURVE",
"1329 326 OFFCURVE",
"1384 337 OFFCURVE",
"1404 351 QCURVE SMOOTH",
"1417 360 OFFCURVE",
"1410 368 OFFCURVE",
"1396 363 QCURVE SMOOTH",
"1390 361 OFFCURVE",
"1369 358 OFFCURVE",
"1346 356 OFFCURVE",
"1323 356 OFFCURVE",
"1316 356 QCURVE",
"1346 443 OFFCURVE",
"1413 586 OFFCURVE",
"1472 688 OFFCURVE",
"1516 746 OFFCURVE",
"1523 750 QCURVE",
"1523 750 LINE"
);
},
{
closed = 1;
nodes = (
"1123 771 OFFCURVE",
"1132 760 OFFCURVE",
"1126 744 OFFCURVE",
"1098 728 OFFCURVE",
"1066 723 QCURVE",
"1071 730 OFFCURVE",
"1086 748 OFFCURVE",
"1102 763 OFFCURVE",
"1115 773 OFFCURVE",
"1119 771 QCURVE",
"1119 771 LINE"
);
}
);
userData = {
assembly = "SVTCA[0]\011/* SetFreedomAndProjectionVectorToAxis */
PUSHW[ ]\011/* 4 values pushed */
165 2 54 4 
CALL[ ]\011/* CallFunction */
PUSHW[ ]\011/* 3 values pushed */
5 54 165 
SRP1[ ]\011/* SetRefPoint1 */
SRP2[ ]\011/* SetRefPoint2 */
IP[ ]\011/* InterpolatePts */
PUSHW[ ]\011/* 1 value pushed */
54 
SRP0[ ]\011/* SetRefPoint0 */
PUSHW[ ]\011/* 1 value pushed */
89 
MDRP[10000]\011/* MoveDirectRelPt */
PUSHW[ ]\011/* 1 value pushed */
89 
MDAP[1]\011/* MoveDirectAbsPt */
PUSHW[ ]\011/* 1 value pushed */
165 
SRP0[ ]\011/* SetRefPoint0 */
PUSHW[ ]\011/* 1 value pushed */
100 
MDRP[10000]\011/* MoveDirectRelPt */
IUP[0]\011/* InterpolateUntPts */
IUP[1]\011/* InterpolateUntPts */";
};
width = 1381;
}
);
note = H;
unicode = 0048;
},
{
glyphname = I;
layers = (
{
layerId = "8CCE14AF-3337-4F2C-A14C-E3F14A892F52";
paths = (
{
closed = 1;
nodes = (
"1195 825 OFFCURVE",
"1162 836 OFFCURVE",
"1139 829 QCURVE SMOOTH",
"1127 825 OFFCURVE",
"1102 803 OFFCURVE",
"1081 777 OFFCURVE",
"1065 753 OFFCURVE",
"1062 747 QCURVE",
"1015 739 OFFCURVE",
"901 715 OFFCURVE",
"783 677 OFFCURVE",
"668 626 OFFCURVE",
"573 554 OFFCURVE",
"505 462 OFFCURVE",
"492 403 QCURVE SMOOTH",
"482 359 OFFCURVE",
"508 289 OFFCURVE",
"562 246 OFFCURVE",
"637 236 OFFCURVE",
"677 251 QCURVE SMOOTH",
"708 263 OFFCURVE",
"759 309 OFFCURVE",
"790 367 OFFCURVE",
"796 430 OFFCURVE",
"781 458 QCURVE SMOOTH",
"778 465 OFFCURVE",
"770 465 OFFCURVE",
"762 459 OFFCURVE",
"758 451 OFFCURVE",
"760 449 QCURVE SMOOTH",
"766 443 OFFCURVE",
"771 399 OFFCURVE",
"756 344 OFFCURVE",
"715 290 OFFCURVE",
"676 274 QCURVE SMOOTH",
"644 262 OFFCURVE",
"593 272 OFFCURVE",
"561 308 OFFCURVE",
"551 367 OFFCURVE",
"559 403 QCURVE SMOOTH",
"577 484 OFFCURVE",
"683 593 OFFCURVE",
"823 664 OFFCURVE",
"978 706 OFFCURVE",
"1046 721 QCURVE",
"1038 707 OFFCURVE",
"1006 647 OFFCURVE",
"965 562 OFFCURVE",
"918 457 OFFCURVE",
"896 398 QCURVE SMOOTH",
"882 362 OFFCURVE",
"837 268 OFFCURVE",
"773 166 OFFCURVE",
"690 64 OFFCURVE",
"586 -26 OFFCURVE",
"462 -96 OFFCURVE",
"389 -114 QCURVE SMOOTH",
"349 -124 OFFCURVE",
"256 -125 OFFCURVE",
"165 -105 OFFCURVE",
"85 -64 OFFCURVE",
"30 -2 OFFCURVE",
"8 84 OFFCURVE",
"21 138 QCURVE SMOOTH",
"29 169 OFFCURVE",
"59 223 OFFCURVE",
"94 265 OFFCURVE",
"129 293 OFFCURVE",
"142 299 QCURVE SMOOTH",
"149 303 OFFCURVE",
"157 314 OFFCURVE",
"141 313 QCURVE SMOOTH",
"129 312 OFFCURVE",
"90 290 OFFCURVE",
"50 253 OFFCURVE",
"13 207 OFFCURVE",
"4 182 QCURVE SMOOTH",
"-31 88 OFFCURVE",
"7 -51 OFFCURVE",
"123 -136 OFFCURVE",
"302 -164 OFFCURVE",
"408 -146 QCURVE SMOOTH",
"517 -128 OFFCURVE",
"720 -7 OFFCURVE",
"803 99 QCURVE SMOOTH",
"843 150 OFFCURVE",
"897 251 OFFCURVE",
"938 353 OFFCURVE",
"970 457 OFFCURVE",
"1004 562 OFFCURVE",
"1046 670 OFFCURVE",
"1077 726 QCURVE",
"1084 726 OFFCURVE",
"1110 735 OFFCURVE",
"1119 735 QCURVE",
"1133 740 OFFCURVE",
"1161 751 OFFCURVE",
"1183 768 OFFCURVE",
"1196 790 OFFCURVE",
"1196 805 QCURVE",
"1196 805 LINE"
);
},
{
closed = 1;
nodes = (
"1152 801 OFFCURVE",
"1161 790 OFFCURVE",
"1155 775 OFFCURVE",
"1127 758 OFFCURVE",
"1094 751 QCURVE",
"1100 758 OFFCURVE",
"1115 777 OFFCURVE",
"1131 793 OFFCURVE",
"1144 802 OFFCURVE",
"1148 801 QCURVE",
"1148 801 LINE"
);
}
);
width = 912;
}
);
note = I;
unicode = 0049;
},
{
glyphname = J;
layers = (
{
layerId = "8CCE14AF-3337-4F2C-A14C-E3F14A892F52";
paths = (
{
closed = 1;
nodes = (
"1270 794 OFFCURVE",
"1237 806 OFFCURVE",
"1214 800 QCURVE SMOOTH",
"1202 796 OFFCURVE",
"1176 775 OFFCURVE",
"1153 749 OFFCURVE",
"1136 726 OFFCURVE",
"1133 720 QCURVE",
"1087 714 OFFCURVE",
"974 690 OFFCURVE",
"857 651 OFFCURVE",
"743 597 OFFCURVE",
"650 523 OFFCURVE",
"586 430 OFFCURVE",
"577 372 QCURVE SMOOTH",
"570 328 OFFCURVE",
"595 258 OFFCURVE",
"646 216 OFFCURVE",
"718 204 OFFCURVE",
"758 218 QCURVE SMOOTH",
"789 229 OFFCURVE",
"842 274 OFFCURVE",
"875 331 OFFCURVE",
"884 394 OFFCURVE",
"872 423 QCURVE",
"866 430 OFFCURVE",
"853 433 OFFCURVE",
"846 428 OFFCURVE",
"845 419 OFFCURVE",
"851 415 QCURVE",
"857 409 OFFCURVE",
"859 364 OFFCURVE",
"842 309 OFFCURVE",
"799 256 OFFCURVE",
"759 242 QCURVE SMOOTH",
"727 230 OFFCURVE",
"680 240 OFFCURVE",
"650 275 OFFCURVE",
"639 331 OFFCURVE",
"644 366 QCURVE SMOOTH",
"652 414 OFFCURVE",
"706 497 OFFCURVE",
"784 566 OFFCURVE",
"879 620 OFFCURVE",
"979 661 OFFCURVE",
"1076 687 OFFCURVE",
"1116 694 QCURVE",
"1108 681 OFFCURVE",
"1075 626 OFFCURVE",
"1033 548 OFFCURVE",
"982 448 OFFCURVE",
"956 390 QCURVE SMOOTH",
"932 338 OFFCURVE",
"872 201 OFFCURVE",
"793 54 OFFCURVE",
"695 -93 OFFCURVE",
"574 -219 OFFCURVE",
"428 -313 OFFCURVE",
"340 -332 QCURVE SMOOTH",
"300 -341 OFFCURVE",
"206 -338 OFFCURVE",
"115 -316 OFFCURVE",
"35 -272 OFFCURVE",
"-19 -207 OFFCURVE",
"-38 -120 OFFCURVE",
"-22 -65 QCURVE SMOOTH",
"-13 -34 OFFCURVE",
"18 19 OFFCURVE",
"55 59 OFFCURVE",
"91 87 OFFCURVE",
"104 92 QCURVE SMOOTH",
"112 96 OFFCURVE",
"121 107 OFFCURVE",
"105 106 QCURVE SMOOTH",
"93 106 OFFCURVE",
"53 84 OFFCURVE",
"11 49 OFFCURVE",
"-27 3 OFFCURVE",
"-37 -21 QCURVE SMOOTH",
"-76 -115 OFFCURVE",
"-45 -256 OFFCURVE",
"68 -345 OFFCURVE",
"245 -379 OFFCURVE",
"352 -364 QCURVE SMOOTH",
"401 -357 OFFCURVE",
"524 -312 OFFCURVE",
"651 -235 OFFCURVE",
"769 -128 OFFCURVE",
"813 -60 QCURVE SMOOTH",
"880 44 OFFCURVE",
"964 245 OFFCURVE",
"1031 435 OFFCURVE",
"1097 615 OFFCURVE",
"1146 698 QCURVE",
"1153 698 OFFCURVE",
"1180 706 OFFCURVE",
"1189 706 QCURVE",
"1204 710 OFFCURVE",
"1232 721 OFFCURVE",
"1255 737 OFFCURVE",
"1270 759 OFFCURVE",
"1270 774 QCURVE",
"1270 774 LINE"
);
},
{
closed = 1;
nodes = (
"1226 771 OFFCURVE",
"1234 760 OFFCURVE",
"1227 745 OFFCURVE",
"1197 729 OFFCURVE",
"1164 723 QCURVE",
"1170 730 OFFCURVE",
"1187 748 OFFCURVE",
"1203 763 OFFCURVE",
"1218 773 OFFCURVE",
"1222 771 QCURVE",
"1222 771 LINE"
);
}
);
width = 966;
}
);
note = J;
unicode = 004A;
},
{
glyphname = K;
layers = (
{
layerId = "8CCE14AF-3337-4F2C-A14C-E3F14A892F52";
paths = (
{
closed = 1;
nodes = (
"1627 826 OFFCURVE",
"1628 843 OFFCURVE",
"1619 849 OFFCURVE",
"1605 842 OFFCURVE",
"1596 829 QCURVE SMOOTH",
"1544 749 OFFCURVE",
"1410 606 OFFCURVE",
"1267 482 OFFCURVE",
"1124 384 OFFCURVE",
"1003 314 OFFCURVE",
"914 279 OFFCURVE",
"896 280 QCURVE",
"889 277 OFFCURVE",
"887 225 OFFCURVE",
"898 145 OFFCURVE",
"924 49 OFFCURVE",
"945 3 QCURVE SMOOTH",
"963 -36 OFFCURVE",
"1012 -105 OFFCURVE",
"1074 -155 OFFCURVE",
"1147 -184 OFFCURVE",
"1188 -184 QCURVE SMOOTH",
"1220 -184 OFFCURVE",
"1288 -161 OFFCURVE",
"1350 -122 OFFCURVE",
"1399 -71 OFFCURVE",
"1413 -44 QCURVE SMOOTH",
"1418 -34 OFFCURVE",
"1418 -23 OFFCURVE",
"1412 -21 OFFCURVE",
"1403 -29 OFFCURVE",
"1400 -36 QCURVE SMOOTH",
"1386 -63 OFFCURVE",
"1340 -103 OFFCURVE",
"1284 -128 OFFCURVE",
"1222 -141 OFFCURVE",
"1193 -141 QCURVE SMOOTH",
"1134 -141 OFFCURVE",
"1046 -58 OFFCURVE",
"1014 15 QCURVE SMOOTH",
"995 58 OFFCURVE",
"968 146 OFFCURVE",
"953 217 OFFCURVE",
"949 261 OFFCURVE",
"954 259 QCURVE",
"997 270 OFFCURVE",
"1107 324 OFFCURVE",
"1229 404 OFFCURVE",
"1356 505 OFFCURVE",
"1475 621 OFFCURVE",
"1581 749 OFFCURVE",
"1621 816 QCURVE",
"1621 816 LINE"
);
},
{
closed = 1;
nodes = (
"1097 796 OFFCURVE",
"1072 774 OFFCURVE",
"1050 748 OFFCURVE",
"1035 724 OFFCURVE",
"1032 720 QCURVE",
"999 717 OFFCURVE",
"923 712 OFFCURVE",
"841 706 OFFCURVE",
"757 695 OFFCURVE",
"716 686 QCURVE SMOOTH",
"614 663 OFFCURVE",
"494 574 OFFCURVE",
"442 470 OFFCURVE",
"451 367 OFFCURVE",
"505 293 OFFCURVE",
"596 261 OFFCURVE",
"652 282 QCURVE SMOOTH",
"679 292 OFFCURVE",
"723 336 OFFCURVE",
"750 393 OFFCURVE",
"756 454 OFFCURVE",
"746 480 QCURVE SMOOTH",
"741 491 OFFCURVE",
"726 495 OFFCURVE",
"728 487 QCURVE SMOOTH",
"732 463 OFFCURVE",
"727 406 OFFCURVE",
"706 352 OFFCURVE",
"670 309 OFFCURVE",
"645 300 QCURVE SMOOTH",
"598 283 OFFCURVE",
"534 312 OFFCURVE",
"503 377 OFFCURVE",
"509 467 OFFCURVE",
"559 558 OFFCURVE",
"654 635 OFFCURVE",
"728 656 QCURVE SMOOTH",
"763 666 OFFCURVE",
"837 678 OFFCURVE",
"912 686 OFFCURVE",
"985 692 OFFCURVE",
"1018 696 QCURVE",
"1009 679 OFFCURVE",
"983 623 OFFCURVE",
"952 556 OFFCURVE",
"920 486 OFFCURVE",
"892 424 OFFCURVE",
"871 376 OFFCURVE",
"866 365 QCURVE SMOOTH",
"837 301 OFFCURVE",
"758 154 OFFCURVE",
"642 20 OFFCURVE",
"484 -87 OFFCURVE",
"377 -111 QCURVE SMOOTH",
"342 -119 OFFCURVE",
"259 -118 OFFCURVE",
"176 -98 OFFCURVE",
"101 -59 OFFCURVE",
"46 2 OFFCURVE",
"19 86 OFFCURVE",
"26 140 QCURVE SMOOTH",
"30 174 OFFCURVE",
"58 227 OFFCURVE",
"90 265 OFFCURVE",
"119 288 OFFCURVE",
"126 291 QCURVE SMOOTH",
"132 294 OFFCURVE",
"131 307 OFFCURVE",
"119 305 QCURVE SMOOTH",
"109 304 OFFCURVE",
"76 286 OFFCURVE",
"42 255 OFFCURVE",
"11 212 OFFCURVE",
"4 185 QCURVE SMOOTH",
"-12 122 OFFCURVE",
"5 17 OFFCURVE",
"58 -67 OFFCURVE",
"143 -127 OFFCURVE",
"245 -164 OFFCURVE",
"359 -174 OFFCURVE",
"416 -166 QCURVE SMOOTH",
"529 -149 OFFCURVE",
"690 -46 OFFCURVE",
"805 101 OFFCURVE",
"885 278 OFFCURVE",
"950 459 OFFCURVE",
"1010 630 OFFCURVE",
"1048 698 QCURVE",
"1108 704 OFFCURVE",
"1164 744 OFFCURVE",
"1170 783 OFFCURVE",
"1137 808 OFFCURVE",
"1109 800 QCURVE",
"1109 800 LINE"
);
},
{
closed = 1;
nodes = (
"1095 727 OFFCURVE",
"1066 723 QCURVE",
"1074 732 OFFCURVE",
"1095 757 OFFCURVE",
"1105 765 QCURVE SMOOTH",
"1117 775 OFFCURVE",
"1134 774 OFFCURVE",
"1138 762 OFFCURVE",
"1126 743 OFFCURVE",
"1110 735 QCURVE",
"1110 735 LINE"
);
}
);
userData = {
assembly = "SVTCA[0]\011/* SetFreedomAndProjectionVectorToAxis */
PUSHW[ ]\011/* 4 values pushed */
15 2 30 4 
CALL[ ]\011/* CallFunction */
IUP[0]\011/* InterpolateUntPts */
IUP[1]\011/* InterpolateUntPts */";
};
width = 1144;
}
);
note = K;
unicode = 004B;
},
{
glyphname = L;
layers = (
{
layerId = "8CCE14AF-3337-4F2C-A14C-E3F14A892F52";
paths = (
{
closed = 1;
nodes = (
"955 806 OFFCURVE",
"922 845 OFFCURVE",
"868 861 OFFCURVE",
"798 845 OFFCURVE",
"719 780 OFFCURVE",
"636 657 OFFCURVE",
"597 559 QCURVE SMOOTH",
"577 506 OFFCURVE",
"559 462 QCURVE SMOOTH",
"544 424 OFFCURVE",
"517 355 OFFCURVE",
"512 345 QCURVE",
"432 335 OFFCURVE",
"334 375 OFFCURVE",
"289 446 OFFCURVE",
"292 535 OFFCURVE",
"335 617 OFFCURVE",
"413 677 OFFCURVE",
"464 683 QCURVE SMOOTH",
"480 685 OFFCURVE",
"496 694 OFFCURVE",
"495 701 OFFCURVE",
"478 704 OFFCURVE",
"462 700 QCURVE SMOOTH",
"376 680 OFFCURVE",
"275 608 OFFCURVE",
"235 522 OFFCURVE",
"252 433 OFFCURVE",
"317 361 OFFCURVE",
"426 318 OFFCURVE",
"498 320 QCURVE",
"471 264 OFFCURVE",
"422 172 OFFCURVE",
"393 127 QCURVE",
"366 132 OFFCURVE",
"300 136 OFFCURVE",
"233 133 OFFCURVE",
"169 124 OFFCURVE",
"142 116 QCURVE SMOOTH",
"75 96 OFFCURVE",
"6 35 OFFCURVE",
"-11 -27 OFFCURVE",
"19 -83 OFFCURVE",
"82 -116 OFFCURVE",
"172 -115 OFFCURVE",
"224 -90 QCURVE SMOOTH",
"273 -67 OFFCURVE",
"362 18 OFFCURVE",
"401 73 QCURVE",
"449 64 OFFCURVE",
"546 42 OFFCURVE",
"640 10 OFFCURVE",
"727 -35 OFFCURVE",
"763 -67 QCURVE SMOOTH",
"788 -89 OFFCURVE",
"815 -146 OFFCURVE",
"823 -201 OFFCURVE",
"818 -249 OFFCURVE",
"812 -262 QCURVE SMOOTH",
"809 -268 OFFCURVE",
"800 -286 OFFCURVE",
"799 -298 OFFCURVE",
"809 -301 OFFCURVE",
"825 -292 QCURVE SMOOTH",
"839 -285 OFFCURVE",
"850 -265 QCURVE SMOOTH",
"859 -249 OFFCURVE",
"860 -193 OFFCURVE",
"839 -127 OFFCURVE",
"795 -59 OFFCURVE",
"759 -31 QCURVE SMOOTH",
"724 -4 OFFCURVE",
"640 43 OFFCURVE",
"553 80 OFFCURVE",
"468 109 OFFCURVE",
"431 118 QCURVE",
"436 127 OFFCURVE",
"447 143 OFFCURVE",
"452 152 QCURVE SMOOTH",
"479 200 OFFCURVE",
"518 280 OFFCURVE",
"540 324 QCURVE",
"593 333 OFFCURVE",
"699 380 OFFCURVE",
"795 448 OFFCURVE",
"876 534 OFFCURVE",
"933 630 OFFCURVE",
"961 733 OFFCURVE",
"957 783 QCURVE",
"957 783 LINE"
);
},
{
closed = 1;
nodes = (
"916 692 OFFCURVE",
"854 557 OFFCURVE",
"752 446 OFFCURVE",
"621 366 OFFCURVE",
"554 351 QCURVE",
"569 383 OFFCURVE",
"600 445 OFFCURVE",
"613 470 QCURVE SMOOTH",
"628 499 OFFCURVE",
"642 525 QCURVE SMOOTH",
"700 639 OFFCURVE",
"800 760 OFFCURVE",
"873 804 OFFCURVE",
"916 786 OFFCURVE",
"916 761 QCURVE",
"916 761 LINE"
);
},
{
closed = 1;
nodes = (
"291 -22 OFFCURVE",
"208 -62 QCURVE SMOOTH",
"162 -84 OFFCURVE",
"85 -89 OFFCURVE",
"33 -69 OFFCURVE",
"11 -30 OFFCURVE",
"29 15 OFFCURVE",
"94 60 OFFCURVE",
"154 75 QCURVE SMOOTH",
"203 88 OFFCURVE",
"312 90 OFFCURVE",
"362 79 QCURVE",
"362 79 LINE"
);
}
);
userData = {
assembly = "PUSHW[ ]\011/* 4 values pushed */
0 3 89 4 
CALL[ ]\011/* CallFunction */
NPUSHW[ ]\011/* 5 values pushed */
10 89 26 89 2 
DELTAP2[ ]\011/* DeltaExceptionP2 */
NPUSHW[ ]\011/* 33 values pushed */
9 89 25 89 41 89 57 89 73 89 89 89 105 89 121 89 137 89 153 89 169 89 185 89 201 89 217 89 233 89 249 89 16 
DELTAP1[ ]\011/* DeltaExceptionP1 */
IUP[0]\011/* InterpolateUntPts */
IUP[1]\011/* InterpolateUntPts */";
};
width = 712;
}
);
note = L;
unicode = 004C;
},
{
glyphname = M;
layers = (
{
layerId = "8CCE14AF-3337-4F2C-A14C-E3F14A892F52";
paths = (
{
closed = 1;
nodes = (
"1316 -101 OFFCURVE",
"1264 -41 OFFCURVE",
"1259 58 OFFCURVE",
"1289 185 OFFCURVE",
"1337 314 OFFCURVE",
"1392 435 OFFCURVE",
"1414 478 QCURVE SMOOTH",
"1443 535 OFFCURVE",
"1458 621 OFFCURVE",
"1437 671 OFFCURVE",
"1384 680 OFFCURVE",
"1306 644 OFFCURVE",
"1206 556 OFFCURVE",
"1148 484 QCURVE SMOOTH",
"1117 446 OFFCURVE",
"1059 369 OFFCURVE",
"1008 298 OFFCURVE",
"965 236 OFFCURVE",
"950 212 QCURVE",
"981 306 OFFCURVE",
"1039 490 OFFCURVE",
"1048 586 QCURVE SMOOTH",
"1054 650 OFFCURVE",
"1007 703 OFFCURVE",
"933 703 OFFCURVE",
"851 658 OFFCURVE",
"822 623 QCURVE SMOOTH",
"795 591 OFFCURVE",
"754 537 OFFCURVE",
"717 482 OFFCURVE",
"681 420 OFFCURVE",
"659 381 QCURVE SMOOTH",
"646 357 OFFCURVE",
"636 363 OFFCURVE",
"646 392 QCURVE SMOOTH",
"665 442 OFFCURVE",
"693 543 OFFCURVE",
"698 591 QCURVE SMOOTH",
"705 666 OFFCURVE",
"668 761 OFFCURVE",
"596 809 OFFCURVE",
"496 814 OFFCURVE",
"383 783 OFFCURVE",
"266 719 OFFCURVE",
"160 629 OFFCURVE",
"72 518 OFFCURVE",
"45 455 QCURVE SMOOTH",
"20 395 OFFCURVE",
"15 293 OFFCURVE",
"43 211 OFFCURVE",
"98 151 OFFCURVE",
"167 119 OFFCURVE",
"245 116 OFFCURVE",
"282 131 QCURVE SMOOTH",
"336 153 OFFCURVE",
"412 221 OFFCURVE",
"455 295 OFFCURVE",
"466 368 OFFCURVE",
"446 423 OFFCURVE",
"394 453 OFFCURVE",
"352 447 QCURVE SMOOTH",
"334 445 OFFCURVE",
"323 437 OFFCURVE",
"327 430 OFFCURVE",
"340 425 OFFCURVE",
"347 426 QCURVE SMOOTH",
"387 431 OFFCURVE",
"426 401 OFFCURVE",
"433 348 OFFCURVE",
"412 280 OFFCURVE",
"371 215 OFFCURVE",
"315 162 OFFCURVE",
"283 150 QCURVE SMOOTH",
"233 132 OFFCURVE",
"140 154 OFFCURVE",
"79 230 OFFCURVE",
"66 358 OFFCURVE",
"98 445 QCURVE SMOOTH",
"116 495 OFFCURVE",
"187 593 OFFCURVE",
"276 679 OFFCURVE",
"377 748 OFFCURVE",
"475 788 OFFCURVE",
"562 794 OFFCURVE",
"623 756 OFFCURVE",
"650 668 OFFCURVE",
"640 593 QCURVE SMOOTH",
"634 552 OFFCURVE",
"605 445 OFFCURVE",
"565 326 OFFCURVE",
"517 202 OFFCURVE",
"467 88 OFFCURVE",
"417 -9 OFFCURVE",
"396 -42 QCURVE",
"392 -54 OFFCURVE",
"412 -66 OFFCURVE",
"442 -64 OFFCURVE",
"472 -50 OFFCURVE",
"478 -36 QCURVE SMOOTH",
"512 40 OFFCURVE",
"568 164 OFFCURVE",
"619 271 OFFCURVE",
"670 364 OFFCURVE",
"727 456 OFFCURVE",
"795 551 OFFCURVE",
"839 605 QCURVE SMOOTH",
"869 642 OFFCURVE",
"927 680 OFFCURVE",
"970 677 OFFCURVE",
"993 629 OFFCURVE",
"987 581 QCURVE SMOOTH",
"972 457 OFFCURVE",
"911 254 OFFCURVE",
"846 104 OFFCURVE",
"794 12 OFFCURVE",
"788 0 QCURVE SMOOTH",
"781 -11 OFFCURVE",
"797 -32 OFFCURVE",
"827 -36 OFFCURVE",
"865 -13 OFFCURVE",
"879 20 QCURVE SMOOTH",
"888 42 OFFCURVE",
"926 111 OFFCURVE",
"975 193 OFFCURVE",
"1031 281 OFFCURVE",
"1085 362 OFFCURVE",
"1132 429 OFFCURVE",
"1148 448 QCURVE SMOOTH",
"1215 532 OFFCURVE",
"1321 621 OFFCURVE",
"1381 633 OFFCURVE",
"1389 568 OFFCURVE",
"1359 499 QCURVE SMOOTH",
"1335 443 OFFCURVE",
"1283 331 OFFCURVE",
"1238 223 OFFCURVE",
"1205 121 OFFCURVE",
"1201 76 QCURVE SMOOTH",
"1195 13 OFFCURVE",
"1231 -61 OFFCURVE",
"1285 -100 OFFCURVE",
"1343 -113 OFFCURVE",
"1358 -114 QCURVE SMOOTH",
"1373 -116 OFFCURVE",
"1392 -110 OFFCURVE",
"1398 -103 OFFCURVE",
"1388 -97 OFFCURVE",
"1374 -98 QCURVE",
"1374 -98 LINE"
);
}
);
width = 1329;
}
);
note = M;
unicode = 004D;
},
{
glyphname = N;
layers = (
{
layerId = "8CCE14AF-3337-4F2C-A14C-E3F14A892F52";
paths = (
{
closed = 1;
nodes = (
"1189 709 OFFCURVE",
"1151 753 OFFCURVE",
"1091 766 OFFCURVE",
"1017 752 OFFCURVE",
"982 736 QCURVE SMOOTH",
"953 723 OFFCURVE",
"893 680 OFFCURVE",
"833 626 OFFCURVE",
"773 562 OFFCURVE",
"745 528 QCURVE SMOOTH",
"707 483 OFFCURVE",
"640 390 OFFCURVE",
"613 348 QCURVE SMOOTH",
"606 337 OFFCURVE",
"588 306 OFFCURVE",
"580 294 OFFCURVE",
"588 317 OFFCURVE",
"608 359 QCURVE SMOOTH",
"634 416 OFFCURVE",
"684 534 OFFCURVE",
"691 592 QCURVE SMOOTH",
"698 653 OFFCURVE",
"669 735 OFFCURVE",
"610 781 OFFCURVE",
"528 796 OFFCURVE",
"436 786 OFFCURVE",
"342 756 OFFCURVE",
"301 733 QCURVE SMOOTH",
"258 709 OFFCURVE",
"175 649 OFFCURVE",
"103 577 OFFCURVE",
"45 497 OFFCURVE",
"27 454 QCURVE SMOOTH",
"-5 377 OFFCURVE",
"-1 255 OFFCURVE",
"48 168 OFFCURVE",
"130 122 OFFCURVE",
"178 122 QCURVE SMOOTH",
"244 122 OFFCURVE",
"352 177 OFFCURVE",
"427 258 OFFCURVE",
"464 349 OFFCURVE",
"455 420 OFFCURVE",
"395 456 OFFCURVE",
"336 442 QCURVE SMOOTH",
"332 441 OFFCURVE",
"326 435 OFFCURVE",
"325 429 OFFCURVE",
"330 425 OFFCURVE",
"338 426 QCURVE SMOOTH",
"382 432 OFFCURVE",
"423 394 OFFCURVE",
"423 331 OFFCURVE",
"387 254 OFFCURVE",
"322 186 OFFCURVE",
"233 141 OFFCURVE",
"181 141 QCURVE SMOOTH",
"131 141 OFFCURVE",
"71 197 OFFCURVE",
"51 288 OFFCURVE",
"72 405 OFFCURVE",
"134 527 OFFCURVE",
"238 644 OFFCURVE",
"312 690 QCURVE SMOOTH",
"355 717 OFFCURVE",
"443 754 OFFCURVE",
"522 768 OFFCURVE",
"588 754 OFFCURVE",
"629 706 OFFCURVE",
"641 620 OFFCURVE",
"626 554 QCURVE SMOOTH",
"614 501 OFFCURVE",
"574 381 OFFCURVE",
"526 261 OFFCURVE",
"474 146 OFFCURVE",
"426 49 OFFCURVE",
"385 -24 OFFCURVE",
"373 -42 QCURVE",
"370 -54 OFFCURVE",
"390 -65 OFFCURVE",
"420 -64 OFFCURVE",
"450 -50 OFFCURVE",
"456 -36 QCURVE SMOOTH",
"480 15 OFFCURVE",
"543 151 OFFCURVE",
"621 299 OFFCURVE",
"712 448 OFFCURVE",
"765 512 QCURVE SMOOTH",
"819 576 OFFCURVE",
"931 668 OFFCURVE",
"987 694 QCURVE SMOOTH",
"1013 707 OFFCURVE",
"1061 718 OFFCURVE",
"1096 711 OFFCURVE",
"1113 683 OFFCURVE",
"1109 657 QCURVE SMOOTH",
"1105 631 OFFCURVE",
"1072 545 OFFCURVE",
"1026 442 OFFCURVE",
"972 329 OFFCURVE",
"922 226 OFFCURVE",
"883 139 OFFCURVE",
"874 113 QCURVE SMOOTH",
"833 -9 OFFCURVE",
"893 -141 OFFCURVE",
"996 -146 QCURVE SMOOTH",
"1023 -147 OFFCURVE",
"1056 -127 OFFCURVE",
"1064 -106 OFFCURVE",
"1044 -96 OFFCURVE",
"1018 -108 QCURVE SMOOTH",
"975 -128 OFFCURVE",
"920 -105 OFFCURVE",
"903 -31 OFFCURVE",
"926 86 OFFCURVE",
"960 161 QCURVE SMOOTH",
"997 242 OFFCURVE",
"1077 387 OFFCURVE",
"1144 515 OFFCURVE",
"1187 623 OFFCURVE",
"1188 668 QCURVE",
"1188 668 LINE"
);
}
);
width = 1039;
}
);
note = N;
unicode = 004E;
},
{
glyphname = O;
layers = (
{
layerId = "8CCE14AF-3337-4F2C-A14C-E3F14A892F52";
paths = (
{
closed = 1;
nodes = (
"910 556 OFFCURVE",
"908 566 OFFCURVE",
"901 568 OFFCURVE",
"892 563 OFFCURVE",
"889 558 QCURVE SMOOTH",
"870 521 OFFCURVE",
"800 459 OFFCURVE",
"759 432 QCURVE",
"763 525 OFFCURVE",
"703 657 OFFCURVE",
"600 740 OFFCURVE",
"467 777 OFFCURVE",
"329 771 OFFCURVE",
"198 725 OFFCURVE",
"98 644 OFFCURVE",
"44 529 OFFCURVE",
"51 457 QCURVE SMOOTH",
"55 415 OFFCURVE",
"96 353 OFFCURVE",
"128 331 QCURVE",
"102 266 OFFCURVE",
"96 141 OFFCURVE",
"126 39 OFFCURVE",
"188 -34 OFFCURVE",
"231 -48 QCURVE SMOOTH",
"284 -65 OFFCURVE",
"391 -55 OFFCURVE",
"492 -11 OFFCURVE",
"584 60 OFFCURVE",
"660 146 OFFCURVE",
"717 243 OFFCURVE",
"732 290 QCURVE SMOOTH",
"741 319 OFFCURVE",
"753 371 OFFCURVE",
"755 397 QCURVE",
"803 427 OFFCURVE",
"876 503 OFFCURVE",
"904 547 QCURVE",
"904 547 LINE"
);
},
{
closed = 1;
nodes = (
"637 367 OFFCURVE",
"498 323 OFFCURVE",
"363 305 OFFCURVE",
"241 316 OFFCURVE",
"197 338 QCURVE",
"207 361 OFFCURVE",
"246 428 OFFCURVE",
"297 498 OFFCURVE",
"358 564 OFFCURVE",
"423 612 OFFCURVE",
"490 634 OFFCURVE",
"521 624 QCURVE SMOOTH",
"531 621 OFFCURVE",
"540 632 OFFCURVE",
"529 638 QCURVE SMOOTH",
"491 659 OFFCURVE",
"413 652 OFFCURVE",
"337 613 OFFCURVE",
"266 548 OFFCURVE",
"206 475 OFFCURVE",
"160 401 OFFCURVE",
"146 372 QCURVE",
"112 401 OFFCURVE",
"106 448 QCURVE SMOOTH",
"96 515 OFFCURVE",
"140 625 OFFCURVE",
"225 705 OFFCURVE",
"340 752 OFFCURVE",
"460 759 OFFCURVE",
"575 723 OFFCURVE",
"661 638 OFFCURVE",
"707 499 OFFCURVE",
"698 400 QCURVE",
"698 400 LINE"
);
},
{
closed = 1;
nodes = (
"690 348 OFFCURVE",
"680 311 OFFCURVE",
"674 294 QCURVE SMOOTH",
"657 245 OFFCURVE",
"602 149 OFFCURVE",
"534 66 OFFCURVE",
"454 1 OFFCURVE",
"367 -36 OFFCURVE",
"278 -38 OFFCURVE",
"234 -16 QCURVE SMOOTH",
"198 2 OFFCURVE",
"159 71 OFFCURVE",
"148 158 OFFCURVE",
"164 256 OFFCURVE",
"182 303 QCURVE",
"231 283 OFFCURVE",
"357 273 OFFCURVE",
"492 289 OFFCURVE",
"630 332 OFFCURVE",
"692 365 QCURVE",
"692 365 LINE"
);
}
);
width = 726;
}
);
note = O;
unicode = 004F;
},
{
glyphname = P;
layers = (
{
layerId = "8CCE14AF-3337-4F2C-A14C-E3F14A892F52";
paths = (
{
closed = 1;
nodes = (
"912 736 OFFCURVE",
"848 753 QCURVE",
"861 766 OFFCURVE",
"885 785 OFFCURVE",
"893 790 QCURVE SMOOTH",
"911 801 OFFCURVE",
"907 815 OFFCURVE",
"883 805 QCURVE SMOOTH",
"860 797 OFFCURVE",
"825 776 OFFCURVE",
"808 763 QCURVE",
"719 781 OFFCURVE",
"532 776 OFFCURVE",
"448 764 QCURVE SMOOTH",
"412 759 OFFCURVE",
"326 739 OFFCURVE",
"237 708 OFFCURVE",
"153 665 OFFCURVE",
"86 607 OFFCURVE",
"44 535 OFFCURVE",
"42 490 QCURVE SMOOTH",
"40 452 OFFCURVE",
"64 395 OFFCURVE",
"105 356 OFFCURVE",
"160 336 OFFCURVE",
"190 335 QCURVE SMOOTH",
"219 334 OFFCURVE",
"278 352 OFFCURVE",
"326 388 OFFCURVE",
"356 441 OFFCURVE",
"356 475 QCURVE SMOOTH",
"356 486 OFFCURVE",
"344 487 OFFCURVE",
"342 476 QCURVE",
"333 451 OFFCURVE",
"302 406 OFFCURVE",
"262 373 OFFCURVE",
"216 354 OFFCURVE",
"192 355 QCURVE SMOOTH",
"169 356 OFFCURVE",
"130 376 OFFCURVE",
"103 410 OFFCURVE",
"90 456 OFFCURVE",
"94 482 QCURVE SMOOTH",
"103 538 OFFCURVE",
"182 623 OFFCURVE",
"288 684 OFFCURVE",
"405 722 OFFCURVE",
"452 731 QCURVE SMOOTH",
"483 737 OFFCURVE",
"562 745 OFFCURVE",
"648 748 OFFCURVE",
"738 744 OFFCURVE",
"781 738 QCURVE",
"767 725 OFFCURVE",
"742 697 OFFCURVE",
"728 682 QCURVE SMOOTH",
"664 610 OFFCURVE",
"567 446 OFFCURVE",
"482 286 OFFCURVE",
"400 144 OFFCURVE",
"351 96 QCURVE SMOOTH",
"300 47 OFFCURVE",
"188 -11 OFFCURVE",
"121 -8 QCURVE SMOOTH",
"86 -6 OFFCURVE",
"47 24 OFFCURVE",
"34 66 OFFCURVE",
"47 110 OFFCURVE",
"84 140 OFFCURVE",
"143 148 OFFCURVE",
"183 133 QCURVE SMOOTH",
"196 128 OFFCURVE",
"202 140 OFFCURVE",
"186 146 QCURVE SMOOTH",
"129 165 OFFCURVE",
"44 156 OFFCURVE",
"-10 120 OFFCURVE",
"-30 65 OFFCURVE",
"-13 12 OFFCURVE",
"45 -30 OFFCURVE",
"96 -36 QCURVE SMOOTH",
"177 -46 OFFCURVE",
"326 7 OFFCURVE",
"390 67 QCURVE SMOOTH",
"433 109 OFFCURVE",
"507 200 OFFCURVE",
"540 249 QCURVE",
"580 246 OFFCURVE",
"702 258 OFFCURVE",
"764 273 QCURVE SMOOTH",
"813 285 OFFCURVE",
"917 338 OFFCURVE",
"1003 408 OFFCURVE",
"1062 493 OFFCURVE",
"1074 581 OFFCURVE",
"1027 668 OFFCURVE",
"964 705 QCURVE",
"964 705 LINE"
);
},
{
closed = 1;
nodes = (
"980 658 OFFCURVE",
"1010 589 OFFCURVE",
"1000 514 OFFCURVE",
"954 438 OFFCURVE",
"881 369 OFFCURVE",
"786 313 OFFCURVE",
"732 297 QCURVE SMOOTH",
"684 283 OFFCURVE",
"592 268 OFFCURVE",
"554 270 QCURVE",
"590 326 OFFCURVE",
"657 443 OFFCURVE",
"723 560 OFFCURVE",
"791 675 OFFCURVE",
"829 729 QCURVE",
"861 721 OFFCURVE",
"918 699 OFFCURVE",
"941 684 QCURVE",
"941 684 LINE"
);
}
);
userData = {
assembly = "SVTCA[0]\011/* SetFreedomAndProjectionVectorToAxis */
PUSHW[ ]\011/* 1 value pushed */
10 
MDAP[1]\011/* MoveDirectAbsPt */
PUSHW[ ]\011/* 1 value pushed */
59 
MDAP[1]\011/* MoveDirectAbsPt */
PUSHW[ ]\011/* 3 values pushed */
106 10 59 
SRP1[ ]\011/* SetRefPoint1 */
SRP2[ ]\011/* SetRefPoint2 */
IP[ ]\011/* InterpolatePts */
IUP[0]\011/* InterpolateUntPts */
IUP[1]\011/* InterpolateUntPts */";
};
width = 890;
}
);
note = P;
unicode = 0050;
},
{
glyphname = Q;
layers = (
{
layerId = "8CCE14AF-3337-4F2C-A14C-E3F14A892F52";
paths = (
{
closed = 1;
nodes = (
"480 666 OFFCURVE",
"365 642 OFFCURVE",
"255 561 OFFCURVE",
"161 437 OFFCURVE",
"102 292 OFFCURVE",
"90 138 OFFCURVE",
"118 69 QCURVE SMOOTH",
"143 6 OFFCURVE",
"233 -56 OFFCURVE",
"341 -67 OFFCURVE",
"456 -34 OFFCURVE",
"505 -2 QCURVE SMOOTH",
"574 43 OFFCURVE",
"679 167 OFFCURVE",
"747 305 OFFCURVE",
"775 449 OFFCURVE",
"760 582 OFFCURVE",
"698 694 OFFCURVE",
"587 768 OFFCURVE",
"423 795 OFFCURVE",
"312 776 QCURVE SMOOTH",
"249 765 OFFCURVE",
"149 703 OFFCURVE",
"89 613 OFFCURVE",
"79 504 OFFCURVE",
"107 447 QCURVE SMOOTH",
"117 427 OFFCURVE",
"135 436 OFFCURVE",
"131 453 QCURVE SMOOTH",
"117 511 OFFCURVE",
"127 614 OFFCURVE",
"174 694 OFFCURVE",
"257 746 OFFCURVE",
"316 754 QCURVE SMOOTH",
"426 768 OFFCURVE",
"589 710 OFFCURVE",
"689 594 OFFCURVE",
"725 435 OFFCURVE",
"693 265 OFFCURVE",
"591 98 OFFCURVE",
"503 32 QCURVE SMOOTH",
"453 -6 OFFCURVE",
"347 -46 OFFCURVE",
"253 -39 OFFCURVE",
"179 19 OFFCURVE",
"161 81 QCURVE SMOOTH",
"145 137 OFFCURVE",
"165 267 OFFCURVE",
"219 396 OFFCURVE",
"299 512 OFFCURVE",
"389 596 OFFCURVE",
"482 636 OFFCURVE",
"521 624 QCURVE SMOOTH",
"531 621 OFFCURVE",
"540 632 OFFCURVE",
"529 638 QCURVE",
"529 638 LINE"
);
},
{
closed = 1;
nodes = (
"729 -369 OFFCURVE",
"808 -335 OFFCURVE",
"842 -284 OFFCURVE",
"833 -221 OFFCURVE",
"786 -163 OFFCURVE",
"702 -117 OFFCURVE",
"644 -108 QCURVE SMOOTH",
"637 -107 OFFCURVE",
"630 -112 OFFCURVE",
"631 -119 OFFCURVE",
"639 -126 OFFCURVE",
"647 -127 QCURVE SMOOTH",
"695 -135 OFFCURVE",
"765 -178 OFFCURVE",
"805 -232 OFFCURVE",
"813 -289 OFFCURVE",
"785 -331 OFFCURVE",
"719 -350 OFFCURVE",
"665 -339 QCURVE SMOOTH",
"590 -325 OFFCURVE",
"474 -272 OFFCURVE",
"381 -210 OFFCURVE",
"304 -146 OFFCURVE",
"231 -94 OFFCURVE",
"155 -61 OFFCURVE",
"111 -61 QCURVE SMOOTH",
"94 -61 OFFCURVE",
"65 -76 OFFCURVE",
"43 -97 OFFCURVE",
"30 -122 OFFCURVE",
"29 -132 QCURVE SMOOTH",
"28 -147 OFFCURVE",
"43 -153 OFFCURVE",
"45 -138 QCURVE SMOOTH",
"46 -127 OFFCURVE",
"60 -110 OFFCURVE",
"79 -98 OFFCURVE",
"102 -91 OFFCURVE",
"111 -91 QCURVE SMOOTH",
"150 -91 OFFCURVE",
"214 -132 OFFCURVE",
"278 -194 OFFCURVE",
"351 -266 OFFCURVE",
"448 -328 OFFCURVE",
"577 -369 OFFCURVE",
"665 -369 QCURVE",
"665 -369 LINE"
);
}
);
userData = {
assembly = "SVTCA[0]\011/* SetFreedomAndProjectionVectorToAxis */
PUSHW[ ]\011/* 4 values pushed */
76 2 63 4 
CALL[ ]\011/* CallFunction */
IUP[0]\011/* InterpolateUntPts */
IUP[1]\011/* InterpolateUntPts */";
};
width = 752;
}
);
note = Q;
unicode = 0051;
},
{
glyphname = R;
layers = (
{
layerId = "8CCE14AF-3337-4F2C-A14C-E3F14A892F52";
paths = (
{
closed = 1;
nodes = (
"1103 203 OFFCURVE",
"1086 200 OFFCURVE",
"1079 187 QCURVE SMOOTH",
"1075 179 OFFCURVE",
"1057 144 OFFCURVE",
"1032 101 OFFCURVE",
"1001 56 OFFCURVE",
"983 38 QCURVE SMOOTH",
"956 11 OFFCURVE",
"910 -4 OFFCURVE",
"868 11 OFFCURVE",
"830 50 OFFCURVE",
"811 79 QCURVE SMOOTH",
"783 122 OFFCURVE",
"743 218 OFFCURVE",
"716 303 OFFCURVE",
"702 366 OFFCURVE",
"700 377 QCURVE",
"717 378 OFFCURVE",
"763 381 OFFCURVE",
"792 386 QCURVE SMOOTH",
"871 399 OFFCURVE",
"996 450 OFFCURVE",
"1079 514 OFFCURVE",
"1116 587 OFFCURVE",
"1101 655 OFFCURVE",
"1029 715 OFFCURVE",
"961 735 QCURVE SMOOTH",
"938 741 OFFCURVE",
"889 749 OFFCURVE",
"862 754 QCURVE",
"866 766 OFFCURVE",
"867 783 OFFCURVE",
"860 788 OFFCURVE",
"841 777 OFFCURVE",
"825 759 QCURVE",
"737 771 OFFCURVE",
"549 769 OFFCURVE",
"444 754 QCURVE SMOOTH",
"361 742 OFFCURVE",
"234 688 OFFCURVE",
"146 616 OFFCURVE",
"99 534 OFFCURVE",
"95 494 QCURVE SMOOTH",
"91 452 OFFCURVE",
"116 388 OFFCURVE",
"161 347 OFFCURVE",
"221 327 OFFCURVE",
"286 331 OFFCURVE",
"349 359 OFFCURVE",
"374 386 QCURVE SMOOTH",
"406 419 OFFCURVE",
"413 467 QCURVE",
"413 471 OFFCURVE",
"410 480 OFFCURVE",
"405 483 OFFCURVE",
"401 478 OFFCURVE",
"400 469 QCURVE SMOOTH",
"399 459 OFFCURVE",
"381 424 OFFCURVE",
"362 404 QCURVE SMOOTH",
"340 381 OFFCURVE",
"288 358 OFFCURVE",
"235 355 OFFCURVE",
"187 373 OFFCURVE",
"154 408 OFFCURVE",
"139 460 OFFCURVE",
"146 494 QCURVE SMOOTH",
"153 526 OFFCURVE",
"196 593 OFFCURVE",
"267 652 OFFCURVE",
"367 699 OFFCURVE",
"431 712 QCURVE SMOOTH",
"533 734 OFFCURVE",
"718 743 OFFCURVE",
"803 735 QCURVE",
"772 701 OFFCURVE",
"713 613 OFFCURVE",
"655 514 OFFCURVE",
"596 407 OFFCURVE",
"566 354 QCURVE SMOOTH",
"526 283 OFFCURVE",
"442 150 OFFCURVE",
"347 48 OFFCURVE",
"237 -11 OFFCURVE",
"171 -8 QCURVE SMOOTH",
"136 -6 OFFCURVE",
"96 25 OFFCURVE",
"83 66 OFFCURVE",
"95 111 OFFCURVE",
"131 141 OFFCURVE",
"190 149 OFFCURVE",
"230 134 QCURVE SMOOTH",
"243 129 OFFCURVE",
"250 141 OFFCURVE",
"236 146 QCURVE SMOOTH",
"178 166 OFFCURVE",
"90 158 OFFCURVE",
"34 122 OFFCURVE",
"14 67 OFFCURVE",
"33 13 OFFCURVE",
"93 -30 OFFCURVE",
"146 -36 QCURVE SMOOTH",
"234 -47 OFFCURVE",
"395 16 OFFCURVE",
"461 88 QCURVE SMOOTH",
"522 155 OFFCURVE",
"601 294 OFFCURVE",
"637 365 QCURVE",
"641 341 OFFCURVE",
"662 250 OFFCURVE",
"697 147 OFFCURVE",
"748 46 OFFCURVE",
"782 10 QCURVE SMOOTH",
"831 -41 OFFCURVE",
"947 -42 OFFCURVE",
"994 9 QCURVE SMOOTH",
"1010 27 OFFCURVE",
"1042 78 OFFCURVE",
"1070 131 OFFCURVE",
"1091 176 OFFCURVE",
"1096 187 QCURVE",
"1096 187 LINE"
);
},
{
closed = 1;
nodes = (
"997 695 OFFCURVE",
"1040 644 OFFCURVE",
"1038 583 OFFCURVE",
"997 518 OFFCURVE",
"928 463 OFFCURVE",
"836 423 OFFCURVE",
"784 416 QCURVE SMOOTH",
"748 411 OFFCURVE",
"687 408 OFFCURVE",
"658 403 QCURVE",
"701 490 OFFCURVE",
"803 646 OFFCURVE",
"850 729 QCURVE",
"877 724 OFFCURVE",
"926 716 OFFCURVE",
"948 710 QCURVE",
"948 710 LINE"
);
}
);
width = 1024;
}
);
note = R;
unicode = 0052;
},
{
glyphname = S;
layers = (
{
layerId = "8CCE14AF-3337-4F2C-A14C-E3F14A892F52";
paths = (
{
closed = 1;
nodes = (
"923 641 OFFCURVE",
"939 689 OFFCURVE",
"928 735 OFFCURVE",
"894 777 OFFCURVE",
"867 790 QCURVE SMOOTH",
"840 803 OFFCURVE",
"761 815 OFFCURVE",
"673 813 OFFCURVE",
"583 798 OFFCURVE",
"546 785 QCURVE SMOOTH",
"491 765 OFFCURVE",
"408 695 OFFCURVE",
"375 611 OFFCURVE",
"402 523 OFFCURVE",
"458 486 QCURVE SMOOTH",
"486 467 OFFCURVE",
"560 434 OFFCURVE",
"636 402 OFFCURVE",
"706 369 OFFCURVE",
"729 350 QCURVE SMOOTH",
"774 313 OFFCURVE",
"796 217 OFFCURVE",
"761 118 OFFCURVE",
"674 25 OFFCURVE",
"611 -8 QCURVE SMOOTH",
"561 -34 OFFCURVE",
"439 -63 OFFCURVE",
"315 -67 OFFCURVE",
"198 -43 OFFCURVE",
"108 12 OFFCURVE",
"53 100 OFFCURVE",
"54 162 QCURVE SMOOTH",
"55 210 OFFCURVE",
"83 307 OFFCURVE",
"110 349 QCURVE SMOOTH",
"124 371 OFFCURVE",
"159 408 OFFCURVE",
"179 424 QCURVE SMOOTH",
"191 433 OFFCURVE",
"195 442 OFFCURVE",
"188 444 OFFCURVE",
"174 441 OFFCURVE",
"169 439 QCURVE SMOOTH",
"132 422 OFFCURVE",
"68 358 OFFCURVE",
"22 280 OFFCURVE",
"-4 198 OFFCURVE",
"-2 162 QCURVE SMOOTH",
"2 91 OFFCURVE",
"73 -8 OFFCURVE",
"184 -69 OFFCURVE",
"324 -94 OFFCURVE",
"470 -86 OFFCURVE",
"610 -47 OFFCURVE",
"667 -13 QCURVE SMOOTH",
"709 12 OFFCURVE",
"785 76 OFFCURVE",
"841 147 OFFCURVE",
"872 223 OFFCURVE",
"865 299 OFFCURVE",
"817 370 OFFCURVE",
"766 402 QCURVE SMOOTH",
"738 419 OFFCURVE",
"675 450 OFFCURVE",
"612 479 OFFCURVE",
"553 506 OFFCURVE",
"530 520 QCURVE SMOOTH",
"479 551 OFFCURVE",
"450 621 OFFCURVE",
"473 687 OFFCURVE",
"539 742 OFFCURVE",
"584 758 QCURVE SMOOTH",
"664 787 OFFCURVE",
"782 789 OFFCURVE",
"859 759 OFFCURVE",
"898 707 OFFCURVE",
"901 655 OFFCURVE",
"869 614 OFFCURVE",
"838 610 QCURVE SMOOTH",
"826 608 OFFCURVE",
"813 600 OFFCURVE",
"813 592 OFFCURVE",
"823 587 OFFCURVE",
"833 590 QCURVE SMOOTH",
"875 602 OFFCURVE",
"900 622 QCURVE",
"900 622 LINE"
);
}
);
userData = {
assembly = "PUSHW[ ]\011/* 4 values pushed */
54 3 38 4 
CALL[ ]\011/* CallFunction */
NPUSHW[ ]\011/* 33 values pushed */
6 54 22 54 38 54 54 54 70 54 86 54 102 54 118 54 134 54 150 54 166 54 182 54 198 54 214 54 230 54 246 54 16 
DELTAP1[ ]\011/* DeltaExceptionP1 */
NPUSHW[ ]\011/* 5 values pushed */
5 54 21 54 2 
DELTAP2[ ]\011/* DeltaExceptionP2 */
IUP[0]\011/* InterpolateUntPts */
IUP[1]\011/* InterpolateUntPts */";
};
width = 901;
}
);
note = S;
unicode = 0053;
},
{
glyphname = T;
layers = (
{
layerId = "8CCE14AF-3337-4F2C-A14C-E3F14A892F52";
paths = (
{
closed = 1;
nodes = (
"1400 614 OFFCURVE",
"1395 631 OFFCURVE",
"1390 631 QCURVE SMOOTH",
"1379 631 OFFCURVE",
"1379 616 QCURVE SMOOTH",
"1379 599 OFFCURVE",
"1342 586 OFFCURVE",
"1283 587 OFFCURVE",
"1210 600 OFFCURVE",
"1137 617 OFFCURVE",
"1071 636 OFFCURVE",
"1050 643 QCURVE",
"1055 648 OFFCURVE",
"1070 664 OFFCURVE",
"1085 677 OFFCURVE",
"1099 686 OFFCURVE",
"1102 683 QCURVE",
"1114 679 OFFCURVE",
"1124 690 OFFCURVE",
"1121 705 OFFCURVE",
"1107 716 OFFCURVE",
"1095 712 QCURVE",
"1096 712 LINE SMOOTH",
"1088 712 OFFCURVE",
"1065 696 OFFCURVE",
"1043 675 OFFCURVE",
"1025 655 OFFCURVE",
"1022 651 QCURVE",
"998 658 OFFCURVE",
"924 684 OFFCURVE",
"836 711 OFFCURVE",
"741 734 OFFCURVE",
"696 738 QCURVE SMOOTH",
"602 746 OFFCURVE",
"464 703 OFFCURVE",
"376 625 OFFCURVE",
"335 525 OFFCURVE",
"343 429 OFFCURVE",
"398 351 OFFCURVE",
"449 333 QCURVE SMOOTH",
"484 321 OFFCURVE",
"558 329 OFFCURVE",
"621 365 OFFCURVE",
"665 425 OFFCURVE",
"670 465 QCURVE",
"670 475 OFFCURVE",
"658 480 OFFCURVE",
"650 473 QCURVE",
"650 471 LINE SMOOTH",
"651 460 OFFCURVE",
"627 412 OFFCURVE",
"577 367 OFFCURVE",
"505 343 OFFCURVE",
"459 358 QCURVE SMOOTH",
"420 370 OFFCURVE",
"386 431 OFFCURVE",
"392 506 OFFCURVE",
"438 587 OFFCURVE",
"518 651 OFFCURVE",
"631 690 OFFCURVE",
"703 687 QCURVE SMOOTH",
"783 683 OFFCURVE",
"927 657 OFFCURVE",
"1006 632 QCURVE",
"995 618 OFFCURVE",
"961 545 OFFCURVE",
"915 447 OFFCURVE",
"862 333 OFFCURVE",
"803 222 OFFCURVE",
"742 125 OFFCURVE",
"712 92 QCURVE SMOOTH",
"683 61 OFFCURVE",
"614 7 OFFCURVE",
"530 -33 OFFCURVE",
"431 -57 OFFCURVE",
"372 -58 QCURVE SMOOTH",
"333 -59 OFFCURVE",
"254 -42 OFFCURVE",
"180 -6 OFFCURVE",
"118 46 OFFCURVE",
"76 116 OFFCURVE",
"60 203 OFFCURVE",
"69 254 QCURVE SMOOTH",
"75 290 OFFCURVE",
"104 336 OFFCURVE",
"137 366 OFFCURVE",
"166 384 OFFCURVE",
"172 392 QCURVE",
"174 408 OFFCURVE",
"145 409 OFFCURVE",
"103 384 OFFCURVE",
"60 335 OFFCURVE",
"49 300 QCURVE SMOOTH",
"24 220 OFFCURVE",
"41 93 OFFCURVE",
"106 -1 OFFCURVE",
"211 -63 OFFCURVE",
"337 -94 OFFCURVE",
"475 -93 OFFCURVE",
"606 -62 OFFCURVE",
"720 -1 OFFCURVE",
"760 44 QCURVE SMOOTH",
"815 107 OFFCURVE",
"881 250 OFFCURVE",
"934 399 OFFCURVE",
"990 550 OFFCURVE",
"1035 622 QCURVE",
"1043 619 OFFCURVE",
"1082 603 OFFCURVE",
"1145 584 OFFCURVE",
"1231 565 OFFCURVE",
"1287 558 QCURVE SMOOTH",
"1335 552 OFFCURVE",
"1400 581 OFFCURVE",
"1400 610 QCURVE",
"1400 610 LINE"
);
}
);
userData = {
assembly = "PUSHW[ ]\011/* 4 values pushed */
0 4 110 4 
CALL[ ]\011/* CallFunction */
NPUSHW[ ]\011/* 33 values pushed */
9 110 25 110 41 110 57 110 73 110 89 110 105 110 121 110 137 110 153 110 169 110 185 110 201 110 217 110 233 110 249 110 16 
DELTAP1[ ]\011/* DeltaExceptionP1 */
NPUSHW[ ]\011/* 33 values pushed */
9 110 25 110 41 110 57 110 73 110 89 110 105 110 121 110 137 110 153 110 169 110 185 110 201 110 217 110 233 110 249 110 16 
DELTAP2[ ]\011/* DeltaExceptionP2 */
NPUSHW[ ]\011/* 33 values pushed */
9 110 25 110 41 110 57 110 73 110 89 110 105 110 121 110 137 110 153 110 169 110 185 110 201 110 217 110 233 110 249 110 16 
DELTAP3[ ]\011/* DeltaExceptionP3 */
IUP[0]\011/* InterpolateUntPts */
IUP[1]\011/* InterpolateUntPts */";
};
width = 918;
}
);
note = T;
rightKerningGroup = T;
unicode = 0054;
},
{
glyphname = U;
layers = (
{
layerId = "8CCE14AF-3337-4F2C-A14C-E3F14A892F52";
paths = (
{
closed = 1;
nodes = (
"977 489 OFFCURVE",
"947 465 OFFCURVE",
"930 436 QCURVE SMOOTH",
"915 408 OFFCURVE",
"877 331 OFFCURVE",
"834 246 OFFCURVE",
"787 160 OFFCURVE",
"762 124 QCURVE SMOOTH",
"721 64 OFFCURVE",
"644 -2 OFFCURVE",
"583 -19 OFFCURVE",
"543 13 OFFCURVE",
"539 52 QCURVE SMOOTH",
"535 88 OFFCURVE",
"554 174 OFFCURVE",
"587 266 OFFCURVE",
"630 361 OFFCURVE",
"673 455 OFFCURVE",
"708 545 OFFCURVE",
"717 584 QCURVE SMOOTH",
"726 625 OFFCURVE",
"730 703 OFFCURVE",
"712 769 OFFCURVE",
"669 821 OFFCURVE",
"632 837 QCURVE SMOOTH",
"565 866 OFFCURVE",
"392 841 OFFCURVE",
"306 793 QCURVE SMOOTH",
"215 743 OFFCURVE",
"91 626 OFFCURVE",
"18 503 OFFCURVE",
"-9 383 OFFCURVE",
"4 278 OFFCURVE",
"51 195 OFFCURVE",
"126 146 OFFCURVE",
"223 139 OFFCURVE",
"279 163 QCURVE SMOOTH",
"334 186 OFFCURVE",
"413 266 OFFCURVE",
"458 355 OFFCURVE",
"468 441 OFFCURVE",
"441 500 OFFCURVE",
"377 520 OFFCURVE",
"326 498 QCURVE SMOOTH",
"323 497 OFFCURVE",
"309 488 OFFCURVE",
"303 480 OFFCURVE",
"311 476 OFFCURVE",
"331 481 QCURVE SMOOTH",
"379 492 OFFCURVE",
"427 463 OFFCURVE",
"439 406 OFFCURVE",
"418 331 OFFCURVE",
"375 258 OFFCURVE",
"314 199 OFFCURVE",
"280 186 QCURVE SMOOTH",
"228 166 OFFCURVE",
"142 176 OFFCURVE",
"79 222 OFFCURVE",
"41 299 OFFCURVE",
"34 394 OFFCURVE",
"60 502 OFFCURVE",
"124 612 OFFCURVE",
"229 716 OFFCURVE",
"304 760 QCURVE SMOOTH",
"347 785 OFFCURVE",
"438 819 OFFCURVE",
"527 833 OFFCURVE",
"606 824 OFFCURVE",
"637 805 QCURVE SMOOTH",
"655 794 OFFCURVE",
"673 751 OFFCURVE",
"676 693 OFFCURVE",
"667 624 OFFCURVE",
"658 588 QCURVE SMOOTH",
"649 552 OFFCURVE",
"612 463 OFFCURVE",
"570 366 OFFCURVE",
"526 266 OFFCURVE",
"493 171 OFFCURVE",
"477 86 OFFCURVE",
"482 52 QCURVE SMOOTH",
"490 4 OFFCURVE",
"547 -42 OFFCURVE",
"628 -34 OFFCURVE",
"727 32 OFFCURVE",
"777 96 QCURVE SMOOTH",
"796 120 OFFCURVE",
"827 167 OFFCURVE",
"838 186 QCURVE",
"832 154 OFFCURVE",
"822 68 OFFCURVE",
"830 -12 OFFCURVE",
"862 -72 OFFCURVE",
"897 -78 QCURVE SMOOTH",
"909 -80 OFFCURVE",
"927 -72 OFFCURVE",
"933 -62 OFFCURVE",
"922 -54 OFFCURVE",
"904 -55 QCURVE SMOOTH",
"883 -56 OFFCURVE",
"866 -16 OFFCURVE",
"865 50 OFFCURVE",
"879 131 OFFCURVE",
"890 172 QCURVE SMOOTH",
"904 226 OFFCURVE",
"940 313 OFFCURVE",
"950 334 QCURVE SMOOTH",
"960 357 OFFCURVE",
"988 404 OFFCURVE",
"1005 446 OFFCURVE",
"1004 480 OFFCURVE",
"986 489 QCURVE",
"986 489 LINE"
);
}
);
width = 942;
}
);
leftKerningGroup = U;
note = U;
unicode = 0055;
},
{
glyphname = V;
layers = (
{
layerId = "8CCE14AF-3337-4F2C-A14C-E3F14A892F52";
paths = (
{
closed = 1;
nodes = (
"1053 444 OFFCURVE",
"1047 527 OFFCURVE",
"1016 583 OFFCURVE",
"970 614 OFFCURVE",
"952 619 QCURVE SMOOTH",
"937 623 OFFCURVE",
"922 617 OFFCURVE",
"922 607 OFFCURVE",
"935 595 OFFCURVE",
"948 592 QCURVE SMOOTH",
"957 590 OFFCURVE",
"971 589 OFFCURVE",
"983 580 OFFCURVE",
"993 560 OFFCURVE",
"996 541 QCURVE SMOOTH",
"1003 495 OFFCURVE",
"980 391 OFFCURVE",
"931 284 OFFCURVE",
"860 179 OFFCURVE",
"820 132 QCURVE SMOOTH",
"814 124 OFFCURVE",
"780 88 OFFCURVE",
"734 43 OFFCURVE",
"681 -5 OFFCURVE",
"629 -43 OFFCURVE",
"582 -66 OFFCURVE",
"550 -61 OFFCURVE",
"537 -22 OFFCURVE",
"544 20 QCURVE SMOOTH",
"550 54 OFFCURVE",
"573 144 OFFCURVE",
"606 245 OFFCURVE",
"648 349 OFFCURVE",
"672 398 QCURVE SMOOTH",
"701 457 OFFCURVE",
"741 587 OFFCURVE",
"745 705 OFFCURVE",
"702 800 OFFCURVE",
"647 824 QCURVE SMOOTH",
"603 843 OFFCURVE",
"491 846 OFFCURVE",
"370 816 OFFCURVE",
"247 756 OFFCURVE",
"138 672 OFFCURVE",
"49 566 OFFCURVE",
"22 504 QCURVE SMOOTH",
"-13 424 OFFCURVE",
"-5 289 OFFCURVE",
"54 190 OFFCURVE",
"148 135 OFFCURVE",
"200 135 QCURVE SMOOTH",
"247 135 OFFCURVE",
"350 180 OFFCURVE",
"435 254 OFFCURVE",
"491 346 OFFCURVE",
"491 394 QCURVE SMOOTH",
"491 422 OFFCURVE",
"471 470 OFFCURVE",
"435 497 OFFCURVE",
"383 501 OFFCURVE",
"351 486 QCURVE SMOOTH",
"344 483 OFFCURVE",
"335 475 OFFCURVE",
"335 470 OFFCURVE",
"345 469 OFFCURVE",
"356 472 QCURVE SMOOTH",
"381 479 OFFCURVE",
"416 472 OFFCURVE",
"437 448 OFFCURVE",
"447 412 OFFCURVE",
"447 392 QCURVE SMOOTH",
"447 351 OFFCURVE",
"406 268 OFFCURVE",
"341 202 OFFCURVE",
"258 161 OFFCURVE",
"216 161 QCURVE SMOOTH",
"174 161 OFFCURVE",
"98 199 OFFCURVE",
"52 277 OFFCURVE",
"46 394 OFFCURVE",
"75 472 QCURVE SMOOTH",
"95 528 OFFCURVE",
"174 633 OFFCURVE",
"275 721 OFFCURVE",
"391 787 OFFCURVE",
"505 821 OFFCURVE",
"610 818 OFFCURVE",
"651 793 QCURVE SMOOTH",
"670 781 OFFCURVE",
"686 732 OFFCURVE",
"685 667 OFFCURVE",
"670 592 OFFCURVE",
"647 515 OFFCURVE",
"619 441 OFFCURVE",
"606 410 QCURVE SMOOTH",
"404 -71 OFFCURVE",
"530 -94 QCURVE SMOOTH",
"562 -100 OFFCURVE",
"648 -68 OFFCURVE",
"744 -3 OFFCURVE",
"843 91 OFFCURVE",
"933 202 OFFCURVE",
"1008 326 OFFCURVE",
"1032 389 QCURVE",
"1032 389 LINE"
);
}
);
userData = {
assembly = "PUSHW[ ]\011/* 4 values pushed */
48 3 33 4 
CALL[ ]\011/* CallFunction */
NPUSHW[ ]\011/* 33 values pushed */
6 48 22 48 38 48 54 48 70 48 86 48 102 48 118 48 134 48 150 48 166 48 182 48 198 48 214 48 230 48 246 48 16 
DELTAP1[ ]\011/* DeltaExceptionP1 */
NPUSHW[ ]\011/* 5 values pushed */
5 48 21 48 2 
DELTAP2[ ]\011/* DeltaExceptionP2 */
SVTCA[0]\011/* SetFreedomAndProjectionVectorToAxis */
PUSHW[ ]\011/* 4 values pushed */
28 2 53 4 
CALL[ ]\011/* CallFunction */
IUP[0]\011/* InterpolateUntPts */
IUP[1]\011/* InterpolateUntPts */";
};
width = 975;
}
);
note = V;
unicode = 0056;
},
{
glyphname = W;
layers = (
{
layerId = "8CCE14AF-3337-4F2C-A14C-E3F14A892F52";
paths = (
{
closed = 1;
nodes = (
"1382 316 OFFCURVE",
"1380 463 OFFCURVE",
"1330 565 OFFCURVE",
"1245 616 OFFCURVE",
"1197 612 QCURVE",
"1180 615 OFFCURVE",
"1146 602 OFFCURVE",
"1132 587 OFFCURVE",
"1149 579 OFFCURVE",
"1183 588 QCURVE",
"1243 596 OFFCURVE",
"1312 543 OFFCURVE",
"1336 443 OFFCURVE",
"1315 308 OFFCURVE",
"1284 234 QCURVE SMOOTH",
"1263 184 OFFCURVE",
"1181 83 OFFCURVE",
"1083 3 OFFCURVE",
"983 -48 OFFCURVE",
"905 -47 OFFCURVE",
"863 14 OFFCURVE",
"872 86 QCURVE SMOOTH",
"876 117 OFFCURVE",
"901 191 OFFCURVE",
"932 264 OFFCURVE",
"962 334 OFFCURVE",
"972 362 QCURVE SMOOTH",
"982 393 OFFCURVE",
"979 432 OFFCURVE",
"959 443 OFFCURVE",
"925 423 OFFCURVE",
"906 396 QCURVE SMOOTH",
"884 366 OFFCURVE",
"833 281 OFFCURVE",
"776 186 OFFCURVE",
"716 88 OFFCURVE",
"653 1 OFFCURVE",
"590 -68 OFFCURVE",
"560 -86 QCURVE SMOOTH",
"545 -95 OFFCURVE",
"521 -99 OFFCURVE",
"506 -87 OFFCURVE",
"503 -56 OFFCURVE",
"508 -30 QCURVE SMOOTH",
"515 6 OFFCURVE",
"545 105 OFFCURVE",
"585 215 OFFCURVE",
"630 328 OFFCURVE",
"652 378 QCURVE SMOOTH",
"679 438 OFFCURVE",
"717 563 OFFCURVE",
"720 676 OFFCURVE",
"677 765 OFFCURVE",
"623 789 QCURVE SMOOTH",
"579 808 OFFCURVE",
"469 810 OFFCURVE",
"352 779 OFFCURVE",
"234 719 OFFCURVE",
"129 634 OFFCURVE",
"43 527 OFFCURVE",
"16 465 QCURVE SMOOTH",
"-12 401 OFFCURVE",
"-20 290 OFFCURVE",
"8 201 OFFCURVE",
"64 137 OFFCURVE",
"136 102 OFFCURVE",
"218 98 OFFCURVE",
"257 114 QCURVE SMOOTH",
"318 140 OFFCURVE",
"404 220 OFFCURVE",
"452 306 OFFCURVE",
"462 390 OFFCURVE",
"433 448 OFFCURVE",
"363 471 OFFCURVE",
"308 454 QCURVE SMOOTH",
"291 449 OFFCURVE",
"287 434 OFFCURVE",
"310 438 QCURVE SMOOTH",
"354 445 OFFCURVE",
"400 414 OFFCURVE",
"412 355 OFFCURVE",
"394 281 OFFCURVE",
"353 209 OFFCURVE",
"294 151 OFFCURVE",
"259 138 QCURVE SMOOTH",
"209 120 OFFCURVE",
"112 135 OFFCURVE",
"49 206 OFFCURVE",
"37 334 OFFCURVE",
"72 428 QCURVE SMOOTH",
"93 484 OFFCURVE",
"168 590 OFFCURVE",
"265 680 OFFCURVE",
"374 748 OFFCURVE",
"484 784 OFFCURVE",
"586 782 OFFCURVE",
"627 757 QCURVE SMOOTH",
"646 745 OFFCURVE",
"662 696 OFFCURVE",
"660 631 OFFCURVE",
"644 556 OFFCURVE",
"620 479 OFFCURVE",
"593 405 OFFCURVE",
"580 374 QCURVE SMOOTH",
"523 239 OFFCURVE",
"455 43 OFFCURVE",
"450 -20 QCURVE SMOOTH",
"448 -51 OFFCURVE",
"458 -92 OFFCURVE",
"478 -116 OFFCURVE",
"505 -125 OFFCURVE",
"520 -124 QCURVE SMOOTH",
"547 -123 OFFCURVE",
"609 -86 OFFCURVE",
"672 -29 OFFCURVE",
"733 43 OFFCURVE",
"786 114 OFFCURVE",
"830 180 OFFCURVE",
"844 203 QCURVE",
"835 173 OFFCURVE",
"822 97 OFFCURVE",
"824 60 QCURVE SMOOTH",
"829 -6 OFFCURVE",
"896 -69 OFFCURVE",
"995 -75 OFFCURVE",
"1113 -32 OFFCURVE",
"1226 49 OFFCURVE",
"1320 160 OFFCURVE",
"1346 225 QCURVE",
"1346 225 LINE"
);
}
);
width = 1344;
}
);
note = W;
unicode = 0057;
},
{
glyphname = X;
layers = (
{
layerId = "8CCE14AF-3337-4F2C-A14C-E3F14A892F52";
paths = (
{
closed = 1;
nodes = (
"1110 799 OFFCURVE",
"1123 829 OFFCURVE",
"1100 830 OFFCURVE",
"1052 802 OFFCURVE",
"1024 774 QCURVE SMOOTH",
"988 739 OFFCURVE",
"893 667 OFFCURVE",
"778 588 OFFCURVE",
"644 499 OFFCURVE",
"569 447 QCURVE",
"569 499 OFFCURVE",
"565 597 OFFCURVE",
"555 676 OFFCURVE",
"538 733 OFFCURVE",
"525 745 QCURVE SMOOTH",
"493 775 OFFCURVE",
"408 781 OFFCURVE",
"317 753 OFFCURVE",
"229 703 OFFCURVE",
"158 653 OFFCURVE",
"112 611 OFFCURVE",
"108 606 QCURVE SMOOTH",
"100 595 OFFCURVE",
"102 581 OFFCURVE",
"111 574 OFFCURVE",
"122 572 OFFCURVE",
"124 574 QCURVE SMOOTH",
"142 592 OFFCURVE",
"179 630 OFFCURVE",
"217 665 OFFCURVE",
"257 695 OFFCURVE",
"278 705 QCURVE SMOOTH",
"311 720 OFFCURVE",
"376 734 OFFCURVE",
"433 723 OFFCURVE",
"474 684 OFFCURVE",
"483 646 QCURVE SMOOTH",
"494 599 OFFCURVE",
"498 467 OFFCURVE",
"497 395 QCURVE",
"415 336 OFFCURVE",
"251 207 OFFCURVE",
"97 66 OFFCURVE",
"-44 -87 OFFCURVE",
"-103 -169 QCURVE SMOOTH",
"-120 -193 OFFCURVE",
"-122 -222 OFFCURVE",
"-102 -227 OFFCURVE",
"-67 -201 OFFCURVE",
"-47 -169 QCURVE SMOOTH",
"1 -93 OFFCURVE",
"125 47 OFFCURVE",
"266 178 OFFCURVE",
"419 300 OFFCURVE",
"498 357 QCURVE",
"497 300 OFFCURVE",
"495 193 OFFCURVE",
"495 103 OFFCURVE",
"498 35 OFFCURVE",
"502 17 QCURVE SMOOTH",
"516 -49 OFFCURVE",
"596 -99 OFFCURVE",
"702 -61 OFFCURVE",
"822 69 OFFCURVE",
"877 184 QCURVE SMOOTH",
"881 193 OFFCURVE",
"880 202 OFFCURVE",
"872 202 OFFCURVE",
"863 195 OFFCURVE",
"860 189 QCURVE SMOOTH",
"828 116 OFFCURVE",
"747 10 OFFCURVE",
"667 -34 OFFCURVE",
"600 -4 OFFCURVE",
"583 60 QCURVE SMOOTH",
"577 83 OFFCURVE",
"571 159 OFFCURVE",
"568 252 OFFCURVE",
"569 357 OFFCURVE",
"570 409 QCURVE",
"658 472 OFFCURVE",
"818 579 OFFCURVE",
"951 669 OFFCURVE",
"1051 741 OFFCURVE",
"1079 768 QCURVE",
"1079 768 LINE"
);
}
);
userData = {
assembly = "PUSHW[ ]\011/* 4 values pushed */
75 3 30 4 
CALL[ ]\011/* CallFunction */
PUSHW[ ]\011/* 1 value pushed */
75 
SRP0[ ]\011/* SetRefPoint0 */
PUSHW[ ]\011/* 1 value pushed */
5 
MDRP[10000]\011/* MoveDirectRelPt */
PUSHW[ ]\011/* 1 value pushed */
5 
MDAP[1]\011/* MoveDirectAbsPt */
NPUSHW[ ]\011/* 5 values pushed */
10 30 26 30 2 
DELTAP2[ ]\011/* DeltaExceptionP2 */
NPUSHW[ ]\011/* 33 values pushed */
9 30 25 30 41 30 57 30 73 30 89 30 105 30 121 30 137 30 153 30 169 30 185 30 201 30 217 30 233 30 249 30 16 
DELTAP1[ ]\011/* DeltaExceptionP1 */
PUSHW[ ]\011/* 1 value pushed */
30 
SRP0[ ]\011/* SetRefPoint0 */
PUSHW[ ]\011/* 1 value pushed */
45 
MDRP[10000]\011/* MoveDirectRelPt */
PUSHW[ ]\011/* 1 value pushed */
45 
MDAP[1]\011/* MoveDirectAbsPt */
IUP[0]\011/* InterpolateUntPts */
IUP[1]\011/* InterpolateUntPts */";
};
width = 807;
}
);
note = X;
unicode = 0058;
},
{
glyphname = Y;
layers = (
{
layerId = "8CCE14AF-3337-4F2C-A14C-E3F14A892F52";
paths = (
{
closed = 1;
nodes = (
"1114 -9 OFFCURVE",
"1106 -17 OFFCURVE",
"1108 -28 QCURVE",
"1108 -42 OFFCURVE",
"1100 -62 OFFCURVE",
"1084 -78 OFFCURVE",
"1059 -93 OFFCURVE",
"1043 -102 QCURVE SMOOTH",
"1029 -110 OFFCURVE",
"981 -120 OFFCURVE",
"921 -126 OFFCURVE",
"851 -128 OFFCURVE",
"814 -128 QCURVE",
"842 -79 OFFCURVE",
"894 50 OFFCURVE",
"941 189 OFFCURVE",
"979 327 OFFCURVE",
"992 385 QCURVE SMOOTH",
"1000 422 OFFCURVE",
"1001 464 OFFCURVE",
"990 482 OFFCURVE",
"974 481 OFFCURVE",
"957 471 OFFCURVE",
"944 455 OFFCURVE",
"943 449 QCURVE",
"931 410 OFFCURVE",
"883 287 OFFCURVE",
"816 157 OFFCURVE",
"732 40 OFFCURVE",
"686 7 QCURVE SMOOTH",
"657 -14 OFFCURVE",
"597 -31 OFFCURVE",
"553 -16 OFFCURVE",
"532 34 OFFCURVE",
"542 79 QCURVE SMOOTH",
"549 113 OFFCURVE",
"581 196 OFFCURVE",
"623 286 OFFCURVE",
"673 378 OFFCURVE",
"698 421 QCURVE SMOOTH",
"732 478 OFFCURVE",
"777 599 OFFCURVE",
"783 708 OFFCURVE",
"739 797 OFFCURVE",
"684 822 QCURVE SMOOTH",
"640 842 OFFCURVE",
"530 842 OFFCURVE",
"410 810 OFFCURVE",
"289 748 OFFCURVE",
"179 662 OFFCURVE",
"87 556 OFFCURVE",
"58 495 QCURVE SMOOTH",
"27 432 OFFCURVE",
"15 323 OFFCURVE",
"39 235 OFFCURVE",
"92 171 OFFCURVE",
"163 135 OFFCURVE",
"244 131 OFFCURVE",
"284 148 QCURVE SMOOTH",
"340 171 OFFCURVE",
"425 247 OFFCURVE",
"478 332 OFFCURVE",
"498 415 OFFCURVE",
"479 475 OFFCURVE",
"419 501 OFFCURVE",
"366 487 QCURVE SMOOTH",
"359 485 OFFCURVE",
"349 479 OFFCURVE",
"346 473 OFFCURVE",
"355 470 OFFCURVE",
"368 473 QCURVE SMOOTH",
"411 481 OFFCURVE",
"453 449 OFFCURVE",
"458 390 OFFCURVE",
"433 315 OFFCURVE",
"386 242 OFFCURVE",
"323 183 OFFCURVE",
"288 171 QCURVE SMOOTH",
"255 159 OFFCURVE",
"190 160 OFFCURVE",
"133 185 OFFCURVE",
"90 234 OFFCURVE",
"73 309 OFFCURVE",
"84 407 OFFCURVE",
"110 469 QCURVE SMOOTH",
"133 524 OFFCURVE",
"215 629 OFFCURVE",
"316 718 OFFCURVE",
"431 784 OFFCURVE",
"544 819 OFFCURVE",
"648 816 OFFCURVE",
"688 790 QCURVE SMOOTH",
"717 772 OFFCURVE",
"727 688 OFFCURVE",
"703 582 OFFCURVE",
"651 462 OFFCURVE",
"618 408 QCURVE SMOOTH",
"597 374 OFFCURVE",
"551 293 OFFCURVE",
"509 207 OFFCURVE",
"477 122 OFFCURVE",
"472 85 QCURVE SMOOTH",
"464 28 OFFCURVE",
"505 -37 OFFCURVE",
"575 -58 OFFCURVE",
"662 -40 OFFCURVE",
"700 -14 QCURVE SMOOTH",
"735 10 OFFCURVE",
"796 77 OFFCURVE",
"848 152 OFFCURVE",
"889 227 OFFCURVE",
"903 258 QCURVE",
"876 157 OFFCURVE",
"805 -32 OFFCURVE",
"766 -129 QCURVE",
"712 -129 OFFCURVE",
"601 -133 OFFCURVE",
"492 -147 OFFCURVE",
"385 -172 OFFCURVE",
"334 -193 QCURVE SMOOTH",
"271 -219 OFFCURVE",
"214 -278 OFFCURVE",
"213 -334 OFFCURVE",
"260 -378 OFFCURVE",
"343 -400 OFFCURVE",
"457 -392 OFFCURVE",
"522 -367 QCURVE SMOOTH",
"599 -338 OFFCURVE",
"748 -230 OFFCURVE",
"799 -154 QCURVE",
"837 -154 OFFCURVE",
"910 -152 OFFCURVE",
"974 -148 OFFCURVE",
"1028 -139 OFFCURVE",
"1048 -131 QCURVE SMOOTH",
"1094 -111 OFFCURVE",
"1126 -49 OFFCURVE",
"1120 -29 QCURVE",
"1120 -29 LINE"
);
},
{
closed = 1;
nodes = (
"707 -226 OFFCURVE",
"574 -321 OFFCURVE",
"507 -346 QCURVE SMOOTH",
"467 -361 OFFCURVE",
"386 -372 OFFCURVE",
"319 -366 OFFCURVE",
"275 -345 OFFCURVE",
"267 -311 OFFCURVE",
"305 -265 OFFCURVE",
"354 -237 QCURVE SMOOTH",
"399 -211 OFFCURVE",
"496 -179 OFFCURVE",
"598 -161 OFFCURVE",
"701 -154 OFFCURVE",
"752 -154 QCURVE",
"752 -154 LINE"
);
}
);
userData = {
assembly = "SVTCA[0]\011/* SetFreedomAndProjectionVectorToAxis */
PUSHW[ ]\011/* 4 values pushed */
23 2 138 4 
CALL[ ]\011/* CallFunction */
PUSHW[ ]\011/* 1 value pushed */
138 
SRP0[ ]\011/* SetRefPoint0 */
PUSHW[ ]\011/* 1 value pushed */
8 
MDRP[10000]\011/* MoveDirectRelPt */
PUSHW[ ]\011/* 1 value pushed */
23 
SRP0[ ]\011/* SetRefPoint0 */
PUSHW[ ]\011/* 1 value pushed */
125 
MDRP[10000]\011/* MoveDirectRelPt */
PUSHW[ ]\011/* 1 value pushed */
125 
MDAP[1]\011/* MoveDirectAbsPt */
IUP[0]\011/* InterpolateUntPts */
IUP[1]\011/* InterpolateUntPts */";
};
width = 959;
}
);
note = Y;
unicode = 0059;
},
{
glyphname = Z;
layers = (
{
layerId = "8CCE14AF-3337-4F2C-A14C-E3F14A892F52";
paths = (
{
closed = 1;
nodes = (
"1071 682 OFFCURVE",
"1079 724 OFFCURVE",
"1057 753 OFFCURVE",
"1009 763 OFFCURVE",
"978 752 QCURVE SMOOTH",
"955 744 OFFCURVE",
"898 709 OFFCURVE",
"867 685 QCURVE",
"825 698 OFFCURVE",
"732 729 OFFCURVE",
"634 754 OFFCURVE",
"536 769 OFFCURVE",
"490 765 QCURVE SMOOTH",
"403 758 OFFCURVE",
"305 701 OFFCURVE",
"267 628 OFFCURVE",
"277 555 OFFCURVE",
"298 532 QCURVE SMOOTH",
"309 519 OFFCURVE",
"332 504 OFFCURVE",
"338 502 QCURVE SMOOTH",
"342 501 OFFCURVE",
"356 500 OFFCURVE",
"365 503 OFFCURVE",
"363 512 OFFCURVE",
"350 521 QCURVE SMOOTH",
"311 547 OFFCURVE",
"302 602 OFFCURVE",
"336 652 OFFCURVE",
"398 690 OFFCURVE",
"430 698 QCURVE SMOOTH",
"475 710 OFFCURVE",
"583 713 OFFCURVE",
"696 703 OFFCURVE",
"804 682 OFFCURVE",
"848 670 QCURVE",
"820 647 OFFCURVE",
"762 594 OFFCURVE",
"707 539 OFFCURVE",
"656 485 OFFCURVE",
"635 460 QCURVE SMOOTH",
"620 442 OFFCURVE",
"576 389 OFFCURVE",
"523 326 OFFCURVE",
"465 258 OFFCURVE",
"437 225 QCURVE SMOOTH",
"371 148 OFFCURVE",
"297 61 QCURVE",
"245 94 OFFCURVE",
"177 127 OFFCURVE",
"154 133 QCURVE SMOOTH",
"112 144 OFFCURVE",
"54 131 OFFCURVE",
"19 98 OFFCURVE",
"8 52 OFFCURVE",
"22 7 OFFCURVE",
"61 -30 OFFCURVE",
"92 -37 QCURVE SMOOTH",
"127 -45 OFFCURVE",
"226 -15 OFFCURVE",
"292 32 QCURVE",
"385 -22 OFFCURVE",
"472 -64 QCURVE SMOOTH",
"509 -82 OFFCURVE",
"589 -116 OFFCURVE",
"665 -143 OFFCURVE",
"735 -159 OFFCURVE",
"763 -158 QCURVE SMOOTH",
"836 -157 OFFCURVE",
"927 -122 OFFCURVE",
"978 -75 OFFCURVE",
"996 -27 OFFCURVE",
"998 -13 QCURVE SMOOTH",
"1000 8 OFFCURVE",
"995 27 OFFCURVE",
"986 28 OFFCURVE",
"977 14 OFFCURVE",
"975 2 QCURVE SMOOTH",
"969 -41 OFFCURVE",
"902 -86 OFFCURVE",
"816 -103 OFFCURVE",
"726 -100 OFFCURVE",
"698 -94 QCURVE SMOOTH",
"678 -90 OFFCURVE",
"624 -74 OFFCURVE",
"562 -53 OFFCURVE",
"498 -28 OFFCURVE",
"467 -16 QCURVE SMOOTH",
"395 12 OFFCURVE",
"317 46 QCURVE",
"344 68 OFFCURVE",
"417 128 OFFCURVE",
"499 203 OFFCURVE",
"587 293 OFFCURVE",
"630 346 QCURVE SMOOTH",
"658 381 OFFCURVE",
"724 469 OFFCURVE",
"792 558 OFFCURVE",
"857 636 OFFCURVE",
"884 661 QCURVE",
"938 647 OFFCURVE",
"1023 641 OFFCURVE",
"1046 661 QCURVE",
"1046 661 LINE"
);
},
{
closed = 1;
nodes = (
"1008 657 OFFCURVE",
"942 664 OFFCURVE",
"899 676 QCURVE",
"934 705 OFFCURVE",
"994 741 OFFCURVE",
"1017 741 QCURVE SMOOTH",
"1030 741 OFFCURVE",
"1045 724 OFFCURVE",
"1048 700 OFFCURVE",
"1039 676 OFFCURVE",
"1028 669 QCURVE",
"1028 669 LINE"
);
},
{
closed = 1;
nodes = (
"267 33 OFFCURVE",
"238 16 OFFCURVE",
"204 2 OFFCURVE",
"167 -7 OFFCURVE",
"150 -8 QCURVE SMOOTH",
"103 -10 OFFCURVE",
"57 29 OFFCURVE",
"56 74 OFFCURVE",
"101 109 OFFCURVE",
"146 104 QCURVE SMOOTH",
"187 99 OFFCURVE",
"248 65 QCURVE",
"252 62 OFFCURVE",
"262 55 OFFCURVE",
"267 51 QCURVE SMOOTH",
"272 47 OFFCURVE",
"278 42 QCURVE",
"278 42 LINE"
);
}
);
width = 677;
}
);
note = Z;
unicode = 005A;
},
{
glyphname = Z.stroke;
layers = (
{
layerId = "8CCE14AF-3337-4F2C-A14C-E3F14A892F52";
paths = (
{
closed = 1;
nodes = (
"769 333 OFFCURVE",
"781 341 OFFCURVE",
"778 350 OFFCURVE",
"760 359 OFFCURVE",
"747 359 QCURVE SMOOTH",
"718 359 OFFCURVE",
"665 360 OFFCURVE",
"642 361 QCURVE",
"670 396 OFFCURVE",
"733 481 OFFCURVE",
"797 564 OFFCURVE",
"858 637 OFFCURVE",
"884 661 QCURVE",
"938 647 OFFCURVE",
"1023 641 OFFCURVE",
"1046 661 QCURVE SMOOTH",
"1071 682 OFFCURVE",
"1079 724 OFFCURVE",
"1057 753 OFFCURVE",
"1009 763 OFFCURVE",
"978 752 QCURVE SMOOTH",
"955 744 OFFCURVE",
"898 709 OFFCURVE",
"867 685 QCURVE",
"825 698 OFFCURVE",
"732 729 OFFCURVE",
"634 754 OFFCURVE",
"536 769 OFFCURVE",
"490 765 QCURVE SMOOTH",
"403 758 OFFCURVE",
"305 701 OFFCURVE",
"267 628 OFFCURVE",
"277 555 OFFCURVE",
"298 532 QCURVE SMOOTH",
"309 519 OFFCURVE",
"332 504 OFFCURVE",
"338 502 QCURVE SMOOTH",
"342 501 OFFCURVE",
"356 500 OFFCURVE",
"365 503 OFFCURVE",
"363 512 OFFCURVE",
"350 521 QCURVE SMOOTH",
"311 547 OFFCURVE",
"302 602 OFFCURVE",
"336 652 OFFCURVE",
"398 690 OFFCURVE",
"430 698 QCURVE SMOOTH",
"475 710 OFFCURVE",
"583 713 OFFCURVE",
"696 703 OFFCURVE",
"804 682 OFFCURVE",
"848 670 QCURVE",
"820 647 OFFCURVE",
"762 594 OFFCURVE",
"707 539 OFFCURVE",
"656 485 OFFCURVE",
"635 460 QCURVE SMOOTH",
"553 362 LINE",
"503 363 OFFCURVE",
"430 363 OFFCURVE",
"403 363 QCURVE SMOOTH",
"386 363 OFFCURVE",
"375 348 OFFCURVE",
"380 330 OFFCURVE",
"395 315 OFFCURVE",
"403 316 QCURVE SMOOTH",
"430 318 OFFCURVE",
"490 323 OFFCURVE",
"522 325 QCURVE",
"484 279 OFFCURVE",
"403 186 OFFCURVE",
"371 148 QCURVE SMOOTH",
"332 103 OFFCURVE",
"297 61 QCURVE",
"245 94 OFFCURVE",
"177 127 OFFCURVE",
"154 133 QCURVE SMOOTH",
"112 144 OFFCURVE",
"54 131 OFFCURVE",
"19 98 OFFCURVE",
"8 52 OFFCURVE",
"22 7 OFFCURVE",
"61 -30 OFFCURVE",
"92 -37 QCURVE SMOOTH",
"127 -45 OFFCURVE",
"226 -15 OFFCURVE",
"292 32 QCURVE",
"385 -22 OFFCURVE",
"472 -64 QCURVE SMOOTH",
"509 -82 OFFCURVE",
"589 -116 OFFCURVE",
"665 -143 OFFCURVE",
"735 -159 OFFCURVE",
"763 -158 QCURVE SMOOTH",
"836 -157 OFFCURVE",
"927 -122 OFFCURVE",
"978 -75 OFFCURVE",
"996 -27 OFFCURVE",
"998 -13 QCURVE SMOOTH",
"1000 8 OFFCURVE",
"995 27 OFFCURVE",
"986 28 OFFCURVE",
"977 14 OFFCURVE",
"975 2 QCURVE SMOOTH",
"969 -41 OFFCURVE",
"902 -86 OFFCURVE",
"816 -103 OFFCURVE",
"726 -100 OFFCURVE",
"698 -94 QCURVE SMOOTH",
"678 -90 OFFCURVE",
"624 -74 OFFCURVE",
"562 -53 OFFCURVE",
"498 -28 OFFCURVE",
"467 -16 QCURVE SMOOTH",
"395 12 OFFCURVE",
"317 46 QCURVE",
"343 67 OFFCURVE",
"412 124 OFFCURVE",
"491 195 OFFCURVE",
"575 280 OFFCURVE",
"617 330 QCURVE",
"680 333 OFFCURVE",
"753 333 QCURVE",
"753 333 LINE"
);
},
{
closed = 1;
nodes = (
"267 33 OFFCURVE",
"238 16 OFFCURVE",
"204 2 OFFCURVE",
"167 -7 OFFCURVE",
"150 -8 QCURVE SMOOTH",
"103 -10 OFFCURVE",
"57 29 OFFCURVE",
"56 74 OFFCURVE",
"101 109 OFFCURVE",
"146 104 QCURVE SMOOTH",
"187 99 OFFCURVE",
"248 65 QCURVE",
"252 62 OFFCURVE",
"262 55 OFFCURVE",
"267 51 QCURVE SMOOTH",
"272 47 OFFCURVE",
"278 42 QCURVE",
"278 42 LINE"
);
},
{
closed = 1;
nodes = (
"1008 657 OFFCURVE",
"942 664 OFFCURVE",
"899 676 QCURVE",
"934 705 OFFCURVE",
"994 741 OFFCURVE",
"1017 741 QCURVE SMOOTH",
"1030 741 OFFCURVE",
"1045 724 OFFCURVE",
"1048 700 OFFCURVE",
"1039 676 OFFCURVE",
"1028 669 QCURVE",
"1028 669 LINE"
);
}
);
userData = {
assembly = "SVTCA[0]\011/* SetFreedomAndProjectionVectorToAxis */
PUSHW[ ]\011/* 4 values pushed */
118 2 0 4 
CALL[ ]\011/* CallFunction */
PUSHW[ ]\011/* 1 value pushed */
0 
SRP0[ ]\011/* SetRefPoint0 */
PUSHW[ ]\011/* 1 value pushed */
2 
MDRP[10000]\011/* MoveDirectRelPt */
PUSHW[ ]\011/* 1 value pushed */
2 
MDAP[1]\011/* MoveDirectAbsPt */
PUSHW[ ]\011/* 1 value pushed */
118 
SRP0[ ]\011/* SetRefPoint0 */
PUSHW[ ]\011/* 1 value pushed */
62 
MDRP[10000]\011/* MoveDirectRelPt */
PUSHW[ ]\011/* 1 value pushed */
62 
MDAP[1]\011/* MoveDirectAbsPt */
PUSHW[ ]\011/* 1 value pushed */
118 
SRP0[ ]\011/* SetRefPoint0 */
PUSHW[ ]\011/* 1 value pushed */
65 
MDRP[10000]\011/* MoveDirectRelPt */
PUSHW[ ]\011/* 1 value pushed */
65 
MDAP[1]\011/* MoveDirectAbsPt */
PUSHW[ ]\011/* 1 value pushed */
118 
SRP0[ ]\011/* SetRefPoint0 */
PUSHW[ ]\011/* 1 value pushed */
115 
MDRP[10000]\011/* MoveDirectRelPt */
PUSHW[ ]\011/* 1 value pushed */
115 
MDAP[1]\011/* MoveDirectAbsPt */
IUP[0]\011/* InterpolateUntPts */
IUP[1]\011/* InterpolateUntPts */";
};
width = 677;
}
);
note = Z.stroke;
},
{
glyphname = bracketleft;
layers = (
{
layerId = "8CCE14AF-3337-4F2C-A14C-E3F14A892F52";
paths = (
{
closed = 1;
nodes = (
"583 695 OFFCURVE",
"561 710 OFFCURVE",
"532 717 OFFCURVE",
"501 718 OFFCURVE",
"492 718 QCURVE SMOOTH",
"472 718 LINE SMOOTH",
"448 718 OFFCURVE",
"411 707 OFFCURVE",
"381 687 OFFCURVE",
"354 659 OFFCURVE",
"339 642 QCURVE SMOOTH",
"311 610 OFFCURVE",
"246 517 OFFCURVE",
"179 409 OFFCURVE",
"116 291 OFFCURVE",
"67 176 OFFCURVE",
"38 70 OFFCURVE",
"38 28 QCURVE SMOOTH",
"38 11 OFFCURVE",
"66 -7 OFFCURVE",
"104 -16 OFFCURVE",
"143 -17 OFFCURVE",
"154 -17 QCURVE SMOOTH",
"163 -17 OFFCURVE",
"204 -17 OFFCURVE",
"246 -13 OFFCURVE",
"278 -4 OFFCURVE",
"278 6 QCURVE SMOOTH",
"278 13 OFFCURVE",
"269 21 OFFCURVE",
"255 26 OFFCURVE",
"241 28 OFFCURVE",
"236 28 QCURVE SMOOTH",
"218 28 OFFCURVE",
"182 24 OFFCURVE",
"164 24 QCURVE SMOOTH",
"153 24 OFFCURVE",
"129 27 OFFCURVE",
"109 36 OFFCURVE",
"97 53 OFFCURVE",
"97 68 QCURVE SMOOTH",
"97 97 OFFCURVE",
"133 200 OFFCURVE",
"192 324 OFFCURVE",
"266 455 OFFCURVE",
"342 568 OFFCURVE",
"412 650 OFFCURVE",
"437 663 QCURVE SMOOTH",
"445 668 OFFCURVE",
"475 668 OFFCURVE",
"484 668 QCURVE SMOOTH",
"503 668 OFFCURVE",
"539 664 OFFCURVE",
"558 664 QCURVE SMOOTH",
"569 664 OFFCURVE",
"583 668 OFFCURVE",
"583 682 QCURVE",
"583 682 LINE"
);
}
);
userData = {
assembly = "PUSHW[ ]\011/* 4 values pushed */
16 3 39 4 
CALL[ ]\011/* CallFunction */
NPUSHW[ ]\011/* 33 values pushed */
6 16 22 16 38 16 54 16 70 16 86 16 102 16 118 16 134 16 150 16 166 16 182 16 198 16 214 16 230 16 246 16 16 
DELTAP1[ ]\011/* DeltaExceptionP1 */
NPUSHW[ ]\011/* 5 values pushed */
5 16 21 16 2 
DELTAP2[ ]\011/* DeltaExceptionP2 */
SVTCA[0]\011/* SetFreedomAndProjectionVectorToAxis */
PUSHW[ ]\011/* 4 values pushed */
21 2 34 4 
CALL[ ]\011/* CallFunction */
PUSHW[ ]\011/* 3 values pushed */
52 6 3 
CALL[ ]\011/* CallFunction */
PUSHW[ ]\011/* 1 value pushed */
6 
SRP0[ ]\011/* SetRefPoint0 */
PUSHW[ ]\011/* 1 value pushed */
3 
MDRP[10000]\011/* MoveDirectRelPt */
PUSHW[ ]\011/* 1 value pushed */
3 
MDAP[1]\011/* MoveDirectAbsPt */
PUSHW[ ]\011/* 1 value pushed */
21 
SRP0[ ]\011/* SetRefPoint0 */
PUSHW[ ]\011/* 1 value pushed */
24 
MDRP[10000]\011/* MoveDirectRelPt */
PUSHW[ ]\011/* 1 value pushed */
24 
MDAP[1]\011/* MoveDirectAbsPt */
IUP[0]\011/* InterpolateUntPts */
IUP[1]\011/* InterpolateUntPts */";
};
width = 585;
}
);
note = bracketleft;
unicode = 005B;
},
{
glyphname = backslash;
lastChange = "2020-11-10 21:31:26 +0000";
layers = (
{
layerId = "8CCE14AF-3337-4F2C-A14C-E3F14A892F52";
paths = (
{
closed = 1;
nodes = (
"162 809 LINE",
"154 819 OFFCURVE",
"130 825 OFFCURVE",
"110 821 OFFCURVE",
"103 807 OFFCURVE",
"112 797 QCURVE SMOOTH",
"143 761 OFFCURVE",
"227 659 OFFCURVE",
"323 540 OFFCURVE",
"428 409 OFFCURVE",
"533 281 OFFCURVE",
"634 161 OFFCURVE",
"722 62 OFFCURVE",
"793 -9 OFFCURVE",
"816 -24 QCURVE SMOOTH",
"836 -37 OFFCURVE",
"848 -21 OFFCURVE",
"833 -8 QCURVE SMOOTH",
"808 14 OFFCURVE",
"728 104 OFFCURVE",
"625 227 OFFCURVE",
"502 379 OFFCURVE",
"370 546 OFFCURVE",
"231 722 OFFCURVE",
"162 809 QCURVE"
);
}
);
userData = {
assembly = "SVTCA[0]\011/* SetFreedomAndProjectionVectorToAxis */
PUSHW[ ]\011/* 4 values pushed */
16 2 9 4 
CALL[ ]\011/* CallFunction */
IUP[0]\011/* InterpolateUntPts */
IUP[1]\011/* InterpolateUntPts */";
};
width = 867;
}
);
note = backslash;
unicode = 005C;
},
{
glyphname = bracketright;
layers = (
{
layerId = "8CCE14AF-3337-4F2C-A14C-E3F14A892F52";
paths = (
{
closed = 1;
nodes = (
"548 686 OFFCURVE",
"538 705 OFFCURVE",
"521 714 OFFCURVE",
"498 716 OFFCURVE",
"485 716 QCURVE SMOOTH",
"470 716 OFFCURVE",
"424 715 OFFCURVE",
"379 706 OFFCURVE",
"344 686 OFFCURVE",
"339 667 QCURVE",
"342 665 LINE",
"370 665 OFFCURVE",
"425 669 OFFCURVE",
"453 669 QCURVE SMOOTH",
"461 669 OFFCURVE",
"478 668 OFFCURVE",
"486 665 QCURVE",
"489 650 OFFCURVE",
"489 635 QCURVE SMOOTH",
"489 598 OFFCURVE",
"467 503 OFFCURVE",
"430 397 OFFCURVE",
"382 287 OFFCURVE",
"329 188 OFFCURVE",
"275 104 OFFCURVE",
"251 77 QCURVE SMOOTH",
"231 55 OFFCURVE",
"183 34 OFFCURVE",
"133 27 OFFCURVE",
"86 26 OFFCURVE",
"47 21 OFFCURVE",
"20 6 OFFCURVE",
"17 -12 QCURVE",
"23 -15 OFFCURVE",
"42 -17 OFFCURVE",
"63 -17 OFFCURVE",
"84 -17 OFFCURVE",
"92 -17 QCURVE SMOOTH",
"114 -17 OFFCURVE",
"165 -15 OFFCURVE",
"214 -6 OFFCURVE",
"258 12 OFFCURVE",
"275 29 QCURVE SMOOTH",
"309 63 OFFCURVE",
"376 158 OFFCURVE",
"437 268 OFFCURVE",
"488 389 OFFCURVE",
"526 508 OFFCURVE",
"548 622 OFFCURVE",
"548 670 QCURVE",
"548 670 LINE"
);
}
);
userData = {
assembly = "PUSHW[ ]\011/* 4 values pushed */
31 3 0 4 
CALL[ ]\011/* CallFunction */
NPUSHW[ ]\011/* 5 values pushed */
10 31 26 31 2 
DELTAP2[ ]\011/* DeltaExceptionP2 */
NPUSHW[ ]\011/* 33 values pushed */
9 31 25 31 41 31 57 31 73 31 89 31 105 31 121 31 137 31 153 31 169 31 185 31 201 31 217 31 233 31 249 31 16 
DELTAP1[ ]\011/* DeltaExceptionP1 */
SVTCA[0]\011/* SetFreedomAndProjectionVectorToAxis */
PUSHW[ ]\011/* 4 values pushed */
45 2 0 4 
CALL[ ]\011/* CallFunction */
PUSHW[ ]\011/* 1 value pushed */
0 
SRP0[ ]\011/* SetRefPoint0 */
PUSHW[ ]\011/* 1 value pushed */
36 
MDRP[10000]\011/* MoveDirectRelPt */
PUSHW[ ]\011/* 1 value pushed */
36 
MDAP[1]\011/* MoveDirectAbsPt */
PUSHW[ ]\011/* 1 value pushed */
0 
SRP0[ ]\011/* SetRefPoint0 */
PUSHW[ ]\011/* 1 value pushed */
39 
MDRP[10000]\011/* MoveDirectRelPt */
PUSHW[ ]\011/* 1 value pushed */
39 
MDAP[1]\011/* MoveDirectAbsPt */
IUP[0]\011/* InterpolateUntPts */
IUP[1]\011/* InterpolateUntPts */";
};
width = 556;
}
);
note = bracketright;
unicode = 005D;
},
{
glyphname = asciicircum;
layers = (
{
layerId = "8CCE14AF-3337-4F2C-A14C-E3F14A892F52";
paths = (
{
closed = 1;
nodes = (
"403 391 LINE",
"398 399 LINE",
"367 425 OFFCURVE",
"311 481 OFFCURVE",
"288 513 QCURVE",
"282 516 LINE",
"276 515 OFFCURVE",
"248 499 OFFCURVE",
"212 475 OFFCURVE",
"173 446 OFFCURVE",
"141 419 OFFCURVE",
"119 397 OFFCURVE",
"118 393 QCURVE",
"124 386 LINE",
"131 387 OFFCURVE",
"169 411 OFFCURVE",
"213 440 OFFCURVE",
"252 468 OFFCURVE",
"260 474 QCURVE",
"267 464 OFFCURVE",
"301 433 OFFCURVE",
"340 403 OFFCURVE",
"379 382 OFFCURVE",
"391 382 QCURVE SMOOTH",
"395 382 OFFCURVE",
"403 386 OFFCURVE",
"403 391 QCURVE",
"403 391 LINE"
);
}
);
userData = {
assembly = "SVTCA[0]\011/* SetFreedomAndProjectionVectorToAxis */
PUSHW[ ]\011/* 1 value pushed */
3 
MDAP[1]\011/* MoveDirectAbsPt */
PUSHW[ ]\011/* 1 value pushed */
13 
MDAP[1]\011/* MoveDirectAbsPt */
PUSHW[ ]\011/* 1 value pushed */
21 
MDAP[1]\011/* MoveDirectAbsPt */
IUP[0]\011/* InterpolateUntPts */
IUP[1]\011/* InterpolateUntPts */";
};
width = 370;
}
);
note = asciicircum;
unicode = 005E;
},
{
glyphname = underscore;
layers = (
{
layerId = "8CCE14AF-3337-4F2C-A14C-E3F14A892F52";
paths = (
{
closed = 1;
nodes = (
"793 -53 LINE",
"792 -42 OFFCURVE",
"776 -25 OFFCURVE",
"765 -25 QCURVE SMOOTH",
"25 -25 LINE SMOOTH",
"17 -25 OFFCURVE",
"8 -36 OFFCURVE",
"8 -44 QCURVE SMOOTH",
"8 -51 OFFCURVE",
"16 -73 OFFCURVE",
"25 -73 QCURVE SMOOTH",
"74 -73 OFFCURVE",
"170 -68 OFFCURVE",
"219 -67 QCURVE SMOOTH",
"362 -64 OFFCURVE",
"643 -60 OFFCURVE",
"786 -60 QCURVE",
"786 -60 LINE"
);
}
);
userData = {
assembly = "SVTCA[0]\011/* SetFreedomAndProjectionVectorToAxis */
PUSHW[ ]\011/* 4 values pushed */
13 2 0 4 
CALL[ ]\011/* CallFunction */
PUSHW[ ]\011/* 1 value pushed */
0 
SRP0[ ]\011/* SetRefPoint0 */
PUSHW[ ]\011/* 1 value pushed */
3 
MDRP[10000]\011/* MoveDirectRelPt */
PUSHW[ ]\011/* 1 value pushed */
3 
MDAP[1]\011/* MoveDirectAbsPt */
IUP[0]\011/* InterpolateUntPts */
IUP[1]\011/* InterpolateUntPts */";
};
width = 806;
}
);
note = underscore;
unicode = 005F;
},
{
glyphname = grave;
layers = (
{
layerId = "8CCE14AF-3337-4F2C-A14C-E3F14A892F52";
paths = (
{
closed = 1;
nodes = (
"193 410 OFFCURVE",
"171 430 OFFCURVE",
"138 458 OFFCURVE",
"98 489 OFFCURVE",
"61 516 OFFCURVE",
"33 534 OFFCURVE",
"28 534 QCURVE SMOOTH",
"20 534 OFFCURVE",
"9 522 OFFCURVE",
"9 513 QCURVE SMOOTH",
"9 496 OFFCURVE",
"32 475 OFFCURVE",
"46 468 QCURVE SMOOTH",
"53 465 OFFCURVE",
"95 442 OFFCURVE",
"141 418 OFFCURVE",
"180 399 OFFCURVE",
"183 399 QCURVE SMOOTH",
"193 399 OFFCURVE",
"193 408 QCURVE",
"193 408 LINE"
);
}
);
userData = {
assembly = "SVTCA[0]\011/* SetFreedomAndProjectionVectorToAxis */
PUSHW[ ]\011/* 1 value pushed */
13 
MDAP[1]\011/* MoveDirectAbsPt */
PUSHW[ ]\011/* 1 value pushed */
2 
MDAP[1]\011/* MoveDirectAbsPt */
IUP[0]\011/* InterpolateUntPts */
IUP[1]\011/* InterpolateUntPts */";
};
width = 211;
}
);
note = grave;
unicode = 0060;
},
{
glyphname = a;
layers = (
{
layerId = "8CCE14AF-3337-4F2C-A14C-E3F14A892F52";
paths = (
{
closed = 1;
nodes = (
"428 199 OFFCURVE",
"414 205 OFFCURVE",
"407 192 QCURVE SMOOTH",
"399 176 OFFCURVE",
"369 119 OFFCURVE",
"332 63 OFFCURVE",
"294 23 OFFCURVE",
"278 24 QCURVE SMOOTH",
"256 24 OFFCURVE",
"268 84 QCURVE SMOOTH",
"273 107 OFFCURVE",
"297 165 OFFCURVE",
"326 220 OFFCURVE",
"353 263 OFFCURVE",
"361 271 QCURVE",
"350 269 OFFCURVE",
"329 274 OFFCURVE",
"319 275 QCURVE SMOOTH",
"295 277 OFFCURVE",
"268 243 OFFCURVE",
"251 211 QCURVE SMOOTH",
"231 174 OFFCURVE",
"188 103 OFFCURVE",
"162 71 QCURVE SMOOTH",
"144 50 OFFCURVE",
"108 27 OFFCURVE",
"81 27 OFFCURVE",
"66 51 OFFCURVE",
"70 77 QCURVE SMOOTH",
"72 91 OFFCURVE",
"83 122 OFFCURVE",
"96 151 OFFCURVE",
"108 173 OFFCURVE",
"111 178 QCURVE SMOOTH",
"138 223 OFFCURVE",
"210 302 OFFCURVE",
"244 321 QCURVE SMOOTH",
"272 336 OFFCURVE",
"321 324 OFFCURVE",
"329 296 QCURVE",
"342 294 OFFCURVE",
"351 314 OFFCURVE",
"340 325 QCURVE SMOOTH",
"319 348 OFFCURVE",
"258 360 OFFCURVE",
"193 344 OFFCURVE",
"130 306 OFFCURVE",
"108 279 QCURVE SMOOTH",
"70 234 OFFCURVE",
"31 147 OFFCURVE",
"21 74 OFFCURVE",
"36 20 OFFCURVE",
"70 -5 OFFCURVE",
"119 5 OFFCURVE",
"148 33 QCURVE SMOOTH",
"170 54 OFFCURVE",
"208 107 OFFCURVE",
"220 127 QCURVE",
"209 88 OFFCURVE",
"212 37 OFFCURVE",
"230 8 OFFCURVE",
"258 -3 OFFCURVE",
"270 -2 QCURVE SMOOTH",
"292 0 OFFCURVE",
"337 41 OFFCURVE",
"377 99 OFFCURVE",
"410 161 OFFCURVE",
"421 184 QCURVE",
"421 184 LINE"
);
}
);
width = 350;
}
);
note = a;
unicode = 0061;
},
{
glyphname = b;
layers = (
{
layerId = "8CCE14AF-3337-4F2C-A14C-E3F14A892F52";
paths = (
{
closed = 1;
nodes = (
"240 537 OFFCURVE",
"191 448 OFFCURVE",
"139 348 OFFCURVE",
"86 244 OFFCURVE",
"37 151 OFFCURVE",
"-7 74 OFFCURVE",
"-24 52 QCURVE SMOOTH",
"-29 45 OFFCURVE",
"-22 34 OFFCURVE",
"-16 39 QCURVE SMOOTH",
"-9 46 OFFCURVE",
"14 79 OFFCURVE",
"41 126 OFFCURVE",
"73 184 OFFCURVE",
"90 217 QCURVE",
"75 186 OFFCURVE",
"52 130 OFFCURVE",
"46 107 QCURVE SMOOTH",
"39 80 OFFCURVE",
"49 33 OFFCURVE",
"82 3 OFFCURVE",
"141 -5 OFFCURVE",
"184 7 QCURVE SMOOTH",
"215 15 OFFCURVE",
"269 56 OFFCURVE",
"311 112 OFFCURVE",
"340 176 OFFCURVE",
"347 208 QCURVE SMOOTH",
"352 232 OFFCURVE",
"349 279 OFFCURVE",
"330 318 OFFCURVE",
"294 345 OFFCURVE",
"267 349 QCURVE SMOOTH",
"250 352 OFFCURVE",
"233 345 OFFCURVE",
"231 336 OFFCURVE",
"242 328 OFFCURVE",
"253 329 QCURVE SMOOTH",
"277 331 OFFCURVE",
"302 312 OFFCURVE",
"309 276 OFFCURVE",
"301 230 OFFCURVE",
"291 205 QCURVE SMOOTH",
"278 175 OFFCURVE",
"237 106 OFFCURVE",
"216 81 QCURVE SMOOTH",
"163 17 OFFCURVE",
"130 24 QCURVE SMOOTH",
"104 29 OFFCURVE",
"92 82 OFFCURVE",
"105 157 OFFCURVE",
"137 242 OFFCURVE",
"156 280 QCURVE SMOOTH",
"181 330 OFFCURVE",
"246 436 OFFCURVE",
"309 529 OFFCURVE",
"362 600 OFFCURVE",
"376 614 QCURVE",
"365 612 OFFCURVE",
"344 617 OFFCURVE",
"334 618 QCURVE SMOOTH",
"329 618 LINE SMOOTH",
"297 619 OFFCURVE",
"262 569 QCURVE",
"262 569 LINE"
);
}
);
userData = {
assembly = "SVTCA[0]\011/* SetFreedomAndProjectionVectorToAxis */
PUSHW[ ]\011/* 1 value pushed */
2 
MDAP[1]\011/* MoveDirectAbsPt */
PUSHW[ ]\011/* 1 value pushed */
6 
MDAP[1]\011/* MoveDirectAbsPt */
IUP[0]\011/* InterpolateUntPts */
IUP[1]\011/* InterpolateUntPts */";
};
width = 345;
}
);
note = b;
unicode = 0062;
},
{
glyphname = c;
layers = (
{
layerId = "8CCE14AF-3337-4F2C-A14C-E3F14A892F52";
paths = (
{
closed = 1;
nodes = (
"345 198 OFFCURVE",
"331 204 OFFCURVE",
"324 190 QCURVE SMOOTH",
"309 160 OFFCURVE",
"275 98 OFFCURVE",
"233 47 OFFCURVE",
"182 14 OFFCURVE",
"149 14 QCURVE SMOOTH",
"117 14 OFFCURVE",
"90 61 OFFCURVE",
"90 91 QCURVE SMOOTH",
"90 113 OFFCURVE",
"102 159 OFFCURVE",
"119 200 OFFCURVE",
"138 234 OFFCURVE",
"145 244 QCURVE SMOOTH",
"155 259 OFFCURVE",
"181 290 OFFCURVE",
"210 314 OFFCURVE",
"238 330 OFFCURVE",
"252 330 QCURVE SMOOTH",
"266 330 OFFCURVE",
"279 307 OFFCURVE",
"272 281 QCURVE SMOOTH",
"268 267 OFFCURVE",
"249 240 OFFCURVE",
"241 230 QCURVE",
"249 222 OFFCURVE",
"271 227 OFFCURVE",
"291 245 OFFCURVE",
"306 271 OFFCURVE",
"308 283 QCURVE SMOOTH",
"312 314 OFFCURVE",
"277 352 OFFCURVE",
"239 352 QCURVE SMOOTH",
"203 352 OFFCURVE",
"133 311 OFFCURVE",
"105 273 QCURVE SMOOTH",
"87 249 OFFCURVE",
"56 189 OFFCURVE",
"37 127 OFFCURVE",
"34 69 OFFCURVE",
"54 24 OFFCURVE",
"100 -4 OFFCURVE",
"139 -4 QCURVE SMOOTH",
"180 -4 OFFCURVE",
"239 25 OFFCURVE",
"284 76 OFFCURVE",
"320 144 OFFCURVE",
"338 183 QCURVE",
"338 183 LINE"
);
}
);
userData = {
assembly = "SVTCA[0]\011/* SetFreedomAndProjectionVectorToAxis */
PUSHW[ ]\011/* 1 value pushed */
0 
RCVT[ ]\011/* ReadCVT */
IF[ ]\011/* If */
PUSHW[ ]\011/* 1 value pushed */
5 
MDAP[1]\011/* MoveDirectAbsPt */
ELSE[ ]\011/* Else */
PUSHW[ ]\011/* 2 values pushed */
5 5 
MIAP[0]\011/* MoveIndirectAbsPt */
EIF[ ]\011/* EndIf */
PUSHW[ ]\011/* 4 values pushed */
15 1 29 4 
CALL[ ]\011/* CallFunction */
IUP[0]\011/* InterpolateUntPts */
IUP[1]\011/* InterpolateUntPts */";
};
width = 260;
}
);
note = c;
unicode = 0063;
},
{
glyphname = d;
layers = (
{
layerId = "8CCE14AF-3337-4F2C-A14C-E3F14A892F52";
paths = (
{
closed = 1;
nodes = (
"541 620 OFFCURVE",
"519 625 OFFCURVE",
"509 626 QCURVE SMOOTH",
"485 628 OFFCURVE",
"455 608 OFFCURVE",
"441 574 QCURVE SMOOTH",
"423 533 OFFCURVE",
"361 406 OFFCURVE",
"325 337 QCURVE",
"298 353 OFFCURVE",
"240 357 OFFCURVE",
"183 339 OFFCURVE",
"131 303 OFFCURVE",
"110 279 QCURVE SMOOTH",
"83 246 OFFCURVE",
"39 159 OFFCURVE",
"22 77 OFFCURVE",
"41 14 OFFCURVE",
"76 4 QCURVE SMOOTH",
"102 -3 OFFCURVE",
"146 16 OFFCURVE",
"182 52 OFFCURVE",
"211 97 OFFCURVE",
"222 115 QCURVE",
"214 84 OFFCURVE",
"223 40 OFFCURVE",
"231 27 QCURVE SMOOTH",
"241 13 OFFCURVE",
"264 0 OFFCURVE",
"276 0 QCURVE SMOOTH",
"306 0 OFFCURVE",
"357 42 OFFCURVE",
"399 102 OFFCURVE",
"429 165 OFFCURVE",
"438 186 QCURVE SMOOTH",
"445 201 OFFCURVE",
"429 206 OFFCURVE",
"423 192 QCURVE SMOOTH",
"415 176 OFFCURVE",
"387 120 OFFCURVE",
"352 66 OFFCURVE",
"313 26 OFFCURVE",
"294 26 QCURVE SMOOTH",
"276 26 OFFCURVE",
"267 53 OFFCURVE",
"272 89 OFFCURVE",
"284 124 OFFCURVE",
"288 133 QCURVE SMOOTH",
"302 167 OFFCURVE",
"349 263 OFFCURVE",
"402 367 OFFCURVE",
"459 471 OFFCURVE",
"508 556 OFFCURVE",
"545 615 OFFCURVE",
"552 622 QCURVE",
"552 622 LINE"
);
},
{
closed = 1;
nodes = (
"282 255 OFFCURVE",
"211 134 OFFCURVE",
"183 95 QCURVE SMOOTH",
"151 50 OFFCURVE",
"100 24 OFFCURVE",
"74 48 OFFCURVE",
"79 114 OFFCURVE",
"104 161 QCURVE SMOOTH",
"124 198 OFFCURVE",
"181 271 OFFCURVE",
"242 322 OFFCURVE",
"298 339 OFFCURVE",
"317 321 QCURVE",
"317 321 LINE"
);
}
);
userData = {
assembly = "SVTCA[0]\011/* SetFreedomAndProjectionVectorToAxis */
PUSHW[ ]\011/* 1 value pushed */
0 
RCVT[ ]\011/* ReadCVT */
IF[ ]\011/* If */
PUSHW[ ]\011/* 1 value pushed */
25 
MDAP[1]\011/* MoveDirectAbsPt */
ELSE[ ]\011/* Else */
PUSHW[ ]\011/* 2 values pushed */
25 5 
MIAP[0]\011/* MoveIndirectAbsPt */
EIF[ ]\011/* EndIf */
PUSHW[ ]\011/* 1 value pushed */
0 
RCVT[ ]\011/* ReadCVT */
IF[ ]\011/* If */
PUSHW[ ]\011/* 1 value pushed */
36 
MDAP[1]\011/* MoveDirectAbsPt */
ELSE[ ]\011/* Else */
PUSHW[ ]\011/* 2 values pushed */
36 5 
MIAP[0]\011/* MoveIndirectAbsPt */
EIF[ ]\011/* EndIf */
PUSHW[ ]\011/* 1 value pushed */
25 
SRP0[ ]\011/* SetRefPoint0 */
PUSHW[ ]\011/* 2 values pushed */
12 2 
MIRP[10100]\011/* MoveIndirectRelPt */
NPUSHW[ ]\011/* 33 values pushed */
7 12 23 12 39 12 55 12 71 12 87 12 103 12 119 12 135 12 151 12 167 12 183 12 199 12 215 12 231 12 247 12 16 
DELTAP1[ ]\011/* DeltaExceptionP1 */
NPUSHW[ ]\011/* 33 values pushed */
7 12 23 12 39 12 55 12 71 12 87 12 103 12 119 12 135 12 151 12 167 12 183 12 199 12 215 12 231 12 247 12 16 
DELTAP2[ ]\011/* DeltaExceptionP2 */
NPUSHW[ ]\011/* 33 values pushed */
7 12 23 12 39 12 55 12 71 12 87 12 103 12 119 12 135 12 151 12 167 12 183 12 199 12 215 12 231 12 247 12 16 
DELTAP3[ ]\011/* DeltaExceptionP3 */
IUP[0]\011/* InterpolateUntPts */
IUP[1]\011/* InterpolateUntPts */";
};
width = 367;
}
);
note = d;
unicode = 0064;
},
{
glyphname = e;
layers = (
{
layerId = "8CCE14AF-3337-4F2C-A14C-E3F14A892F52";
paths = (
{
closed = 1;
nodes = (
"322 195 OFFCURVE",
"319 202 OFFCURVE",
"312 202 OFFCURVE",
"303 195 OFFCURVE",
"300 188 QCURVE SMOOTH",
"291 168 OFFCURVE",
"262 110 OFFCURVE",
"221 56 OFFCURVE",
"168 17 OFFCURVE",
"135 17 QCURVE SMOOTH",
"110 17 OFFCURVE",
"89 50 OFFCURVE",
"86 94 OFFCURVE",
"95 140 OFFCURVE",
"101 154 QCURVE",
"111 154 OFFCURVE",
"143 161 OFFCURVE",
"179 173 OFFCURVE",
"212 189 OFFCURVE",
"224 198 QCURVE SMOOTH",
"248 216 OFFCURVE",
"282 258 OFFCURVE",
"298 299 OFFCURVE",
"293 333 OFFCURVE",
"279 344 QCURVE SMOOTH",
"262 356 OFFCURVE",
"219 356 OFFCURVE",
"173 337 OFFCURVE",
"127 301 OFFCURVE",
"108 279 QCURVE SMOOTH",
"91 259 OFFCURVE",
"63 213 OFFCURVE",
"42 164 OFFCURVE",
"31 114 OFFCURVE",
"31 92 QCURVE SMOOTH",
"32 44 OFFCURVE",
"89 -4 OFFCURVE",
"127 -4 QCURVE SMOOTH",
"169 -4 OFFCURVE",
"228 33 OFFCURVE",
"272 90 OFFCURVE",
"304 157 OFFCURVE",
"318 187 QCURVE",
"318 187 LINE"
);
},
{
closed = 1;
nodes = (
"200 204 OFFCURVE",
"169 187 OFFCURVE",
"139 176 OFFCURVE",
"115 171 OFFCURVE",
"108 171 QCURVE",
"115 185 OFFCURVE",
"148 241 OFFCURVE",
"168 265 QCURVE SMOOTH",
"199 302 OFFCURVE",
"241 333 OFFCURVE",
"265 334 OFFCURVE",
"271 310 OFFCURVE",
"261 274 OFFCURVE",
"234 232 OFFCURVE",
"214 215 QCURVE",
"214 215 LINE"
);
}
);
userData = {
assembly = "SVTCA[0]\011/* SetFreedomAndProjectionVectorToAxis */
PUSHW[ ]\011/* 1 value pushed */
0 
RCVT[ ]\011/* ReadCVT */
IF[ ]\011/* If */
PUSHW[ ]\011/* 1 value pushed */
5 
MDAP[1]\011/* MoveDirectAbsPt */
ELSE[ ]\011/* Else */
PUSHW[ ]\011/* 2 values pushed */
5 5 
MIAP[0]\011/* MoveIndirectAbsPt */
EIF[ ]\011/* EndIf */
PUSHW[ ]\011/* 2 values pushed */
33 1 
MIRP[10100]\011/* MoveIndirectRelPt */
NPUSHW[ ]\011/* 33 values pushed */
7 33 23 33 39 33 55 33 71 33 87 33 103 33 119 33 135 33 151 33 167 33 183 33 199 33 215 33 231 33 247 33 16 
DELTAP1[ ]\011/* DeltaExceptionP1 */
NPUSHW[ ]\011/* 33 values pushed */
7 33 23 33 39 33 55 33 71 33 87 33 103 33 119 33 135 33 151 33 167 33 183 33 199 33 215 33 231 33 247 33 16 
DELTAP2[ ]\011/* DeltaExceptionP2 */
NPUSHW[ ]\011/* 33 values pushed */
7 33 23 33 39 33 55 33 71 33 87 33 103 33 119 33 135 33 151 33 167 33 183 33 199 33 215 33 231 33 247 33 16 
DELTAP3[ ]\011/* DeltaExceptionP3 */
IUP[0]\011/* InterpolateUntPts */
IUP[1]\011/* InterpolateUntPts */";
};
width = 246;
}
);
note = e;
unicode = 0065;
},
{
glyphname = f;
layers = (
{
layerId = "8CCE14AF-3337-4F2C-A14C-E3F14A892F52";
paths = (
{
closed = 1;
nodes = (
"352 619 OFFCURVE",
"328 626 OFFCURVE",
"319 626 QCURVE SMOOTH",
"287 626 OFFCURVE",
"251 588 OFFCURVE",
"234 556 QCURVE SMOOTH",
"213 517 OFFCURVE",
"164 420 OFFCURVE",
"111 309 OFFCURVE",
"56 190 OFFCURVE",
"29 129 QCURVE",
"10 132 OFFCURVE",
"-7 118 QCURVE SMOOTH",
"-14 113 OFFCURVE",
"-24 93 OFFCURVE",
"-27 68 OFFCURVE",
"-22 41 OFFCURVE",
"-14 29 QCURVE",
"-36 -23 OFFCURVE",
"-74 -119 OFFCURVE",
"-102 -203 OFFCURVE",
"-118 -272 OFFCURVE",
"-117 -296 QCURVE SMOOTH",
"-116 -326 OFFCURVE",
"-86 -347 OFFCURVE",
"-65 -348 QCURVE SMOOTH",
"-25 -350 OFFCURVE",
"43 -281 OFFCURVE",
"89 -176 OFFCURVE",
"111 -54 OFFCURVE",
"107 -1 QCURVE",
"134 -1 OFFCURVE",
"181 34 OFFCURVE",
"222 90 OFFCURVE",
"256 156 OFFCURVE",
"270 188 QCURVE SMOOTH",
"275 199 OFFCURVE",
"260 205 OFFCURVE",
"255 195 QCURVE SMOOTH",
"243 169 OFFCURVE",
"210 106 OFFCURVE",
"171 52 OFFCURVE",
"127 16 OFFCURVE",
"105 18 QCURVE",
"104 21 OFFCURVE",
"103 28 OFFCURVE",
"102 31 QCURVE SMOOTH",
"97 57 OFFCURVE",
"80 94 OFFCURVE",
"70 106 QCURVE",
"107 190 OFFCURVE",
"191 356 OFFCURVE",
"270 496 OFFCURVE",
"339 599 OFFCURVE",
"363 621 QCURVE",
"363 621 LINE"
);
},
{
closed = 1;
nodes = (
"78 14 LINE SMOOTH",
"64 14 OFFCURVE",
"43 25 OFFCURVE",
"38 33 QCURVE",
"44 47 OFFCURVE",
"54 69 OFFCURVE",
"60 83 QCURVE",
"69 72 OFFCURVE",
"75 59 QCURVE SMOOTH",
"82 39 OFFCURVE",
"84 14 QCURVE",
"84 14 LINE"
);
},
{
closed = 1;
nodes = (
"87 -38 OFFCURVE",
"75 -115 OFFCURVE",
"52 -190 OFFCURVE",
"21 -257 OFFCURVE",
"3 -281 QCURVE SMOOTH",
"-12 -301 OFFCURVE",
"-41 -324 OFFCURVE",
"-61 -319 OFFCURVE",
"-65 -280 OFFCURVE",
"-55 -236 QCURVE SMOOTH",
"-43 -186 OFFCURVE",
"2 -55 OFFCURVE",
"28 11 QCURVE",
"38 3 OFFCURVE",
"71 -7 OFFCURVE",
"86 -5 QCURVE",
"86 -5 LINE"
);
}
);
userData = {
assembly = "PUSHW[ ]\011/* 4 values pushed */
24 4 66 4 
CALL[ ]\011/* CallFunction */
NPUSHW[ ]\011/* 33 values pushed */
6 24 22 24 38 24 54 24 70 24 86 24 102 24 118 24 134 24 150 24 166 24 182 24 198 24 214 24 230 24 246 24 16 
DELTAP1[ ]\011/* DeltaExceptionP1 */
NPUSHW[ ]\011/* 33 values pushed */
6 24 22 24 38 24 54 24 70 24 86 24 102 24 118 24 134 24 150 24 166 24 182 24 198 24 214 24 230 24 246 24 16 
DELTAP2[ ]\011/* DeltaExceptionP2 */
NPUSHW[ ]\011/* 33 values pushed */
6 24 22 24 38 24 54 24 70 24 86 24 102 24 118 24 134 24 150 24 166 24 182 24 198 24 214 24 230 24 246 24 16 
DELTAP3[ ]\011/* DeltaExceptionP3 */
PUSHW[ ]\011/* 1 value pushed */
24 
SRP0[ ]\011/* SetRefPoint0 */
PUSHW[ ]\011/* 1 value pushed */
8 
MDRP[10000]\011/* MoveDirectRelPt */
PUSHW[ ]\011/* 1 value pushed */
8 
MDAP[1]\011/* MoveDirectAbsPt */
PUSHW[ ]\011/* 1 value pushed */
66 
SRP0[ ]\011/* SetRefPoint0 */
PUSHW[ ]\011/* 1 value pushed */
55 
MDRP[10000]\011/* MoveDirectRelPt */
PUSHW[ ]\011/* 1 value pushed */
55 
MDAP[1]\011/* MoveDirectAbsPt */
SVTCA[0]\011/* SetFreedomAndProjectionVectorToAxis */
PUSHW[ ]\011/* 1 value pushed */
0 
MDAP[1]\011/* MoveDirectAbsPt */
PUSHW[ ]\011/* 1 value pushed */
52 
MDAP[1]\011/* MoveDirectAbsPt */
PUSHW[ ]\011/* 1 value pushed */
0 
RCVT[ ]\011/* ReadCVT */
IF[ ]\011/* If */
PUSHW[ ]\011/* 1 value pushed */
24 
MDAP[1]\011/* MoveDirectAbsPt */
ELSE[ ]\011/* Else */
PUSHW[ ]\011/* 2 values pushed */
24 5 
MIAP[0]\011/* MoveIndirectAbsPt */
EIF[ ]\011/* EndIf */
PUSHW[ ]\011/* 1 value pushed */
0 
RCVT[ ]\011/* ReadCVT */
IF[ ]\011/* If */
PUSHW[ ]\011/* 1 value pushed */
66 
MDAP[1]\011/* MoveDirectAbsPt */
ELSE[ ]\011/* Else */
PUSHW[ ]\011/* 2 values pushed */
66 5 
MIAP[0]\011/* MoveIndirectAbsPt */
EIF[ ]\011/* EndIf */
PUSHW[ ]\011/* 3 values pushed */
59 66 52 
SRP1[ ]\011/* SetRefPoint1 */
SRP2[ ]\011/* SetRefPoint2 */
IP[ ]\011/* InterpolatePts */
PUSHW[ ]\011/* 3 values pushed */
69 66 52 
SRP1[ ]\011/* SetRefPoint1 */
SRP2[ ]\011/* SetRefPoint2 */
IP[ ]\011/* InterpolatePts */
IUP[0]\011/* InterpolateUntPts */
IUP[1]\011/* InterpolateUntPts */";
};
width = 198;
}
);
note = f;
unicode = 0066;
},
{
glyphname = g;
layers = (
{
layerId = "8CCE14AF-3337-4F2C-A14C-E3F14A892F52";
paths = (
{
closed = 1;
nodes = (
"470 199 OFFCURVE",
"455 205 OFFCURVE",
"448 192 QCURVE SMOOTH",
"440 178 OFFCURVE",
"415 119 OFFCURVE",
"390 86 QCURVE SMOOTH",
"375 66 OFFCURVE",
"338 34 OFFCURVE",
"320 21 QCURVE",
"336 81 OFFCURVE",
"343 204 OFFCURVE",
"333 264 QCURVE",
"327 259 OFFCURVE",
"310 259 OFFCURVE",
"292 255 OFFCURVE",
"276 241 OFFCURVE",
"271 224 QCURVE SMOOTH",
"264 200 OFFCURVE",
"224 128 OFFCURVE",
"173 63 OFFCURVE",
"118 24 OFFCURVE",
"96 33 QCURVE SMOOTH",
"76 42 OFFCURVE",
"75 91 OFFCURVE",
"100 156 OFFCURVE",
"146 228 OFFCURVE",
"173 259 QCURVE SMOOTH",
"196 284 OFFCURVE",
"245 322 OFFCURVE",
"289 337 OFFCURVE",
"324 323 OFFCURVE",
"334 296 QCURVE SMOOTH",
"338 285 OFFCURVE",
"352 283 OFFCURVE",
"361 294 OFFCURVE",
"358 314 OFFCURVE",
"345 325 QCURVE SMOOTH",
"317 347 OFFCURVE",
"254 358 OFFCURVE",
"192 343 OFFCURVE",
"135 306 OFFCURVE",
"113 279 QCURVE SMOOTH",
"85 246 OFFCURVE",
"40 164 OFFCURVE",
"22 85 OFFCURVE",
"41 20 OFFCURVE",
"79 4 QCURVE",
"109 -5 OFFCURVE",
"167 29 OFFCURVE",
"218 87 OFFCURVE",
"259 154 OFFCURVE",
"271 177 QCURVE",
"273 169 OFFCURVE",
"273 124 OFFCURVE",
"270 95 QCURVE SMOOTH",
"267 65 OFFCURVE",
"256 10 OFFCURVE",
"247 -16 QCURVE",
"218 -28 OFFCURVE",
"155 -48 OFFCURVE",
"88 -72 OFFCURVE",
"18 -102 OFFCURVE",
"-19 -124 QCURVE SMOOTH",
"-55 -145 OFFCURVE",
"-106 -202 OFFCURVE",
"-106 -239 QCURVE SMOOTH",
"-106 -316 OFFCURVE",
"-12 -316 QCURVE SMOOTH",
"42 -316 OFFCURVE",
"144 -256 OFFCURVE",
"229 -166 OFFCURVE",
"292 -59 OFFCURVE",
"309 -12 QCURVE",
"337 1 OFFCURVE",
"377 36 OFFCURVE",
"412 83 OFFCURVE",
"444 145 OFFCURVE",
"463 184 QCURVE",
"463 184 LINE"
);
},
{
closed = 1;
nodes = (
"217 -94 OFFCURVE",
"180 -146 QCURVE SMOOTH",
"159 -174 OFFCURVE",
"113 -225 OFFCURVE",
"90 -244 QCURVE SMOOTH",
"81 -251 OFFCURVE",
"51 -269 OFFCURVE",
"17 -285 OFFCURVE",
"-20 -296 OFFCURVE",
"-36 -296 QCURVE SMOOTH",
"-67 -296 OFFCURVE",
"-88 -263 OFFCURVE",
"-77 -218 OFFCURVE",
"-42 -169 OFFCURVE",
"-18 -153 QCURVE SMOOTH",
"30 -121 OFFCURVE",
"147 -76 OFFCURVE",
"202 -57 QCURVE SMOOTH",
"211 -54 OFFCURVE",
"229 -48 OFFCURVE",
"237 -45 QCURVE",
"237 -45 LINE"
);
}
);
userData = {
assembly = "SVTCA[0]\011/* SetFreedomAndProjectionVectorToAxis */
PUSHW[ ]\011/* 4 values pushed */
89 1 10 4 
CALL[ ]\011/* CallFunction */
IUP[0]\011/* InterpolateUntPts */
IUP[1]\011/* InterpolateUntPts */";
};
width = 392;
}
);
note = g;
unicode = 0067;
},
{
glyphname = h;
layers = (
{
layerId = "8CCE14AF-3337-4F2C-A14C-E3F14A892F52";
paths = (
{
closed = 1;
nodes = (
"410 199 OFFCURVE",
"395 207 OFFCURVE",
"388 193 QCURVE SMOOTH",
"380 177 OFFCURVE",
"349 117 OFFCURVE",
"311 58 OFFCURVE",
"270 16 OFFCURVE",
"253 17 QCURVE SMOOTH",
"243 18 OFFCURVE",
"232 39 OFFCURVE",
"238 70 QCURVE SMOOTH",
"240 83 OFFCURVE",
"253 119 OFFCURVE",
"271 160 OFFCURVE",
"292 204 OFFCURVE",
"303 225 QCURVE SMOOTH",
"328 274 OFFCURVE",
"358 328 QCURVE",
"345 332 OFFCURVE",
"298 316 OFFCURVE",
"244 287 OFFCURVE",
"191 250 OFFCURVE",
"173 234 QCURVE SMOOTH",
"153 217 OFFCURVE",
"112 172 OFFCURVE",
"92 146 QCURVE",
"112 188 OFFCURVE",
"160 282 OFFCURVE",
"210 376 OFFCURVE",
"259 465 OFFCURVE",
"302 538 OFFCURVE",
"337 592 OFFCURVE",
"348 603 QCURVE",
"337 601 OFFCURVE",
"316 606 OFFCURVE",
"306 607 QCURVE SMOOTH",
"282 609 OFFCURVE",
"252 576 OFFCURVE",
"235 544 QCURVE SMOOTH",
"199 477 OFFCURVE",
"126 335 OFFCURVE",
"57 194 OFFCURVE",
"-10 56 OFFCURVE",
"-40 -7 QCURVE",
"-32 -2 OFFCURVE",
"-17 -2 OFFCURVE",
"-6 -1 QCURVE SMOOTH",
"10 -1 OFFCURVE",
"26 3 OFFCURVE",
"31 14 QCURVE SMOOTH",
"74 97 OFFCURVE",
"145 189 OFFCURVE",
"171 212 QCURVE SMOOTH",
"200 239 OFFCURVE",
"236 259 OFFCURVE",
"253 255 OFFCURVE",
"251 233 OFFCURVE",
"242 218 QCURVE SMOOTH",
"221 184 OFFCURVE",
"193 133 OFFCURVE",
"187 113 QCURVE SMOOTH",
"176 78 OFFCURVE",
"180 33 OFFCURVE",
"199 6 OFFCURVE",
"227 -4 OFFCURVE",
"240 -4 QCURVE SMOOTH",
"268 -4 OFFCURVE",
"316 35 OFFCURVE",
"357 92 OFFCURVE",
"390 157 OFFCURVE",
"402 183 QCURVE",
"402 183 LINE"
);
}
);
userData = {
assembly = "SVTCA[0]\011/* SetFreedomAndProjectionVectorToAxis */
PUSHW[ ]\011/* 1 value pushed */
0 
RCVT[ ]\011/* ReadCVT */
IF[ ]\011/* If */
PUSHW[ ]\011/* 1 value pushed */
5 
MDAP[1]\011/* MoveDirectAbsPt */
ELSE[ ]\011/* Else */
PUSHW[ ]\011/* 2 values pushed */
5 5 
MIAP[0]\011/* MoveIndirectAbsPt */
EIF[ ]\011/* EndIf */
PUSHW[ ]\011/* 1 value pushed */
0 
RCVT[ ]\011/* ReadCVT */
IF[ ]\011/* If */
PUSHW[ ]\011/* 1 value pushed */
24 
MDAP[1]\011/* MoveDirectAbsPt */
ELSE[ ]\011/* Else */
PUSHW[ ]\011/* 2 values pushed */
24 5 
MIAP[0]\011/* MoveIndirectAbsPt */
EIF[ ]\011/* EndIf */
PUSHW[ ]\011/* 1 value pushed */
0 
RCVT[ ]\011/* ReadCVT */
IF[ ]\011/* If */
PUSHW[ ]\011/* 1 value pushed */
27 
MDAP[1]\011/* MoveDirectAbsPt */
ELSE[ ]\011/* Else */
PUSHW[ ]\011/* 2 values pushed */
27 5 
MIAP[0]\011/* MoveIndirectAbsPt */
EIF[ ]\011/* EndIf */
PUSHW[ ]\011/* 1 value pushed */
5 
SRP0[ ]\011/* SetRefPoint0 */
PUSHW[ ]\011/* 2 values pushed */
63 1 
MIRP[10100]\011/* MoveIndirectRelPt */
NPUSHW[ ]\011/* 33 values pushed */
7 63 23 63 39 63 55 63 71 63 87 63 103 63 119 63 135 63 151 63 167 63 183 63 199 63 215 63 231 63 247 63 16 
DELTAP1[ ]\011/* DeltaExceptionP1 */
NPUSHW[ ]\011/* 33 values pushed */
7 63 23 63 39 63 55 63 71 63 87 63 103 63 119 63 135 63 151 63 167 63 183 63 199 63 215 63 231 63 247 63 16 
DELTAP2[ ]\011/* DeltaExceptionP2 */
NPUSHW[ ]\011/* 33 values pushed */
7 63 23 63 39 63 55 63 71 63 87 63 103 63 119 63 135 63 151 63 167 63 183 63 199 63 215 63 231 63 247 63 16 
DELTAP3[ ]\011/* DeltaExceptionP3 */
IUP[0]\011/* InterpolateUntPts */
IUP[1]\011/* InterpolateUntPts */";
};
width = 332;
}
);
note = h;
unicode = 0068;
},
{
glyphname = i;
layers = (
{
layerId = "8CCE14AF-3337-4F2C-A14C-E3F14A892F52";
paths = (
{
closed = 1;
nodes = (
"214 435 OFFCURVE",
"193 459 OFFCURVE",
"176 459 QCURVE SMOOTH",
"159 459 OFFCURVE",
"131 435 OFFCURVE",
"128 418 QCURVE SMOOTH",
"126 401 OFFCURVE",
"146 377 OFFCURVE",
"163 377 QCURVE SMOOTH",
"180 377 OFFCURVE",
"208 401 OFFCURVE",
"211 418 QCURVE",
"211 418 LINE"
);
},
{
closed = 1;
nodes = (
"71 87 OFFCURVE",
"75 97 OFFCURVE",
"77 102 QCURVE SMOOTH",
"80 107 OFFCURVE",
"82 114 QCURVE",
"162 301 LINE SMOOTH",
"170 319 OFFCURVE",
"165 336 OFFCURVE",
"141 336 QCURVE SMOOTH",
"86 335 LINE",
"89 331 OFFCURVE",
"102 307 OFFCURVE",
"96 293 QCURVE SMOOTH",
"32 130 LINE SMOOTH",
"24 110 OFFCURVE",
"18 65 OFFCURVE",
"28 26 OFFCURVE",
"58 0 OFFCURVE",
"86 0 QCURVE SMOOTH",
"114 0 OFFCURVE",
"162 41 OFFCURVE",
"203 100 OFFCURVE",
"233 162 OFFCURVE",
"243 183 QCURVE SMOOTH",
"250 198 OFFCURVE",
"236 206 OFFCURVE",
"230 192 QCURVE SMOOTH",
"209 150 OFFCURVE",
"161 66 OFFCURVE",
"136 41 QCURVE SMOOTH",
"128 33 OFFCURVE",
"102 20 OFFCURVE",
"91 22 QCURVE SMOOTH",
"70 24 OFFCURVE",
"63 60 OFFCURVE",
"70 85 QCURVE",
"70 85 LINE"
);
}
);
userData = {
assembly = "SVTCA[0]\011/* SetFreedomAndProjectionVectorToAxis */
PUSHW[ ]\011/* 1 value pushed */
0 
RCVT[ ]\011/* ReadCVT */
IF[ ]\011/* If */
PUSHW[ ]\011/* 1 value pushed */
29 
MDAP[1]\011/* MoveDirectAbsPt */
ELSE[ ]\011/* Else */
PUSHW[ ]\011/* 2 values pushed */
29 5 
MIAP[0]\011/* MoveIndirectAbsPt */
EIF[ ]\011/* EndIf */
PUSHW[ ]\011/* 3 values pushed */
9 3 3 
CALL[ ]\011/* CallFunction */
IUP[0]\011/* InterpolateUntPts */
IUP[1]\011/* InterpolateUntPts */";
};
width = 174;
}
);
leftKerningGroup = i;
note = i;
unicode = 0069;
},
{
glyphname = j;
layers = (
{
layerId = "8CCE14AF-3337-4F2C-A14C-E3F14A892F52";
paths = (
{
closed = 1;
nodes = (
"53 149 OFFCURVE",
"36 114 OFFCURVE",
"17 76 OFFCURVE",
"-2 36 OFFCURVE",
"-11 18 QCURVE SMOOTH",
"-18 4 OFFCURVE",
"-35 -26 OFFCURVE",
"-43 -40 QCURVE",
"-104 -57 OFFCURVE",
"-235 -88 OFFCURVE",
"-286 -112 QCURVE SMOOTH",
"-315 -126 OFFCURVE",
"-366 -166 OFFCURVE",
"-380 -194 QCURVE SMOOTH",
"-391 -215 OFFCURVE",
"-397 -258 OFFCURVE",
"-380 -294 OFFCURVE",
"-338 -316 OFFCURVE",
"-300 -316 QCURVE SMOOTH",
"-245 -316 OFFCURVE",
"-151 -265 OFFCURVE",
"-75 -186 OFFCURVE",
"-14 -92 OFFCURVE",
"10 -50 QCURVE",
"64 -31 OFFCURVE",
"133 8 OFFCURVE",
"182 60 OFFCURVE",
"222 132 OFFCURVE",
"248 184 QCURVE SMOOTH",
"255 199 OFFCURVE",
"241 206 OFFCURVE",
"234 193 QCURVE SMOOTH",
"226 179 OFFCURVE",
"198 121 OFFCURVE",
"174 86 QCURVE SMOOTH",
"157 61 OFFCURVE",
"124 29 OFFCURVE",
"88 7 OFFCURVE",
"49 -9 OFFCURVE",
"27 -18 QCURVE",
"44 15 OFFCURVE",
"75 81 OFFCURVE",
"89 114 QCURVE SMOOTH",
"169 301 LINE SMOOTH",
"177 319 OFFCURVE",
"172 336 OFFCURVE",
"148 336 QCURVE SMOOTH",
"93 335 LINE",
"96 331 OFFCURVE",
"110 307 OFFCURVE",
"103 293 QCURVE SMOOTH",
"50 178 LINE SMOOTH",
"45 168 OFFCURVE",
"54 162 OFFCURVE",
"59 162 QCURVE",
"59 162 LINE"
);
},
{
closed = 1;
nodes = (
"-67 -82 OFFCURVE",
"-78 -101 OFFCURVE",
"-84 -109 QCURVE SMOOTH",
"-101 -133 OFFCURVE",
"-155 -197 OFFCURVE",
"-220 -255 OFFCURVE",
"-291 -296 OFFCURVE",
"-324 -296 QCURVE SMOOTH",
"-356 -296 OFFCURVE",
"-376 -258 OFFCURVE",
"-358 -205 OFFCURVE",
"-308 -151 OFFCURVE",
"-269 -134 QCURVE SMOOTH",
"-248 -125 OFFCURVE",
"-196 -108 OFFCURVE",
"-141 -92 OFFCURVE",
"-86 -78 OFFCURVE",
"-62 -72 QCURVE",
"-62 -72 LINE"
);
},
{
closed = 1;
nodes = (
"214 435 OFFCURVE",
"193 459 OFFCURVE",
"176 459 QCURVE SMOOTH",
"159 459 OFFCURVE",
"131 435 OFFCURVE",
"128 418 QCURVE SMOOTH",
"126 401 OFFCURVE",
"146 377 OFFCURVE",
"163 377 QCURVE SMOOTH",
"180 377 OFFCURVE",
"208 401 OFFCURVE",
"211 418 QCURVE",
"211 418 LINE"
);
}
);
userData = {
assembly = "SVTCA[0]\011/* SetFreedomAndProjectionVectorToAxis */
PUSHW[ ]\011/* 4 values pushed */
65 1 36 4 
CALL[ ]\011/* CallFunction */
PUSHW[ ]\011/* 3 values pushed */
82 76 3 
CALL[ ]\011/* CallFunction */
IUP[0]\011/* InterpolateUntPts */
IUP[1]\011/* InterpolateUntPts */";
};
width = 177;
}
);
note = j;
unicode = 006A;
},
{
glyphname = k;
layers = (
{
layerId = "8CCE14AF-3337-4F2C-A14C-E3F14A892F52";
paths = (
{
closed = 1;
nodes = (
"240 537 OFFCURVE",
"191 448 OFFCURVE",
"139 348 OFFCURVE",
"86 244 OFFCURVE",
"37 151 OFFCURVE",
"-7 74 OFFCURVE",
"-24 52 QCURVE SMOOTH",
"-29 45 OFFCURVE",
"-22 34 OFFCURVE",
"-16 39 QCURVE SMOOTH",
"-9 46 OFFCURVE",
"14 79 OFFCURVE",
"41 126 OFFCURVE",
"73 184 OFFCURVE",
"90 217 QCURVE",
"67 165 OFFCURVE",
"22 74 OFFCURVE",
"8 22 QCURVE SMOOTH",
"5 12 OFFCURVE",
"5 0 OFFCURVE",
"16 0 QCURVE SMOOTH",
"79 0 LINE",
"73 5 OFFCURVE",
"75 46 OFFCURVE",
"85 95 OFFCURVE",
"100 143 OFFCURVE",
"107 156 QCURVE",
"127 185 OFFCURVE",
"169 230 OFFCURVE",
"189 247 QCURVE SMOOTH",
"232 284 OFFCURVE",
"291 300 OFFCURVE",
"317 283 OFFCURVE",
"309 243 OFFCURVE",
"285 224 QCURVE SMOOTH",
"268 210 OFFCURVE",
"223 192 OFFCURVE",
"206 194 QCURVE",
"198 193 OFFCURVE",
"178 175 OFFCURVE",
"162 145 OFFCURVE",
"154 103 OFFCURVE",
"159 79 QCURVE SMOOTH",
"167 40 OFFCURVE",
"209 -3 OFFCURVE",
"236 -6 QCURVE SMOOTH",
"258 -8 OFFCURVE",
"303 0 OFFCURVE",
"352 39 OFFCURVE",
"405 118 OFFCURVE",
"435 186 QCURVE SMOOTH",
"440 198 OFFCURVE",
"428 207 OFFCURVE",
"422 195 QCURVE SMOOTH",
"401 151 OFFCURVE",
"360 78 OFFCURVE",
"341 58 QCURVE SMOOTH",
"306 21 OFFCURVE",
"250 23 OFFCURVE",
"216 69 OFFCURVE",
"209 143 OFFCURVE",
"223 178 QCURVE",
"256 181 OFFCURVE",
"301 201 OFFCURVE",
"324 217 QCURVE SMOOTH",
"352 237 OFFCURVE",
"383 293 OFFCURVE",
"378 336 OFFCURVE",
"331 353 OFFCURVE",
"283 335 QCURVE SMOOTH",
"261 327 OFFCURVE",
"217 296 OFFCURVE",
"174 257 OFFCURVE",
"136 214 OFFCURVE",
"120 195 QCURVE",
"128 218 OFFCURVE",
"146 260 OFFCURVE",
"156 280 QCURVE SMOOTH",
"181 330 OFFCURVE",
"242 436 OFFCURVE",
"302 529 OFFCURVE",
"357 599 OFFCURVE",
"376 614 QCURVE",
"365 612 OFFCURVE",
"344 617 OFFCURVE",
"334 618 QCURVE SMOOTH",
"329 618 LINE SMOOTH",
"297 619 OFFCURVE",
"262 569 QCURVE",
"262 569 LINE"
);
}
);
userData = {
assembly = "SVTCA[0]\011/* SetFreedomAndProjectionVectorToAxis */
PUSHW[ ]\011/* 1 value pushed */
2 
MDAP[1]\011/* MoveDirectAbsPt */
PUSHW[ ]\011/* 1 value pushed */
6 
MDAP[1]\011/* MoveDirectAbsPt */
PUSHW[ ]\011/* 1 value pushed */
0 
RCVT[ ]\011/* ReadCVT */
IF[ ]\011/* If */
PUSHW[ ]\011/* 1 value pushed */
43 
MDAP[1]\011/* MoveDirectAbsPt */
ELSE[ ]\011/* Else */
PUSHW[ ]\011/* 2 values pushed */
43 5 
MIAP[0]\011/* MoveIndirectAbsPt */
EIF[ ]\011/* EndIf */
PUSHW[ ]\011/* 1 value pushed */
0 
RCVT[ ]\011/* ReadCVT */
IF[ ]\011/* If */
PUSHW[ ]\011/* 1 value pushed */
67 
MDAP[1]\011/* MoveDirectAbsPt */
ELSE[ ]\011/* Else */
PUSHW[ ]\011/* 2 values pushed */
67 5 
MIAP[0]\011/* MoveIndirectAbsPt */
EIF[ ]\011/* EndIf */
PUSHW[ ]\011/* 3 values pushed */
14 43 2 
SRP1[ ]\011/* SetRefPoint1 */
SRP2[ ]\011/* SetRefPoint2 */
IP[ ]\011/* InterpolatePts */
PUSHW[ ]\011/* 3 values pushed */
74 43 2 
SRP1[ ]\011/* SetRefPoint1 */
SRP2[ ]\011/* SetRefPoint2 */
IP[ ]\011/* InterpolatePts */
IUP[0]\011/* InterpolateUntPts */
IUP[1]\011/* InterpolateUntPts */";
};
width = 363;
}
);
note = k;
unicode = 006B;
},
{
glyphname = l;
layers = (
{
layerId = "8CCE14AF-3337-4F2C-A14C-E3F14A892F52";
paths = (
{
closed = 1;
nodes = (
"344 553 OFFCURVE",
"337 619 OFFCURVE",
"297 632 OFFCURVE",
"237 593 OFFCURVE",
"210 548 QCURVE SMOOTH",
"188 512 OFFCURVE",
"144 424 OFFCURVE",
"104 331 OFFCURVE",
"70 237 OFFCURVE",
"58 195 QCURVE SMOOTH",
"54 180 OFFCURVE",
"42 139 OFFCURVE",
"34 95 OFFCURVE",
"33 53 OFFCURVE",
"46 19 OFFCURVE",
"77 -2 OFFCURVE",
"105 -2 QCURVE SMOOTH",
"143 -2 OFFCURVE",
"201 42 OFFCURVE",
"244 102 OFFCURVE",
"274 166 OFFCURVE",
"283 186 QCURVE SMOOTH",
"290 201 OFFCURVE",
"275 204 OFFCURVE",
"268 191 QCURVE SMOOTH",
"263 181 OFFCURVE",
"248 152 OFFCURVE",
"229 118 OFFCURVE",
"206 82 OFFCURVE",
"194 64 QCURVE SMOOTH",
"174 36 OFFCURVE",
"129 15 OFFCURVE",
"94 30 OFFCURVE",
"80 82 OFFCURVE",
"91 127 QCURVE SMOOTH",
"96 146 OFFCURVE",
"108 180 OFFCURVE",
"112 193 QCURVE",
"186 260 OFFCURVE",
"282 415 OFFCURVE",
"317 493 QCURVE",
"317 493 LINE"
);
},
{
closed = 1;
nodes = (
"287 473 OFFCURVE",
"247 396 OFFCURVE",
"199 321 OFFCURVE",
"147 252 OFFCURVE",
"120 225 QCURVE",
"132 255 OFFCURVE",
"170 346 OFFCURVE",
"214 441 OFFCURVE",
"260 527 OFFCURVE",
"278 553 QCURVE SMOOTH",
"298 582 OFFCURVE",
"316 588 OFFCURVE",
"319 565 OFFCURVE",
"309 525 OFFCURVE",
"302 508 QCURVE",
"302 508 LINE"
);
}
);
userData = {
assembly = "SVTCA[0]\011/* SetFreedomAndProjectionVectorToAxis */
PUSHW[ ]\011/* 1 value pushed */
0 
RCVT[ ]\011/* ReadCVT */
IF[ ]\011/* If */
PUSHW[ ]\011/* 1 value pushed */
24 
MDAP[1]\011/* MoveDirectAbsPt */
ELSE[ ]\011/* Else */
PUSHW[ ]\011/* 2 values pushed */
24 5 
MIAP[0]\011/* MoveIndirectAbsPt */
EIF[ ]\011/* EndIf */
IUP[0]\011/* InterpolateUntPts */
IUP[1]\011/* InterpolateUntPts */";
};
width = 212;
}
);
note = l;
unicode = 006C;
},
{
glyphname = m;
layers = (
{
layerId = "8CCE14AF-3337-4F2C-A14C-E3F14A892F52";
paths = (
{
closed = 1;
nodes = (
"585 199 OFFCURVE",
"570 206 OFFCURVE",
"564 193 QCURVE SMOOTH",
"556 176 OFFCURVE",
"526 117 OFFCURVE",
"488 61 OFFCURVE",
"446 20 OFFCURVE",
"427 20 QCURVE SMOOTH",
"417 20 OFFCURVE",
"405 39 OFFCURVE",
"410 70 QCURVE SMOOTH",
"413 83 OFFCURVE",
"426 119 OFFCURVE",
"444 160 OFFCURVE",
"464 204 OFFCURVE",
"475 225 QCURVE SMOOTH",
"500 274 OFFCURVE",
"530 328 QCURVE",
"518 332 OFFCURVE",
"470 316 OFFCURVE",
"416 287 OFFCURVE",
"363 250 OFFCURVE",
"345 234 QCURVE SMOOTH",
"322 214 OFFCURVE",
"277 163 OFFCURVE",
"262 144 QCURVE",
"280 181 OFFCURVE",
"321 252 OFFCURVE",
"335 284 QCURVE SMOOTH",
"342 299 OFFCURVE",
"334 323 OFFCURVE",
"320 328 QCURVE SMOOTH",
"307 332 OFFCURVE",
"272 316 OFFCURVE",
"233 287 OFFCURVE",
"192 250 OFFCURVE",
"174 234 QCURVE SMOOTH",
"151 214 OFFCURVE",
"106 163 OFFCURVE",
"91 144 QCURVE",
"104 171 OFFCURVE",
"137 232 OFFCURVE",
"170 286 OFFCURVE",
"201 326 OFFCURVE",
"212 332 QCURVE",
"201 330 OFFCURVE",
"180 335 OFFCURVE",
"170 336 QCURVE SMOOTH",
"146 337 OFFCURVE",
"118 309 OFFCURVE",
"99 273 QCURVE SMOOTH",
"62 205 OFFCURVE",
"-1 67 OFFCURVE",
"-37 -5 QCURVE",
"-29 0 OFFCURVE",
"-15 0 OFFCURVE",
"-4 1 QCURVE SMOOTH",
"13 1 OFFCURVE",
"29 6 OFFCURVE",
"34 17 QCURVE SMOOTH",
"77 99 OFFCURVE",
"146 189 OFFCURVE",
"172 212 QCURVE SMOOTH",
"211 249 OFFCURVE",
"243 264 OFFCURVE",
"244 242 OFFCURVE",
"224 194 OFFCURVE",
"212 169 QCURVE SMOOTH",
"199 141 OFFCURVE",
"175 88 OFFCURVE",
"170 55 QCURVE SMOOTH",
"166 33 OFFCURVE",
"185 0 OFFCURVE",
"202 0 QCURVE",
"207 22 OFFCURVE",
"240 83 OFFCURVE",
"282 144 OFFCURVE",
"327 197 OFFCURVE",
"343 212 QCURVE SMOOTH",
"372 239 OFFCURVE",
"408 259 OFFCURVE",
"425 255 OFFCURVE",
"423 233 OFFCURVE",
"414 218 QCURVE SMOOTH",
"393 184 OFFCURVE",
"365 133 OFFCURVE",
"359 113 QCURVE SMOOTH",
"348 78 OFFCURVE",
"352 33 OFFCURVE",
"371 6 OFFCURVE",
"399 -4 OFFCURVE",
"413 -4 QCURVE SMOOTH",
"441 -4 OFFCURVE",
"492 38 OFFCURVE",
"534 97 OFFCURVE",
"567 161 OFFCURVE",
"578 184 QCURVE",
"578 184 LINE"
);
}
);
userData = {
assembly = "SVTCA[0]\011/* SetFreedomAndProjectionVectorToAxis */
PUSHW[ ]\011/* 1 value pushed */
0 
RCVT[ ]\011/* ReadCVT */
IF[ ]\011/* If */
PUSHW[ ]\011/* 1 value pushed */
5 
MDAP[1]\011/* MoveDirectAbsPt */
ELSE[ ]\011/* Else */
PUSHW[ ]\011/* 2 values pushed */
5 5 
MIAP[0]\011/* MoveIndirectAbsPt */
EIF[ ]\011/* EndIf */
PUSHW[ ]\011/* 1 value pushed */
0 
RCVT[ ]\011/* ReadCVT */
IF[ ]\011/* If */
PUSHW[ ]\011/* 1 value pushed */
23 
MDAP[1]\011/* MoveDirectAbsPt */
ELSE[ ]\011/* Else */
PUSHW[ ]\011/* 2 values pushed */
23 5 
MIAP[0]\011/* MoveIndirectAbsPt */
EIF[ ]\011/* EndIf */
PUSHW[ ]\011/* 1 value pushed */
0 
RCVT[ ]\011/* ReadCVT */
IF[ ]\011/* If */
PUSHW[ ]\011/* 1 value pushed */
40 
MDAP[1]\011/* MoveDirectAbsPt */
ELSE[ ]\011/* Else */
PUSHW[ ]\011/* 2 values pushed */
40 5 
MIAP[0]\011/* MoveIndirectAbsPt */
EIF[ ]\011/* EndIf */
PUSHW[ ]\011/* 1 value pushed */
0 
RCVT[ ]\011/* ReadCVT */
IF[ ]\011/* If */
PUSHW[ ]\011/* 1 value pushed */
43 
MDAP[1]\011/* MoveDirectAbsPt */
ELSE[ ]\011/* Else */
PUSHW[ ]\011/* 2 values pushed */
43 5 
MIAP[0]\011/* MoveIndirectAbsPt */
EIF[ ]\011/* EndIf */
PUSHW[ ]\011/* 1 value pushed */
5 
SRP0[ ]\011/* SetRefPoint0 */
PUSHW[ ]\011/* 2 values pushed */
89 2 
MIRP[10100]\011/* MoveIndirectRelPt */
NPUSHW[ ]\011/* 33 values pushed */
7 89 23 89 39 89 55 89 71 89 87 89 103 89 119 89 135 89 151 89 167 89 183 89 199 89 215 89 231 89 247 89 16 
DELTAP1[ ]\011/* DeltaExceptionP1 */
NPUSHW[ ]\011/* 33 values pushed */
7 89 23 89 39 89 55 89 71 89 87 89 103 89 119 89 135 89 151 89 167 89 183 89 199 89 215 89 231 89 247 89 16 
DELTAP2[ ]\011/* DeltaExceptionP2 */
NPUSHW[ ]\011/* 33 values pushed */
7 89 23 89 39 89 55 89 71 89 87 89 103 89 119 89 135 89 151 89 167 89 183 89 199 89 215 89 231 89 247 89 16 
DELTAP3[ ]\011/* DeltaExceptionP3 */
IUP[0]\011/* InterpolateUntPts */
IUP[1]\011/* InterpolateUntPts */";
};
width = 507;
}
);
note = m;
unicode = 006D;
},
